<svg width="16" height="16" viewBox="0 0 16 16" fill="none" xmlns="http://www.w3.org/2000/svg">
<path d="M13.7144 6.57135H9.42873V2.28563C9.42873 1.75974 9.00225 1.33325 8.47635 1.33325H7.52397C6.99808 1.33325 6.57159 1.75974 6.57159 2.28563V6.57135H2.28588C1.75998 6.57135 1.3335 6.99784 1.3335 7.52373V8.47611C1.3335 9.002 1.75998 9.42849 2.28588 9.42849H6.57159V13.7142C6.57159 14.2401 6.99808 14.6666 7.52397 14.6666H8.47635C9.00225 14.6666 9.42873 14.2401 9.42873 13.7142V9.42849H13.7144C14.2403 9.42849 14.6668 9.002 14.6668 8.47611V7.52373C14.6668 6.99784 14.2403 6.57135 13.7144 6.57135Z" fill="#494949"/>
</svg>
