<svg width="29" height="28" viewBox="0 0 29 28" fill="none" xmlns="http://www.w3.org/2000/svg">
<path d="M24.4609 12.125C24.4608 9.87973 23.7468 7.68583 22.4108 5.82563C21.0748 3.96543 19.178 2.52403 16.9644 1.6869C14.7508 0.849767 12.3216 0.655202 9.98956 1.12824C7.65747 1.60127 5.52912 2.72027 3.87837 4.34124C2.22763 5.96222 1.13 8.011 0.726719 10.224C0.323442 12.437 0.632969 14.7129 1.61547 16.759C2.59797 18.805 4.2085 20.5275 6.23983 21.7049C8.27115 22.8823 10.6303 23.4607 13.0138 23.3657C12.7879 22.7621 12.6362 22.1361 12.5616 21.5H12.5078C10.5377 21.5 8.61189 20.9502 6.97382 19.9201C5.33575 18.8899 4.05903 17.4257 3.30511 15.7127C2.55119 13.9996 2.35393 12.1146 2.73828 10.2961C3.12262 8.47748 4.07131 6.80702 5.46437 5.4959C6.85744 4.18478 8.63231 3.2919 10.5645 2.93016C12.4968 2.56843 14.4996 2.75408 16.3197 3.46366C18.1398 4.17323 19.6955 5.37485 20.79 6.91656C21.8846 8.45827 22.4688 10.2708 22.4688 12.125V12.1757C23.1561 12.2488 23.8195 12.3932 24.451 12.6013C24.457 12.4438 24.4609 12.2844 24.4609 12.125ZM12.7309 18.6838C12.8983 17.9938 13.1533 17.3357 13.488 16.7225C12.6372 16.8846 11.7561 16.834 10.9326 16.5758C10.1091 16.3175 9.37184 15.8606 8.79438 15.2507C8.61553 15.0761 8.37175 14.9735 8.11424 14.9645C7.85673 14.9555 7.60554 15.0408 7.41343 15.2024C7.22132 15.3641 7.10324 15.5895 7.08399 15.8313C7.06474 16.0732 7.14582 16.3126 7.3102 16.4994C7.98851 17.2146 8.82537 17.7809 9.76168 18.1583C10.698 18.5357 11.7109 18.7151 12.729 18.6838H12.7309ZM10.5156 10.25C10.5156 10.623 10.3582 10.9807 10.078 11.2444C9.7978 11.5081 9.41776 11.6563 9.02149 11.6563C8.62522 11.6563 8.24518 11.5081 7.96497 11.2444C7.68477 10.9807 7.52735 10.623 7.52735 10.25C7.52735 9.87707 7.68477 9.51938 7.96497 9.25566C8.24518 8.99193 8.62522 8.84378 9.02149 8.84378C9.41776 8.84378 9.7978 8.99193 10.078 9.25566C10.3582 9.51938 10.5156 9.87707 10.5156 10.25ZM15.9941 11.6563C16.3904 11.6563 16.7705 11.5081 17.0507 11.2444C17.3309 10.9807 17.4883 10.623 17.4883 10.25C17.4883 9.87707 17.3309 9.51938 17.0507 9.25566C16.7705 8.99193 16.3904 8.84378 15.9941 8.84378C15.5979 8.84378 15.2178 8.99193 14.9376 9.25566C14.6574 9.51938 14.5 9.87707 14.5 10.25C14.5 10.623 14.6574 10.9807 14.9376 11.2444C15.2178 11.5081 15.5979 11.6563 15.9941 11.6563ZM28.4453 20.5625C28.4453 22.303 27.7107 23.9722 26.4031 25.2029C25.0954 26.4336 23.3219 27.125 21.4727 27.125C19.6234 27.125 17.8499 26.4336 16.5423 25.2029C15.2346 23.9722 14.5 22.303 14.5 20.5625C14.5 18.822 15.2346 17.1528 16.5423 15.9221C17.8499 14.6914 19.6234 14 21.4727 14C23.3219 14 25.0954 14.6914 26.4031 15.9221C27.7107 17.1528 28.4453 18.822 28.4453 20.5625ZM22.4688 16.8125C22.4688 16.5639 22.3638 16.3254 22.177 16.1496C21.9902 15.9738 21.7368 15.875 21.4727 15.875C21.2085 15.875 20.9551 15.9738 20.7683 16.1496C20.5815 16.3254 20.4766 16.5639 20.4766 16.8125V19.625H17.4883C17.2241 19.625 16.9707 19.7238 16.7839 19.8996C16.5971 20.0754 16.4922 20.3139 16.4922 20.5625C16.4922 20.8112 16.5971 21.0496 16.7839 21.2254C16.9707 21.4013 17.2241 21.5 17.4883 21.5H20.4766V24.3125C20.4766 24.5612 20.5815 24.7996 20.7683 24.9754C20.9551 25.1513 21.2085 25.25 21.4727 25.25C21.7368 25.25 21.9902 25.1513 22.177 24.9754C22.3638 24.7996 22.4688 24.5612 22.4688 24.3125V21.5H25.457C25.7212 21.5 25.9746 21.4013 26.1614 21.2254C26.3482 21.0496 26.4531 20.8112 26.4531 20.5625C26.4531 20.3139 26.3482 20.0754 26.1614 19.8996C25.9746 19.7238 25.7212 19.625 25.457 19.625H22.4688V16.8125Z" fill="#494949"/>
</svg>
