<svg width="27" height="27" viewBox="0 0 27 27" fill="none" xmlns="http://www.w3.org/2000/svg">
<path d="M21.375 12.3749H8.0325L12.1163 7.46994C12.3072 7.2402 12.3991 6.94401 12.3716 6.64653C12.3442 6.34905 12.1997 6.07465 11.97 5.88369C11.7403 5.69274 11.4441 5.60087 11.1466 5.6283C10.8491 5.65572 10.5747 5.8002 10.3837 6.02994L4.75875 12.7799C4.72091 12.8336 4.68706 12.89 4.6575 12.9487C4.6575 13.0049 4.6575 13.0387 4.57875 13.0949C4.52776 13.2239 4.50106 13.3612 4.5 13.4999C4.50106 13.6386 4.52776 13.776 4.57875 13.9049C4.57875 13.9612 4.57875 13.9949 4.6575 14.0512C4.68706 14.1099 4.72091 14.1663 4.75875 14.2199L10.3837 20.9699C10.4895 21.0969 10.622 21.1991 10.7717 21.2691C10.9214 21.3391 11.0847 21.3752 11.25 21.3749C11.5129 21.3755 11.7676 21.2839 11.97 21.1162C12.0839 21.0218 12.1781 20.9058 12.2471 20.7749C12.3161 20.644 12.3586 20.5008 12.3722 20.3534C12.3858 20.2061 12.3702 20.0575 12.3263 19.9162C12.2823 19.7749 12.211 19.6436 12.1163 19.5299L8.0325 14.6249H21.375C21.6734 14.6249 21.9595 14.5064 22.1705 14.2954C22.3815 14.0845 22.5 13.7983 22.5 13.4999C22.5 13.2016 22.3815 12.9154 22.1705 12.7044C21.9595 12.4935 21.6734 12.3749 21.375 12.3749Z" fill="black"/>
</svg>
