<svg width="50" height="50" viewBox="0 0 50 50" fill="none" xmlns="http://www.w3.org/2000/svg">
<g clip-path="url(#clip0_1043_1236)">
<circle cx="25" cy="25" r="25" transform="rotate(180 25 25)" fill="white"/>
<path d="M19.3954 13.9792C19.2023 14.1719 19.049 14.4009 18.9445 14.6529C18.8399 14.9049 18.7861 15.1751 18.7861 15.4479C18.7861 15.7208 18.8399 15.991 18.9445 16.243C19.049 16.495 19.2023 16.724 19.3954 16.9167L27.4787 25L19.3954 33.0834C19.0059 33.4729 18.787 34.0012 18.787 34.5521C18.787 35.103 19.0059 35.6313 19.3954 36.0209C19.7849 36.4104 20.3133 36.6292 20.8641 36.6292C21.415 36.6292 21.9434 36.4104 22.3329 36.0209L31.8954 26.4584C32.0885 26.2656 32.2417 26.0367 32.3463 25.7847C32.4508 25.5326 32.5046 25.2625 32.5046 24.9896C32.5046 24.7168 32.4508 24.4466 32.3463 24.1946C32.2417 23.9425 32.0885 23.7136 31.8954 23.5209L22.3329 13.9584C21.5412 13.1667 20.2079 13.1667 19.3954 13.9792Z" fill="#494949"/>
</g>
<defs>
<clipPath id="clip0_1043_1236">
<rect width="50" height="50" fill="white"/>
</clipPath>
</defs>
</svg>
