<svg width="44" height="45" viewBox="0 0 44 45" fill="none" xmlns="http://www.w3.org/2000/svg">
<path d="M34.7942 20.6249H13.0754L19.7229 12.4499C20.0337 12.067 20.1833 11.5733 20.1386 11.0775C20.094 10.5818 19.8588 10.1244 19.4848 9.80616C19.1108 9.4879 18.6287 9.33478 18.1445 9.38049C17.6602 9.4262 17.2136 9.667 16.9027 10.0499L7.74639 21.2999C7.68478 21.3894 7.6297 21.4834 7.58157 21.5812C7.58157 21.6749 7.58157 21.7312 7.45338 21.8249C7.37038 22.0399 7.32692 22.2687 7.3252 22.4999C7.32692 22.7311 7.37038 22.9599 7.45338 23.1749C7.45338 23.2687 7.45338 23.3249 7.58157 23.4187C7.6297 23.5164 7.68478 23.6104 7.74639 23.6999L16.9027 34.9499C17.0749 35.1616 17.2905 35.3318 17.5342 35.4484C17.7779 35.5651 18.0438 35.6254 18.3128 35.6249C18.7407 35.6258 19.1554 35.4732 19.4848 35.1937C19.6702 35.0363 19.8235 34.8429 19.9359 34.6248C20.0482 34.4066 20.1174 34.1679 20.1396 33.9224C20.1617 33.6768 20.1363 33.4291 20.0648 33.1936C19.9933 32.9581 19.8771 32.7394 19.7229 32.5499L13.0754 24.3749H34.7942C35.2799 24.3749 35.7457 24.1774 36.0891 23.8257C36.4326 23.4741 36.6255 22.9972 36.6255 22.4999C36.6255 22.0026 36.4326 21.5257 36.0891 21.1741C35.7457 20.8225 35.2799 20.6249 34.7942 20.6249Z" fill="#161618"/>
</svg>
