<svg width="14" height="24" viewBox="0 0 14 24" fill="none" xmlns="http://www.w3.org/2000/svg">
<path d="M13.1095 22.65C13.3026 22.4572 13.4558 22.2283 13.5604 21.9763C13.6649 21.7242 13.7188 21.4541 13.7188 21.1812C13.7188 20.9084 13.6649 20.6382 13.5604 20.3862C13.4558 20.1341 13.3026 19.9052 13.1095 19.7125L5.02616 11.6291L13.1095 3.54579C13.499 3.15626 13.7179 2.62793 13.7179 2.07704C13.7179 1.52616 13.499 0.997828 13.1095 0.60829C12.72 0.218754 12.1916 -8.2016e-05 11.6407 -8.2016e-05C11.0899 -8.2016e-05 10.5615 0.218754 10.172 0.60829L0.609491 10.1708C0.416359 10.3635 0.263135 10.5925 0.15859 10.8445C0.0540457 11.0965 0.000234604 11.3667 0.000234604 11.6395C0.000234604 11.9124 0.0540457 12.1826 0.15859 12.4346C0.263135 12.6866 0.416359 12.9156 0.609491 13.1083L10.172 22.6708C10.9637 23.4625 12.297 23.4625 13.1095 22.65Z" fill="white"/>
<path d="M13.1095 22.65C13.3026 22.4572 13.4558 22.2283 13.5604 21.9763C13.6649 21.7242 13.7188 21.4541 13.7188 21.1812C13.7188 20.9084 13.6649 20.6382 13.5604 20.3862C13.4558 20.1341 13.3026 19.9052 13.1095 19.7125L5.02616 11.6291L13.1095 3.54579C13.499 3.15626 13.7179 2.62793 13.7179 2.07704C13.7179 1.52616 13.499 0.997828 13.1095 0.60829C12.72 0.218754 12.1916 -8.2016e-05 11.6407 -8.2016e-05C11.0899 -8.2016e-05 10.5615 0.218754 10.172 0.60829L0.609491 10.1708C0.416359 10.3635 0.263135 10.5925 0.15859 10.8445C0.0540457 11.0965 0.000234604 11.3667 0.000234604 11.6395C0.000234604 11.9124 0.0540457 12.1826 0.15859 12.4346C0.263135 12.6866 0.416359 12.9156 0.609491 13.1083L10.172 22.6708C10.9637 23.4625 12.297 23.4625 13.1095 22.65Z" fill="white"/>
<path d="M13.1095 22.65C13.3026 22.4572 13.4558 22.2283 13.5604 21.9763C13.6649 21.7242 13.7188 21.4541 13.7188 21.1812C13.7188 20.9084 13.6649 20.6382 13.5604 20.3862C13.4558 20.1341 13.3026 19.9052 13.1095 19.7125L5.02616 11.6291L13.1095 3.54579C13.499 3.15626 13.7179 2.62793 13.7179 2.07704C13.7179 1.52616 13.499 0.997828 13.1095 0.60829C12.72 0.218754 12.1916 -8.2016e-05 11.6407 -8.2016e-05C11.0899 -8.2016e-05 10.5615 0.218754 10.172 0.60829L0.609491 10.1708C0.416359 10.3635 0.263135 10.5925 0.15859 10.8445C0.0540457 11.0965 0.000234604 11.3667 0.000234604 11.6395C0.000234604 11.9124 0.0540457 12.1826 0.15859 12.4346C0.263135 12.6866 0.416359 12.9156 0.609491 13.1083L10.172 22.6708C10.9637 23.4625 12.297 23.4625 13.1095 22.65Z" fill="white"/>
<path d="M13.1095 22.65C13.3026 22.4572 13.4558 22.2283 13.5604 21.9763C13.6649 21.7242 13.7188 21.4541 13.7188 21.1812C13.7188 20.9084 13.6649 20.6382 13.5604 20.3862C13.4558 20.1341 13.3026 19.9052 13.1095 19.7125L5.02616 11.6291L13.1095 3.54579C13.499 3.15626 13.7179 2.62793 13.7179 2.07704C13.7179 1.52616 13.499 0.997828 13.1095 0.60829C12.72 0.218754 12.1916 -8.2016e-05 11.6407 -8.2016e-05C11.0899 -8.2016e-05 10.5615 0.218754 10.172 0.60829L0.609491 10.1708C0.416359 10.3635 0.263135 10.5925 0.15859 10.8445C0.0540457 11.0965 0.000234604 11.3667 0.000234604 11.6395C0.000234604 11.9124 0.0540457 12.1826 0.15859 12.4346C0.263135 12.6866 0.416359 12.9156 0.609491 13.1083L10.172 22.6708C10.9637 23.4625 12.297 23.4625 13.1095 22.65Z" fill="white"/>
<path d="M13.1095 22.65C13.3026 22.4572 13.4558 22.2283 13.5604 21.9763C13.6649 21.7242 13.7188 21.4541 13.7188 21.1812C13.7188 20.9084 13.6649 20.6382 13.5604 20.3862C13.4558 20.1341 13.3026 19.9052 13.1095 19.7125L5.02616 11.6291L13.1095 3.54579C13.499 3.15626 13.7179 2.62793 13.7179 2.07704C13.7179 1.52616 13.499 0.997828 13.1095 0.60829C12.72 0.218754 12.1916 -8.2016e-05 11.6407 -8.2016e-05C11.0899 -8.2016e-05 10.5615 0.218754 10.172 0.60829L0.609491 10.1708C0.416359 10.3635 0.263135 10.5925 0.15859 10.8445C0.0540457 11.0965 0.000234604 11.3667 0.000234604 11.6395C0.000234604 11.9124 0.0540457 12.1826 0.15859 12.4346C0.263135 12.6866 0.416359 12.9156 0.609491 13.1083L10.172 22.6708C10.9637 23.4625 12.297 23.4625 13.1095 22.65Z" fill="white"/>
<path d="M13.1095 22.65C13.3026 22.4572 13.4558 22.2283 13.5604 21.9763C13.6649 21.7242 13.7188 21.4541 13.7188 21.1812C13.7188 20.9084 13.6649 20.6382 13.5604 20.3862C13.4558 20.1341 13.3026 19.9052 13.1095 19.7125L5.02616 11.6291L13.1095 3.54579C13.499 3.15626 13.7179 2.62793 13.7179 2.07704C13.7179 1.52616 13.499 0.997828 13.1095 0.60829C12.72 0.218754 12.1916 -8.2016e-05 11.6407 -8.2016e-05C11.0899 -8.2016e-05 10.5615 0.218754 10.172 0.60829L0.609491 10.1708C0.416359 10.3635 0.263135 10.5925 0.15859 10.8445C0.0540457 11.0965 0.000234604 11.3667 0.000234604 11.6395C0.000234604 11.9124 0.0540457 12.1826 0.15859 12.4346C0.263135 12.6866 0.416359 12.9156 0.609491 13.1083L10.172 22.6708C10.9637 23.4625 12.297 23.4625 13.1095 22.65Z" fill="white"/>
</svg>
