<svg width="10" height="16" viewBox="0 0 10 16" fill="none" xmlns="http://www.w3.org/2000/svg">
<path d="M9.01649 15.5791C9.14933 15.4465 9.25472 15.289 9.32663 15.1157C9.39853 14.9423 9.43555 14.7565 9.43555 14.5688C9.43555 14.3812 9.39853 14.1953 9.32663 14.022C9.25472 13.8486 9.14933 13.6912 9.01649 13.5586L3.45665 7.99875L9.01649 2.43891C9.28442 2.17098 9.43494 1.80759 9.43494 1.42868C9.43494 1.04977 9.28442 0.686378 9.01649 0.418448C8.74856 0.150519 8.38517 9.53674e-07 8.00626 9.53674e-07C7.62735 9.53674e-07 7.26396 0.150519 6.99603 0.418448L0.418794 6.99569C0.285954 7.12825 0.180564 7.28572 0.108656 7.45907C0.0367489 7.63242 -0.000263214 7.81825 -0.000263214 8.00592C-0.000263214 8.19359 0.0367489 8.37942 0.108656 8.55276C0.180564 8.72611 0.285954 8.88358 0.418794 9.01615L6.99603 15.5934C7.54055 16.1379 8.45764 16.1379 9.01649 15.5791Z" fill="white"/>
<path d="M9.01649 15.5791C9.14933 15.4465 9.25472 15.289 9.32663 15.1157C9.39853 14.9423 9.43555 14.7565 9.43555 14.5688C9.43555 14.3812 9.39853 14.1953 9.32663 14.022C9.25472 13.8486 9.14933 13.6912 9.01649 13.5586L3.45665 7.99875L9.01649 2.43891C9.28442 2.17098 9.43494 1.80759 9.43494 1.42868C9.43494 1.04977 9.28442 0.686378 9.01649 0.418448C8.74856 0.150519 8.38517 9.53674e-07 8.00626 9.53674e-07C7.62735 9.53674e-07 7.26396 0.150519 6.99603 0.418448L0.418794 6.99569C0.285954 7.12825 0.180564 7.28572 0.108656 7.45907C0.0367489 7.63242 -0.000263214 7.81825 -0.000263214 8.00592C-0.000263214 8.19359 0.0367489 8.37942 0.108656 8.55276C0.180564 8.72611 0.285954 8.88358 0.418794 9.01615L6.99603 15.5934C7.54055 16.1379 8.45764 16.1379 9.01649 15.5791Z" fill="white"/>
<path d="M9.01649 15.5791C9.14933 15.4465 9.25472 15.289 9.32663 15.1157C9.39853 14.9423 9.43555 14.7565 9.43555 14.5688C9.43555 14.3812 9.39853 14.1953 9.32663 14.022C9.25472 13.8486 9.14933 13.6912 9.01649 13.5586L3.45665 7.99875L9.01649 2.43891C9.28442 2.17098 9.43494 1.80759 9.43494 1.42868C9.43494 1.04977 9.28442 0.686378 9.01649 0.418448C8.74856 0.150519 8.38517 9.53674e-07 8.00626 9.53674e-07C7.62735 9.53674e-07 7.26396 0.150519 6.99603 0.418448L0.418794 6.99569C0.285954 7.12825 0.180564 7.28572 0.108656 7.45907C0.0367489 7.63242 -0.000263214 7.81825 -0.000263214 8.00592C-0.000263214 8.19359 0.0367489 8.37942 0.108656 8.55276C0.180564 8.72611 0.285954 8.88358 0.418794 9.01615L6.99603 15.5934C7.54055 16.1379 8.45764 16.1379 9.01649 15.5791Z" fill="white"/>
<path d="M9.01649 15.5791C9.14933 15.4465 9.25472 15.289 9.32663 15.1157C9.39853 14.9423 9.43555 14.7565 9.43555 14.5688C9.43555 14.3812 9.39853 14.1953 9.32663 14.022C9.25472 13.8486 9.14933 13.6912 9.01649 13.5586L3.45665 7.99875L9.01649 2.43891C9.28442 2.17098 9.43494 1.80759 9.43494 1.42868C9.43494 1.04977 9.28442 0.686378 9.01649 0.418448C8.74856 0.150519 8.38517 9.53674e-07 8.00626 9.53674e-07C7.62735 9.53674e-07 7.26396 0.150519 6.99603 0.418448L0.418794 6.99569C0.285954 7.12825 0.180564 7.28572 0.108656 7.45907C0.0367489 7.63242 -0.000263214 7.81825 -0.000263214 8.00592C-0.000263214 8.19359 0.0367489 8.37942 0.108656 8.55276C0.180564 8.72611 0.285954 8.88358 0.418794 9.01615L6.99603 15.5934C7.54055 16.1379 8.45764 16.1379 9.01649 15.5791Z" fill="white"/>
<path d="M9.01649 15.5791C9.14933 15.4465 9.25472 15.289 9.32663 15.1157C9.39853 14.9423 9.43555 14.7565 9.43555 14.5688C9.43555 14.3812 9.39853 14.1953 9.32663 14.022C9.25472 13.8486 9.14933 13.6912 9.01649 13.5586L3.45665 7.99875L9.01649 2.43891C9.28442 2.17098 9.43494 1.80759 9.43494 1.42868C9.43494 1.04977 9.28442 0.686378 9.01649 0.418448C8.74856 0.150519 8.38517 9.53674e-07 8.00626 9.53674e-07C7.62735 9.53674e-07 7.26396 0.150519 6.99603 0.418448L0.418794 6.99569C0.285954 7.12825 0.180564 7.28572 0.108656 7.45907C0.0367489 7.63242 -0.000263214 7.81825 -0.000263214 8.00592C-0.000263214 8.19359 0.0367489 8.37942 0.108656 8.55276C0.180564 8.72611 0.285954 8.88358 0.418794 9.01615L6.99603 15.5934C7.54055 16.1379 8.45764 16.1379 9.01649 15.5791Z" fill="white"/>
<path d="M9.01649 15.5791C9.14933 15.4465 9.25472 15.289 9.32663 15.1157C9.39853 14.9423 9.43555 14.7565 9.43555 14.5688C9.43555 14.3812 9.39853 14.1953 9.32663 14.022C9.25472 13.8486 9.14933 13.6912 9.01649 13.5586L3.45665 7.99875L9.01649 2.43891C9.28442 2.17098 9.43494 1.80759 9.43494 1.42868C9.43494 1.04977 9.28442 0.686378 9.01649 0.418448C8.74856 0.150519 8.38517 9.53674e-07 8.00626 9.53674e-07C7.62735 9.53674e-07 7.26396 0.150519 6.99603 0.418448L0.418794 6.99569C0.285954 7.12825 0.180564 7.28572 0.108656 7.45907C0.0367489 7.63242 -0.000263214 7.81825 -0.000263214 8.00592C-0.000263214 8.19359 0.0367489 8.37942 0.108656 8.55276C0.180564 8.72611 0.285954 8.88358 0.418794 9.01615L6.99603 15.5934C7.54055 16.1379 8.45764 16.1379 9.01649 15.5791Z" fill="white"/>
</svg>
