<svg width="50" height="50" viewBox="0 0 50 50" fill="none" xmlns="http://www.w3.org/2000/svg">
<g clip-path="url(#clip0_1043_1233)">
<circle cx="25" cy="25" r="25" fill="white"/>
<path d="M30.6046 36.0208C30.7977 35.8281 30.951 35.5991 31.0555 35.3471C31.1601 35.0951 31.2139 34.8249 31.2139 34.5521C31.2139 34.2792 31.1601 34.009 31.0555 33.757C30.951 33.505 30.7977 33.276 30.6046 33.0833L22.5213 25L30.6046 16.9166C30.9941 16.5271 31.213 15.9988 31.213 15.4479C31.213 14.897 30.9941 14.3687 30.6046 13.9791C30.2151 13.5896 29.6867 13.3708 29.1359 13.3708C28.585 13.3708 28.0566 13.5896 27.6671 13.9791L18.1046 23.5416C17.9115 23.7344 17.7583 23.9633 17.6537 24.2153C17.5492 24.4674 17.4954 24.7375 17.4954 25.0104C17.4954 25.2832 17.5492 25.5534 17.6537 25.8054C17.7583 26.0575 17.9115 26.2864 18.1046 26.4791L27.6671 36.0416C28.4588 36.8333 29.7921 36.8333 30.6046 36.0208Z" fill="#494949"/>
</g>
<defs>
<clipPath id="clip0_1043_1233">
<rect width="50" height="50" fill="white" transform="translate(50 50) rotate(-180)"/>
</clipPath>
</defs>
</svg>
