<svg width="19" height="17" viewBox="0 0 19 17" fill="none" xmlns="http://www.w3.org/2000/svg">
<path d="M17.375 7.37494H4.0325L8.11625 2.46994C8.30721 2.2402 8.39908 1.94401 8.37165 1.64653C8.34422 1.34905 8.19974 1.07465 7.97 0.883694C7.74026 0.692738 7.44407 0.600868 7.14659 0.628296C6.84911 0.655723 6.57471 0.8002 6.38375 1.02994L0.75875 7.77994C0.720906 7.83363 0.687064 7.89004 0.6575 7.94869C0.6575 8.00494 0.6575 8.03869 0.57875 8.09494C0.527758 8.22394 0.501059 8.36124 0.5 8.49994C0.501059 8.63864 0.527758 8.77595 0.57875 8.90494C0.57875 8.96119 0.57875 8.99494 0.6575 9.05119C0.687064 9.10985 0.720906 9.16625 0.75875 9.21994L6.38375 15.9699C6.48952 16.0969 6.62198 16.1991 6.7717 16.2691C6.92142 16.3391 7.08473 16.3752 7.25 16.3749C7.51286 16.3755 7.7676 16.2839 7.97 16.1162C8.08392 16.0218 8.17808 15.9058 8.2471 15.7749C8.31612 15.644 8.35864 15.5008 8.37223 15.3534C8.38581 15.2061 8.3702 15.0575 8.32627 14.9162C8.28235 14.7749 8.21098 14.6436 8.11625 14.5299L4.0325 9.62494H17.375C17.6734 9.62494 17.9595 9.50642 18.1705 9.29544C18.3815 9.08446 18.5 8.79831 18.5 8.49994C18.5 8.20158 18.3815 7.91543 18.1705 7.70445C17.9595 7.49347 17.6734 7.37494 17.375 7.37494Z" fill="#494949"/>
</svg>
