<svg width="57" height="18" viewBox="0 0 57 18" fill="none" xmlns="http://www.w3.org/2000/svg">
<g clip-path="url(#clip0_1154_237)">
<path d="M48.8691 0.0102539H49.0558C49.278 0.15848 49.3623 0.436965 49.4846 0.667628C51.1699 3.9837 52.8578 7.29827 54.5452 10.6134C55.3607 12.2285 56.1929 13.8349 57 15.4543V15.4859C56.952 15.5771 56.9137 15.7205 56.7896 15.7078C55.9699 15.7105 55.149 15.7122 54.3297 15.707C54.1331 15.7153 54.08 15.4899 54.0057 15.3447C53.8566 15.0473 53.6959 14.7575 53.5614 14.4523C53.3313 14.0423 53.1501 13.6056 52.9201 13.196C52.7434 12.7909 52.515 12.415 52.3371 12.0107C52.2272 11.7659 52.0827 11.5405 51.9738 11.2955C51.8122 10.9315 51.603 10.5942 51.446 10.2277C51.2092 9.79706 51.0134 9.34405 50.7767 8.91336C50.6105 8.52746 50.3892 8.17187 50.2213 7.78681C50.1039 7.52198 49.9469 7.27856 49.8304 7.01292C49.6784 6.6682 49.4763 6.35109 49.3315 6.00298C49.2592 5.86832 49.2095 5.68108 49.0575 5.62715C48.9598 5.61882 48.8228 5.59298 48.7677 5.70306C48.5122 6.13411 48.3251 6.60454 48.0788 7.04128C47.9025 7.44613 47.6725 7.82185 47.4954 8.22619C47.3902 8.4612 47.252 8.67784 47.1459 8.91201C47.0653 9.08794 46.9834 9.26326 46.8883 9.43125C46.7199 9.72941 46.5997 10.0544 46.4293 10.3512C46.2807 10.6117 46.1751 10.8963 46.0268 11.1568C45.8711 11.4256 45.7625 11.7202 45.6093 11.99C45.4339 12.2969 45.3103 12.6324 45.1344 12.9389C44.9863 13.1995 44.8811 13.4836 44.7323 13.7441C44.5766 14.0129 44.468 14.3075 44.3148 14.5773C44.1498 14.8662 44.0287 15.1793 43.8734 15.4731C43.8203 15.5604 43.7694 15.67 43.665 15.6954C43.5047 15.7252 43.3406 15.7077 43.1786 15.7099C42.5518 15.7094 41.925 15.7073 41.2982 15.7121C41.1847 15.7099 41.0486 15.7117 40.9709 15.6091C40.9467 15.4972 40.9554 15.3762 41.0134 15.2776C43.5702 10.2457 46.1322 5.21708 48.6914 0.186089C48.7307 0.109011 48.8012 0.0581054 48.8693 0.0102839L48.8691 0.0102539ZM0.000114093 2.42688C0.175476 2.23271 0.441456 2.29623 0.668188 2.28967C2.95105 2.29096 5.23335 2.28967 7.51635 2.29015C8.18776 2.2664 8.86753 2.37294 9.49773 2.6199C10.5583 3.01936 11.4711 3.9165 11.8144 5.05757C11.9663 5.49036 11.9993 5.95615 12.0299 6.41221C12.0019 6.90066 11.9455 7.39708 11.7697 7.85446C11.5588 8.38984 11.2544 8.90557 10.8006 9.24982C10.6911 9.3607 10.5215 9.40772 10.4418 9.54717C11.0457 9.77606 11.5651 10.2097 11.9568 10.739C12.6006 11.623 12.7798 12.793 12.6704 13.8784C12.6128 14.594 12.4169 15.3044 12.0611 15.9206C11.8236 16.3038 11.5305 16.655 11.1747 16.9216C10.398 17.5268 9.4368 17.8057 8.48763 17.9205C8.2931 17.9483 8.09344 17.9333 7.90256 17.9894H0.174163C0.109872 17.935 0.050144 17.8746 0 17.8052V2.42685L0.000114093 2.42688ZM2.56219 4.67515C2.48912 4.76896 2.50914 4.89704 2.50503 5.00933C2.51159 6.17447 2.49502 7.33998 2.5133 8.50477C2.58136 8.59388 2.68576 8.65485 2.7964 8.64865C4.27214 8.64991 5.74828 8.64685 7.22379 8.65039C7.42924 8.65964 7.63139 8.61445 7.83393 8.58466C8.29322 8.51447 8.75213 8.32369 9.07247 7.9598C9.29165 7.73088 9.39148 7.41331 9.46532 7.10638C9.48327 6.85781 9.55891 6.60819 9.49296 6.35998C9.46122 5.93995 9.29875 5.53171 9.02775 5.21987C8.64816 4.85856 8.13999 4.68578 7.63895 4.62215C7.47862 4.60553 7.31572 4.63056 7.15662 4.59723C6.95872 4.55243 6.75615 4.57393 6.55575 4.57139C5.34436 4.56998 4.13303 4.57265 2.92216 4.56959C2.79603 4.56959 2.6699 4.60601 2.56217 4.67524L2.56219 4.67515ZM2.6444 10.9873C2.59514 11.0035 2.54799 11.0342 2.53296 11.0899C2.44396 11.2706 2.46233 11.4784 2.46322 11.6748C2.4649 12.8738 2.46199 14.0727 2.46444 15.2715C2.4669 15.443 2.55792 15.6859 2.7547 15.6649C4.3139 15.6657 5.87344 15.6639 7.43252 15.6653C7.58917 15.6709 7.74571 15.6653 7.90025 15.6355C8.44887 15.5864 9.0168 15.471 9.47907 15.1391C9.85065 14.8628 10.0549 14.4059 10.1343 13.9459C10.2394 13.4148 10.2002 12.8592 10.0532 12.3409C9.92164 11.941 9.66191 11.5766 9.29781 11.3828C8.81682 11.1047 8.26484 11.0215 7.72569 10.9731C6.0826 10.9736 4.43951 10.9736 2.79628 10.9731C2.74529 10.9719 2.69432 10.9766 2.64431 10.9871L2.6444 10.9873ZM15.2159 2.30243C15.3896 2.2726 15.5671 2.29365 15.7425 2.29015C18.1644 2.28967 20.5866 2.29144 23.0091 2.28922C24.1039 2.34803 25.2163 2.75007 26.0071 3.57016C26.6085 4.19421 26.9709 5.05056 27.0577 5.9289C27.056 6.27665 27.0715 6.62535 27.0486 6.97262C26.9446 7.71809 26.6656 8.4688 26.1312 8.99059C25.9801 9.15681 25.816 9.31123 25.6239 9.42341C25.5842 9.45847 25.5002 9.47602 25.5249 9.54714C26.1395 9.81023 26.6945 10.25 27.0765 10.8232C27.2407 11.0596 27.3588 11.3261 27.4724 11.5924C27.6983 12.1278 27.7405 12.7202 27.7735 13.2974C27.7455 13.7437 27.72 14.1941 27.6186 14.6308C27.4708 15.3921 27.0937 16.0976 26.5671 16.6405C26.3521 16.827 26.135 17.0138 25.8936 17.162C25.213 17.5995 24.4209 17.8018 23.6366 17.9105C23.4179 17.9495 23.1924 17.9285 22.9764 17.9894H15.2532C15.1329 17.9158 15.0165 17.7996 15.0319 17.6394C15.0328 12.6399 15.0328 7.64002 15.0319 2.64047C15.0269 2.50234 15.1054 2.37247 15.2161 2.30243H15.2159ZM17.8033 4.58618C17.7231 4.60595 17.6359 4.63661 17.5928 4.71683C17.5181 4.82783 17.5394 4.96986 17.5365 5.09746C17.5403 6.16483 17.5377 7.23221 17.5373 8.29914C17.5302 8.43823 17.6184 8.55837 17.7193 8.63766C18.0196 8.66539 18.3223 8.64083 18.6238 8.64868C19.9049 8.64784 21.1856 8.65042 22.4668 8.64784C22.8965 8.59696 23.3412 8.53812 23.7182 8.29785C24.1066 8.11459 24.3521 7.71767 24.484 7.30674C24.5834 6.97442 24.5492 6.62316 24.5509 6.28066C24.5225 6.03772 24.4486 5.79873 24.3433 5.58034C24.0423 5.03784 23.4623 4.73884 22.8869 4.65065C22.6606 4.591 22.4255 4.64014 22.1983 4.591C22.0246 4.55555 21.8475 4.5731 21.6726 4.57136C20.4333 4.56995 19.194 4.57265 17.9549 4.56959C17.9035 4.56995 17.853 4.57522 17.8033 4.58621V4.58618ZM17.7193 10.9881C17.595 11.0165 17.5319 11.1543 17.5386 11.2787C17.5377 12.5364 17.5394 13.7936 17.5377 15.0509C17.5394 15.211 17.5227 15.378 17.5819 15.5302C17.6117 15.6377 17.7369 15.6622 17.8296 15.6644C19.4163 15.6666 21.0034 15.6626 22.5907 15.6666C22.8004 15.6776 23.0054 15.621 23.2142 15.6109C23.749 15.5407 24.2982 15.379 24.7107 14.9974C25.036 14.6532 25.1951 14.1712 25.2303 13.6951C25.2719 13.4591 25.2816 13.2175 25.2353 12.9815C25.1947 12.4475 25.0169 11.8773 24.5951 11.5437C24.0849 11.1301 23.4234 11.0345 22.8004 10.9731C21.2136 10.9736 19.6264 10.9736 18.0396 10.9731C17.9328 10.9758 17.8241 10.9639 17.7193 10.9881L17.7193 10.9881ZM27.8651 2.62292C27.7896 2.46242 27.9391 2.26943 28.1016 2.28919C28.8815 2.28871 29.662 2.29317 30.4424 2.28742C30.5331 2.28263 30.6332 2.2962 30.6817 2.3892C30.8666 2.68736 31.0162 3.00876 31.1648 3.32848C31.2587 3.53282 31.3789 3.72231 31.473 3.92668C31.6463 4.32087 31.8706 4.68698 32.0421 5.08212C32.2718 5.49207 32.4534 5.92887 32.6831 6.33851C32.8801 6.78136 33.1278 7.19628 33.3224 7.64041C33.4915 7.95094 33.6451 8.26973 33.7984 8.58936C33.993 8.92043 34.1291 9.28362 34.3212 9.6164C34.4552 9.86111 34.5546 10.1246 34.6932 10.3667C34.8691 10.6732 34.9922 11.0092 35.168 11.3152C35.3421 11.6222 35.4604 11.9608 35.6478 12.2593C35.7318 12.4251 36.0065 12.4256 36.0909 12.2593C36.2775 11.9603 36.3961 11.6222 36.5702 11.3152C36.7255 11.0469 36.8349 10.7525 36.9878 10.4824C37.1632 10.1755 37.2867 9.84006 37.4626 9.53312C37.6363 9.21427 37.7716 8.87353 37.9549 8.56004C38.1687 8.08946 38.4267 7.64359 38.6376 7.17172C38.8106 6.86338 38.9562 6.54019 39.1141 6.22367C39.2987 5.91102 39.4264 5.56675 39.6072 5.25233C39.7634 4.97079 39.8778 4.66688 40.0361 4.38663C40.1964 4.1086 40.3084 3.80388 40.469 3.52584C40.6837 3.1465 40.8224 2.71943 41.0763 2.36468C41.1339 2.27122 41.247 2.29227 41.338 2.287C42.1042 2.29449 42.8709 2.28841 43.6371 2.28922C43.7412 2.27694 43.8289 2.34983 43.8781 2.44059C43.9269 2.59181 43.8222 2.7295 43.7561 2.85409C41.3197 7.63475 38.8903 12.4193 36.4547 17.2006C36.3152 17.4737 36.1974 17.7706 35.9816 17.9894H35.7979C35.521 17.8074 35.4279 17.4526 35.2696 17.1712C32.8006 12.3226 30.3368 7.46976 27.8653 2.62292H27.8651Z" fill="#004580"/>
</g>
<defs>
<clipPath id="clip0_1154_237">
<rect width="57" height="18" fill="white"/>
</clipPath>
</defs>
</svg>
