<svg width="50" height="50" viewBox="0 0 50 50" fill="none" xmlns="http://www.w3.org/2000/svg">
<path d="M12.9431 12.1094C13.4315 11.6212 14.0937 11.3469 14.7843 11.3469C15.4748 11.3469 16.1371 11.6212 16.6254 12.1094L25.8338 21.3177L35.0421 12.1094C35.5332 11.635 36.1911 11.3725 36.8739 11.3785C37.5567 11.3844 38.2098 11.6583 38.6927 12.1411C39.1755 12.6239 39.4494 13.2771 39.4553 13.9599C39.4612 14.6427 39.1987 15.3005 38.7244 15.7917L29.516 25L38.7244 34.2083C39.1987 34.6995 39.4612 35.3573 39.4553 36.0401C39.4494 36.7229 39.1755 37.3761 38.6927 37.8589C38.2098 38.3418 37.5567 38.6156 36.8739 38.6216C36.1911 38.6275 35.5332 38.365 35.0421 37.8906L25.8338 28.6823L16.6254 37.8906C16.1343 38.365 15.4765 38.6275 14.7936 38.6216C14.1108 38.6156 13.4577 38.3418 12.9749 37.8589C12.492 37.3761 12.2181 36.7229 12.2122 36.0401C12.2063 35.3573 12.4688 34.6995 12.9431 34.2083L22.1515 25L12.9431 15.7917C12.4549 15.3033 12.1807 14.6411 12.1807 13.9505C12.1807 13.26 12.4549 12.5977 12.9431 12.1094Z" fill="white"/>
</svg>
