<svg width="33" height="33" viewBox="0 0 33 33" fill="none" xmlns="http://www.w3.org/2000/svg">
<g clip-path="url(#clip0_685_3372)">
<path d="M12.2339 23.69C14.8765 25.6266 18.1529 26.494 21.4076 26.1186C24.6623 25.7433 27.6552 24.1528 29.7877 21.6655C31.9201 19.1783 33.0347 15.9775 32.9086 12.7037C32.7824 9.42986 31.4248 6.32439 29.1073 4.00856C26.7898 1.69272 23.6834 0.33732 20.4095 0.213517C17.1355 0.0897131 13.9356 1.20664 11.4498 3.34083C8.96406 5.47503 7.37578 8.46911 7.00275 11.7241C6.62971 14.979 7.49944 18.2548 9.43792 20.896V20.894C9.35792 20.954 9.28192 21.018 9.20792 21.09L1.50792 28.79C1.13264 29.165 0.921703 29.6738 0.921516 30.2043C0.921329 30.7349 1.1319 31.2437 1.50692 31.619C1.88194 31.9943 2.39067 32.2052 2.92121 32.2054C3.45175 32.2056 3.96064 31.995 4.33592 31.62L12.0359 23.92C12.1083 23.8485 12.1752 23.7716 12.2359 23.69H12.2339ZM19.9219 24.206C18.4774 24.206 17.047 23.9215 15.7124 23.3687C14.3778 22.8159 13.1652 22.0056 12.1437 20.9842C11.1223 19.9627 10.312 18.7501 9.75924 17.4155C9.20644 16.081 8.92192 14.6506 8.92192 13.206C8.92192 11.7615 9.20644 10.3311 9.75924 8.9965C10.312 7.66192 11.1223 6.44929 12.1437 5.42784C13.1652 4.4064 14.3778 3.59615 15.7124 3.04334C17.047 2.49054 18.4774 2.20602 19.9219 2.20602C22.8393 2.20602 25.6372 3.36494 27.7001 5.42785C29.763 7.49075 30.9219 10.2886 30.9219 13.206C30.9219 16.1234 29.763 18.9213 27.7001 20.9842C25.6372 23.0471 22.8393 24.206 19.9219 24.206Z" fill="#494949"/>
</g>
<defs>
<clipPath id="clip0_685_3372">
<rect width="32" height="32" fill="white" transform="translate(0.921875 0.206055)"/>
</clipPath>
</defs>
</svg>
