<svg width="21" height="20" viewBox="0 0 21 20" fill="none" xmlns="http://www.w3.org/2000/svg">
<path d="M3.75 0C2.75544 0 1.80161 0.395088 1.09835 1.09835C0.395088 1.80161 0 2.75544 0 3.75V11.25C0 11.7425 0.0969966 12.2301 0.285452 12.6851C0.473907 13.14 0.75013 13.5534 1.09835 13.9017C1.80161 14.6049 2.75544 15 3.75 15H4.5V17.913C4.49995 18.1954 4.58123 18.4718 4.73412 18.7092C4.88701 18.9466 5.10504 19.1349 5.36214 19.2517C5.61925 19.3685 5.90454 19.4087 6.18391 19.3676C6.46328 19.3265 6.72491 19.2059 6.9375 19.02L11.532 15H17.25C17.7425 15 18.2301 14.903 18.6851 14.7145C19.14 14.5261 19.5534 14.2499 19.9016 13.9017C20.2499 13.5534 20.5261 13.14 20.7145 12.6851C20.903 12.2301 21 11.7425 21 11.25V3.75C21 2.75544 20.6049 1.80161 19.9016 1.09835C19.1984 0.395088 18.2446 0 17.25 0H3.75Z" fill="#DDDDDD"/>
</svg>
