<svg width="50" height="50" viewBox="0 0 50 50" fill="none" xmlns="http://www.w3.org/2000/svg">
<path d="M8.28539 20.5C8.36919 19.4559 8.84321 18.4816 9.61305 17.7712C10.3829 17.0608 11.392 16.6665 12.4396 16.6667H37.5604C38.6079 16.6665 39.6171 17.0608 40.3869 17.7712C41.1567 18.4816 41.6308 19.4559 41.7146 20.5L43.3875 41.3334C43.4335 41.9067 43.3603 42.4833 43.1725 43.027C42.9848 43.5706 42.6865 44.0695 42.2964 44.4922C41.9064 44.9149 41.4331 45.2523 40.9063 45.4831C40.3795 45.7139 39.8106 45.8332 39.2354 45.8334H10.7646C10.1894 45.8332 9.6205 45.7139 9.09368 45.4831C8.56687 45.2523 8.09354 44.9149 7.70351 44.4922C7.31348 44.0695 7.01519 43.5706 6.82742 43.027C6.63965 42.4833 6.56646 41.9067 6.61248 41.3334L8.28539 20.5V20.5Z" stroke="#494949" stroke-width="3" stroke-linecap="round" stroke-linejoin="round"/>
<path d="M33.3332 22.9167V12.5C33.3332 10.2899 32.4552 8.17027 30.8924 6.60746C29.3296 5.04466 27.21 4.16669 24.9998 4.16669C22.7897 4.16669 20.6701 5.04466 19.1073 6.60746C17.5445 8.17027 16.6665 10.2899 16.6665 12.5V22.9167" stroke="#494949" stroke-width="3" stroke-linecap="round" stroke-linejoin="round"/>
</svg>
