<svg width="50" height="50" viewBox="0 0 50 50" fill="none" xmlns="http://www.w3.org/2000/svg">
<path fill-rule="evenodd" clip-rule="evenodd" d="M15 12.5V15H11.6675C10.5732 15.0002 9.51863 15.4106 8.71197 16.1502C7.9053 16.8897 7.4051 17.9048 7.31005 18.995L5.24505 42.745C5.19239 43.349 5.26584 43.9573 5.46073 44.5314C5.65563 45.1055 5.96772 45.6328 6.3772 46.0799C6.78668 46.527 7.28462 46.8841 7.83942 47.1286C8.39422 47.373 8.99378 47.4995 9.60005 47.5H40.4C41.0065 47.4999 41.6064 47.3736 42.1615 47.1293C42.7166 46.885 43.2148 46.528 43.6245 46.0808C44.0343 45.6337 44.3466 45.1063 44.5417 44.532C44.7367 43.9577 44.8102 43.3492 44.7575 42.745L42.6925 18.995C42.5975 17.9043 42.0969 16.889 41.2897 16.1493C40.4825 15.4097 39.4274 14.9996 38.3325 15H35V12.5C35 9.84783 33.9465 7.3043 32.0711 5.42893C30.1958 3.55357 27.6522 2.5 25 2.5C22.3479 2.5 19.8043 3.55357 17.929 5.42893C16.0536 7.3043 15 9.84783 15 12.5ZM25 6.25C23.3424 6.25 21.7527 6.90848 20.5806 8.08058C19.4085 9.25268 18.75 10.8424 18.75 12.5V15H31.25V12.5C31.25 10.8424 30.5916 9.25268 29.4195 8.08058C28.2474 6.90848 26.6576 6.25 25 6.25ZM18.75 25C18.75 26.6576 19.4085 28.2473 20.5806 29.4194C21.7527 30.5915 23.3424 31.25 25 31.25C26.6576 31.25 28.2474 30.5915 29.4195 29.4194C30.5916 28.2473 31.25 26.6576 31.25 25V21.875C31.25 21.3777 31.4476 20.9008 31.7992 20.5492C32.1509 20.1975 32.6278 20 33.125 20C33.6223 20 34.0992 20.1975 34.4509 20.5492C34.8025 20.9008 35 21.3777 35 21.875V25C35 27.6522 33.9465 30.1957 32.0711 32.0711C30.1958 33.9464 27.6522 35 25 35C22.3479 35 19.8043 33.9464 17.929 32.0711C16.0536 30.1957 15 27.6522 15 25V21.875C15 21.3777 15.1976 20.9008 15.5492 20.5492C15.9009 20.1975 16.3778 20 16.875 20C17.3723 20 17.8492 20.1975 18.2009 20.5492C18.5525 20.9008 18.75 21.3777 18.75 21.875V25Z" fill="#494949"/>
</svg>
