<svg width="98" height="32" viewBox="0 0 98 32" fill="none" xmlns="http://www.w3.org/2000/svg">
<path d="M8.74668 10.6317C8.19113 11.1217 7.61968 11.6275 7.32568 12.3301C7.91368 12.3301 8.51758 12.3632 9.10558 12.3301C9.66113 11.9871 10.0856 11.4647 10.6577 11.1541C12.764 9.81521 15.6226 9.84766 17.713 11.2197C18.252 11.5137 18.644 12.0195 19.1665 12.3301C19.7379 12.3791 20.3259 12.3301 20.898 12.3467L20.8 12.0354C19.7869 10.5827 18.2355 9.55366 16.5536 9.01466C15.41 8.62266 14.185 8.73655 12.9931 8.7531C11.4576 8.88421 9.97168 9.6351 8.74668 10.6317ZM87.8929 10.6807C87.1089 11.1051 86.2435 11.6275 85.9005 12.493C85.6714 13.375 86.5534 13.963 86.9619 14.649C86.1779 14.8781 85.2959 14.9761 84.6265 15.5151C84.0061 16.1521 84.1199 17.148 84.2179 17.9485C84.3815 18.7974 84.6099 19.7119 85.231 20.3489C85.9819 21.0024 86.9454 20.2999 87.7294 20.088C87.6969 20.823 87.6155 21.5739 87.7625 22.3089C87.9419 23.1094 88.7915 23.4359 89.5099 23.6319C90.5389 23.8603 91.6818 23.9914 92.6618 23.5173C93.5273 23.0114 93.1353 21.8844 93.1843 21.0673C94.0663 21.3454 95.0138 21.95 95.9607 21.6235C96.6957 21.1984 97.1533 20.4144 97.5128 19.6794C97.8558 18.8795 98.2637 17.883 97.7737 17.0507C97.2837 16.4944 96.4673 16.4785 95.7978 16.2494C96.2223 15.6131 96.7937 15.0741 97.1043 14.3715C97.3658 13.6034 96.8268 12.8684 96.3858 12.2977C95.6674 11.4647 94.7364 10.6317 93.5928 10.5985C92.7274 10.7131 92.4658 11.6607 91.9268 12.2155C91.4699 11.5295 91.0779 10.6965 90.3264 10.2887C89.5099 9.96221 88.6279 10.3218 87.8929 10.6807Z" fill="white"/>
<path d="M13.0742 11.9706C13.0742 12.5262 13.0742 13.0976 13.0908 13.6525C12.6339 13.7346 12.1763 13.7022 11.7188 13.6366C11.5718 14.1756 11.6373 14.7312 11.6373 15.2702C12.1273 15.2702 12.6173 15.2702 13.1073 15.286C13.0908 16.854 13.0908 18.4379 13.0908 20.0225C13.0742 20.7906 13.4006 21.6395 14.1198 22.0156C14.8872 22.4235 15.8182 22.244 16.5532 21.8679C16.6836 21.3289 16.8141 20.774 16.9452 20.235C16.4221 20.5615 15.7692 20.8065 15.1488 20.6105C14.8216 20.4145 14.7892 20.0059 14.7892 19.6636V15.2702H16.5201C16.5201 14.747 16.5201 14.2246 16.5366 13.7022C15.9486 13.7022 15.3772 13.7022 14.7885 13.6856C14.7726 12.8036 14.7885 11.9216 14.7885 11.0562C14.2102 11.3478 13.6386 11.6527 13.0742 11.9706ZM22.7265 11.9706V22.1129H24.425V21.3779C25.2414 22.0639 26.336 22.489 27.3981 22.2109C28.7204 21.9335 29.717 20.7575 29.9944 19.4676C30.2725 18.1115 30.2063 16.6422 29.6349 15.3682C29.1614 14.2902 28.0675 13.5062 26.875 13.5227C25.9605 13.4565 25.111 13.8816 24.425 14.453V11.0734C23.837 11.3508 23.2821 11.6614 22.7265 11.9713V11.9706ZM0.563969 15.629C-0.236585 17.1156 -0.187585 19.0425 0.742753 20.4635C1.60886 21.7699 3.24241 22.3745 4.76142 22.2765C5.80631 22.195 6.73731 21.6229 7.40675 20.8396C7.11275 20.431 6.78631 20.0384 6.45986 19.647C5.64275 20.4152 4.43431 20.921 3.35631 20.4152C1.88631 19.8589 1.36386 17.932 2.04986 16.5925C2.55641 15.4986 3.94431 14.894 5.08786 15.3026C5.61097 15.4496 6.05131 15.8092 6.44331 16.168C6.73731 15.7602 7.22731 15.4172 7.35775 14.9272C5.65931 12.7222 1.82141 13.2612 0.563969 15.629ZM31.726 14.2736C31.9379 14.6822 32.1498 15.09 32.363 15.4986C33.3589 15.0417 34.568 14.747 35.6129 15.2205C36.2823 15.5642 36.3148 16.364 36.2823 17.0176C35.1917 16.6456 34.0153 16.6058 32.902 16.903C32.1008 17.1149 31.3664 17.6712 31.089 18.4876C30.7294 19.5325 30.9579 20.8389 31.8399 21.5739C33.1139 22.6519 35.1229 22.4559 36.283 21.2965C36.283 21.5746 36.283 21.8355 36.2989 22.1129H37.9973V16.5766C37.9973 16.0535 37.9642 15.4986 37.7192 15.0252C37.3113 14.1756 36.4134 13.6856 35.5142 13.5552C34.1919 13.3757 32.8199 13.571 31.726 14.2736ZM41.1823 14.3882C41.1823 14.2246 41.1823 13.8816 41.1982 13.718C40.6268 13.6856 40.0553 13.669 39.4832 13.718C39.4998 16.5276 39.4832 19.3199 39.4832 22.1295H41.1823C41.1982 20.4635 41.1823 18.7816 41.1823 17.1156C41.1658 16.3972 41.4598 15.5966 42.1292 15.237C42.7172 14.9762 43.4847 14.9762 44.0237 15.3682C44.6282 15.874 44.6607 16.7402 44.7097 17.4586C44.7262 19.01 44.7097 20.5774 44.7097 22.1295C45.2652 22.1295 45.8042 22.1295 46.3598 22.1129C46.3432 20.333 46.3598 18.5525 46.3432 16.756C46.3267 15.7112 46.0168 14.5352 45.1017 13.9306C43.8767 13.2287 42.1948 13.3916 41.1817 14.3875L41.1823 14.3882ZM48.2211 14.208C48.3847 14.649 48.5972 15.0742 48.7932 15.4986C49.7891 15.0742 50.9817 14.7636 52.0266 15.2205C52.7126 15.5476 52.7616 16.364 52.7291 17.0176C51.7822 16.7236 50.7526 16.6256 49.7732 16.8216C49.0051 16.952 48.2211 17.3275 47.7801 17.9976C47.2087 18.8955 47.2577 20.1039 47.7801 21.019C48.3032 21.8679 49.3481 22.293 50.3116 22.3089C51.2101 22.3255 52.0431 21.901 52.7126 21.3289C52.7126 21.5905 52.7126 21.852 52.7291 22.1129H54.4276C54.4276 20.1529 54.4441 18.1929 54.4276 16.2329C54.4607 15.1722 53.774 14.159 52.7781 13.8002C51.2916 13.2446 49.6097 13.4896 48.2211 14.208ZM57.6284 14.404V13.718C57.057 13.718 56.5021 13.718 55.93 13.7346V22.1295H57.6291V17.4586C57.6291 16.8706 57.6781 16.2502 57.988 15.7436C58.4614 14.943 59.7196 14.8292 60.389 15.433C60.8459 15.9396 60.879 16.658 60.8949 17.295V22.146H62.594V17.3109C62.594 16.6574 62.6589 15.9224 63.1489 15.4324C63.6389 14.9914 64.3904 14.9914 64.9784 15.2364C65.6479 15.6125 65.7459 16.4455 65.7783 17.1308C65.7949 18.8127 65.7783 20.4794 65.7949 22.1613H67.4774C67.4774 20.4304 67.4933 18.7154 67.4774 16.9845C67.4443 16.0045 67.3304 14.9265 66.6113 14.1915C65.9253 13.5214 64.8963 13.5214 63.9984 13.5869C63.1979 13.6359 62.5119 14.1425 62.0053 14.7305C61.1074 13.179 58.772 13.1459 57.6284 14.4034V14.404ZM69.3388 15.09C68.5879 16.2819 68.4243 17.8016 68.7349 19.157C68.9799 20.3489 69.7639 21.4759 70.9068 21.9659C72.3768 22.6195 74.2063 22.244 75.3982 21.1819C75.0919 20.8139 74.7816 20.4492 74.4672 20.088C73.5852 20.6919 72.3602 21.019 71.3809 20.4635C70.6618 20.0556 70.3188 19.255 70.2373 18.471C72.1642 18.4876 74.0918 18.471 76.0352 18.471C76.1988 17.05 75.9207 15.4662 74.8758 14.4206C73.3402 12.9347 70.4823 13.2777 69.3388 15.09ZM8.35431 13.7022V22.1129H10.1183C10.0852 21.5739 10.0528 21.0515 10.0852 20.5125C10.1998 18.6836 10.0362 16.854 10.1183 15.041C10.1342 14.5842 10.1183 14.11 10.0528 13.6532C9.4972 13.6366 8.92575 13.6366 8.35431 13.7022ZM18.2516 13.6532C18.2351 16.4786 18.2516 19.2882 18.2516 22.1129C18.8231 22.1129 19.3952 22.1129 19.9666 22.1295C19.9998 19.304 19.9666 16.4945 19.9825 13.669C19.4111 13.6532 18.8396 13.6532 18.2516 13.6532ZM78.6481 17.7685C77.7827 19.2054 76.9338 20.6595 76.0842 22.1129C76.7047 22.1129 77.3092 22.1129 77.9297 22.1295C78.5342 21.1005 79.1222 20.0556 79.6447 18.9935C80.2002 20.039 80.7717 21.068 81.3107 22.1129C81.9747 22.1293 82.6391 22.1293 83.3031 22.1129C82.4536 20.6595 81.5881 19.206 80.7227 17.7526C81.4577 16.3806 82.4211 15.1066 83.0257 13.669C82.4377 13.7353 81.8656 13.669 81.2782 13.718C80.5922 14.5186 80.3307 15.6449 79.6447 16.462C79.2037 15.531 78.6647 14.649 78.2078 13.718C77.5708 13.718 76.9497 13.7022 76.3292 13.6532C76.9497 15.09 77.9138 16.3806 78.6481 17.7685ZM88.66 13.179C89.5586 12.5103 90.7015 12.2977 91.8126 12.4116C91.551 12.8685 91.306 13.326 91.1266 13.8326C90.4406 13.1466 89.5586 13.7836 88.7911 13.8982C88.4316 13.865 88.3826 13.3426 88.66 13.1797V13.179ZM93.413 14.0286C93.217 13.8002 93.2005 13.2605 93.609 13.2605C94.7029 13.8167 95.3399 14.992 95.5525 16.1522C95.0473 16.036 94.5339 15.9594 94.0169 15.923C94.4089 15.2046 93.7885 14.5842 93.413 14.0293V14.0286ZM88.7415 16.07C89.738 15.874 90.571 15.1722 91.159 14.355C91.6325 15.237 92.5635 15.8582 93.5269 16.0866C92.8085 16.8216 92.531 17.883 92.629 18.8796C91.7305 18.373 90.5876 18.471 89.6566 18.8134C89.7215 17.834 89.3626 16.8216 88.7415 16.07ZM87.092 14.845C87.4681 15.2046 87.8436 15.5966 88.2521 15.923C87.141 16.364 88.0886 17.834 87.239 18.4386C86.749 18.1115 86.7 17.4917 86.6676 16.952C86.6351 16.2012 86.8636 15.5152 87.092 14.845ZM92.9389 19.2709C94.099 19.5159 94.1805 17.7685 95.2419 17.834C95.2585 18.079 95.324 18.324 95.226 18.5525C94.8665 19.5325 94.0825 20.284 93.2005 20.8065C93.119 20.2999 93.0369 19.7775 92.9389 19.2716V19.2709ZM87.9581 20.0059C88.4316 19.794 88.905 19.549 89.3295 19.255C89.4116 20.137 90.4406 20.2185 91.0776 20.4966C91.3875 20.5615 91.3385 20.9045 91.355 21.1329C90.1135 21.411 88.8726 20.8065 87.9581 20.0066V20.0059Z" fill="white"/>
<path d="M8.74646 10.6318C9.97146 9.63526 11.4415 8.88371 13.0254 8.73737C14.2172 8.73737 15.4422 8.60626 16.5858 8.99826C18.2677 9.53726 19.8198 10.5663 20.8322 12.0197L20.9302 12.3303C20.3588 12.3137 19.7708 12.3468 19.1987 12.3137C18.6597 12.0197 18.2849 11.5138 17.7452 11.2033C15.6548 9.83126 12.7969 9.79882 10.6899 11.1377C10.1185 11.4483 9.69336 11.9707 9.13846 12.3137C8.55046 12.3627 7.94657 12.3303 7.35791 12.3137C7.61946 11.6277 8.20746 11.1218 8.74646 10.6318ZM87.8927 10.6808C88.6277 10.3213 89.5097 9.97893 90.3096 10.2557C91.0612 10.6643 91.4532 11.4973 91.9266 12.1826C92.4656 11.6277 92.7272 10.6808 93.5926 10.5669C94.7362 10.5987 95.6672 11.4317 96.3856 12.2647C96.8266 12.8527 97.3815 13.5712 97.1041 14.3393C96.7935 15.0412 96.2221 15.5802 95.7976 16.2172C96.4671 16.429 97.2676 16.4622 97.7735 17.0177C98.2476 17.8507 97.8556 18.8466 97.5126 19.6465C97.1531 20.398 96.6955 21.1662 95.9612 21.5906C95.0136 21.917 94.0661 21.329 93.1841 21.035C93.1192 21.8356 93.5112 22.9785 92.6616 23.485C91.6816 23.9585 90.5387 23.828 89.5097 23.5996C88.7913 23.4202 87.9417 23.0765 87.7623 22.2766C87.6153 21.5416 87.6967 20.79 87.7292 20.0557C86.9293 20.2676 85.9817 20.9695 85.2308 20.3166C84.6097 19.6796 84.3813 18.7652 84.2177 17.9156C84.1363 17.0992 84.0217 16.1192 84.6263 15.4822C85.2957 14.9597 86.1777 14.8617 86.9617 14.6167C86.5697 13.9307 85.6712 13.3586 85.9003 12.4607C86.2433 11.6118 87.1087 11.1053 87.8927 10.6808ZM88.6602 13.1798C88.3827 13.3427 88.4317 13.8652 88.7913 13.8817C89.5587 13.7837 90.4566 13.1308 91.1267 13.8162C91.3085 13.3214 91.5382 12.8457 91.8127 12.3958C90.7182 12.2978 89.5587 12.5097 88.6602 13.1798ZM93.4132 14.0287C93.7886 14.5843 94.4091 15.2047 94.0171 15.9073C94.5402 15.9397 95.0461 16.0212 95.5526 16.1357C95.3242 14.9763 94.6872 13.8003 93.6092 13.2447C93.2006 13.2613 93.2172 13.8003 93.4132 14.0287ZM88.7423 16.0702C89.3786 16.8217 89.7382 17.8342 89.6402 18.8142C90.5877 18.4712 91.7147 18.3732 92.6126 18.8797C92.5312 17.8832 92.7921 16.8052 93.5112 16.0867C92.5477 15.8583 91.6167 15.2537 91.1426 14.3552C90.5712 15.1723 89.7382 15.8742 88.7423 16.0702ZM87.0922 14.8452C86.8472 15.5153 86.6187 16.2172 86.6677 16.9356C86.7002 17.4746 86.7492 18.1116 87.2392 18.4222C88.0887 17.8342 87.1253 16.3476 88.2523 15.9073C87.8437 15.596 87.4842 15.2047 87.0922 14.8452ZM92.9391 19.2717C93.0536 19.7776 93.1192 20.3 93.1841 20.8066C94.0661 20.2676 94.8501 19.5326 95.2096 18.5526C95.3076 18.3242 95.2421 18.0626 95.2262 17.8342C94.1641 17.7686 94.0992 19.516 92.9391 19.271V19.2717ZM87.9583 20.0067C88.8727 20.8066 90.1136 21.427 91.3552 21.1496C91.3386 20.9046 91.3876 20.5782 91.0777 20.5126C90.4407 20.2186 89.4117 20.153 89.3296 19.2717C88.8849 19.5391 88.4272 19.7844 87.9583 20.0067Z" fill="#EC2024"/>
<path d="M13.0744 11.9706C13.6352 11.6561 14.2015 11.3512 14.7728 11.0562V13.6856C15.3608 13.7022 15.9329 13.7022 16.5209 13.7022C16.5209 14.2253 16.5209 14.747 16.5044 15.2702H14.7728V19.6629C14.7728 20.0059 14.8059 20.4145 15.1324 20.6105C15.7528 20.8065 16.3905 20.5449 16.9288 20.235C16.7984 20.774 16.6673 21.3289 16.5368 21.8679C15.8018 22.2599 14.8708 22.44 14.1034 22.0149C13.3849 21.6395 13.0578 20.7899 13.0744 20.0225C13.0744 18.4386 13.0578 16.8706 13.0909 15.286C12.6009 15.2702 12.1109 15.2702 11.6209 15.2702C11.6209 14.7312 11.5554 14.1756 11.7024 13.6366C12.1593 13.7022 12.6175 13.7346 13.0744 13.6532V11.9713V11.9706ZM22.7267 11.9706C23.2823 11.6607 23.8371 11.3502 24.4251 11.0727C24.4417 12.1997 24.4251 13.326 24.4251 14.453C25.1111 13.8816 25.9607 13.4406 26.8752 13.5227C28.067 13.5062 29.1616 14.2902 29.635 15.3682C30.2071 16.6422 30.272 18.1115 29.9946 19.4669C29.7006 20.7582 28.7206 21.9335 27.3976 22.2109C26.3361 22.5049 25.2423 22.0639 24.4251 21.3779V22.1129H22.7267V11.9706ZM24.4251 16.0866V19.6954C24.8661 20.137 25.3893 20.5615 26.0256 20.7085C26.8096 20.9369 27.7406 20.6105 28.1167 19.8755C28.6226 18.9445 28.5736 17.834 28.3941 16.8216C28.2306 16.0052 27.6426 15.1397 26.7447 15.1066C25.8296 14.9272 25.0131 15.4496 24.4251 16.0866ZM0.564134 15.629C1.82158 13.2612 5.65947 12.7222 7.34203 14.9272C7.21092 15.433 6.73747 15.7602 6.42692 16.168C6.03492 15.8092 5.61047 15.4496 5.07147 15.3026C3.92858 14.894 2.55658 15.4986 2.03347 16.5925C1.34813 17.932 1.87058 19.8589 3.34058 20.4145C4.43447 20.9045 5.62703 20.4145 6.44347 19.6464C6.76992 20.039 7.08047 20.431 7.39036 20.8389C6.72158 21.6229 5.78992 22.195 4.74503 22.2765C3.22603 22.391 1.57658 21.7699 0.727026 20.4635C-0.18742 19.059 -0.23642 17.1156 0.564134 15.6297V15.629ZM31.7261 14.2736C32.82 13.5717 34.192 13.375 35.466 13.5717C36.3639 13.7022 37.279 14.1922 37.671 15.0417C37.9319 15.5152 37.9485 16.07 37.965 16.5925V22.1129H36.2659C36.2659 21.8355 36.25 21.5739 36.25 21.2965C35.0906 22.4559 33.0816 22.6519 31.8069 21.5746C30.9256 20.8396 30.6971 19.5325 31.056 18.4876C31.3176 17.687 32.0691 17.1315 32.869 16.903C33.9795 16.609 35.172 16.6415 36.25 17.0176C36.299 16.364 36.25 15.5642 35.5806 15.2212C34.5516 14.747 33.3266 15.041 32.33 15.4986C32.1506 15.09 31.938 14.6822 31.7261 14.2736ZM32.8366 18.618C32.2486 19.1412 32.4605 20.2185 33.1465 20.5615C34.192 21.0846 35.4985 20.6429 36.201 19.7609C36.299 19.353 36.2341 18.912 36.2341 18.4876C35.7441 18.3075 35.2542 18.177 34.731 18.177C34.094 18.1439 33.3425 18.128 32.8366 18.618ZM41.1825 14.3882C42.1949 13.3916 43.8775 13.2446 45.1025 13.9313C46.0328 14.5352 46.3275 15.7112 46.3434 16.756C46.3599 18.5366 46.3434 20.3165 46.3599 22.1129C45.8037 22.1295 45.2654 22.1295 44.7098 22.1295V17.4586C44.6608 16.7402 44.6284 15.874 44.0238 15.3682C43.4848 14.9762 42.7339 14.9596 42.13 15.237C41.4599 15.5966 41.1659 16.3972 41.1825 17.1156C41.1659 18.7816 41.1984 20.4635 41.1825 22.1295H39.4834C39.4834 19.3206 39.4999 16.5276 39.4834 13.718C40.0555 13.669 40.6269 13.6856 41.1984 13.718C41.1825 13.8816 41.1825 14.208 41.1825 14.3882ZM48.2213 14.208C49.6098 13.4896 51.2917 13.2446 52.7617 13.8002C53.7583 14.1756 54.4436 15.1722 54.4118 16.2336C54.4277 18.1936 54.4118 20.1536 54.4118 22.1136H52.7127V21.3289C52.0433 21.8845 51.2103 22.3255 50.3117 22.3089C49.3317 22.293 48.3034 21.8679 47.7803 21.019C47.2578 20.1046 47.2088 18.8955 47.7803 17.9976C48.2213 17.3275 49.0053 16.952 49.7734 16.8216C50.7534 16.6256 51.7817 16.7236 52.7293 17.0176C52.7624 16.364 52.7127 15.5476 52.0274 15.2212C50.9812 14.7636 49.7893 15.0742 48.7934 15.4986C48.5974 15.0742 48.3848 14.649 48.2213 14.208ZM50.0508 18.226C49.6588 18.324 49.2668 18.5525 49.0708 18.9279C48.8093 19.5325 49.0708 20.333 49.6913 20.5939C50.6064 21.019 51.7003 20.7085 52.4194 20.0556C52.9094 19.696 52.7127 19.0094 52.6803 18.5035C51.8638 18.1115 50.9163 18.1115 50.0508 18.226ZM57.6286 14.404C58.7722 13.1632 61.1076 13.179 62.0055 14.698C62.5121 14.11 63.1981 13.6042 63.9986 13.5552C64.8965 13.4896 65.9255 13.4896 66.6115 14.159C67.3306 14.894 67.4445 15.972 67.4776 16.952C67.4935 18.6836 67.4776 20.3979 67.4776 22.1295H65.7951C65.7785 20.4476 65.8116 18.7816 65.7785 17.099C65.746 16.413 65.648 15.58 64.9786 15.2046C64.3906 14.9596 63.639 14.9596 63.1491 15.4006C62.659 15.8906 62.5942 16.6256 62.5942 17.2785V22.1129H60.8951V17.2626C60.8792 16.6256 60.8302 15.8906 60.3892 15.4006C59.7032 14.796 58.4623 14.9106 57.9882 15.7112C57.6783 16.217 57.6286 16.8375 57.6286 17.4262V22.097H55.9302V13.7022C56.5023 13.6856 57.0572 13.6856 57.6293 13.6856V14.404H57.6286ZM69.3389 15.09C70.4825 13.277 73.3404 12.934 74.8759 14.453C75.9208 15.4986 76.1989 17.0825 76.0519 18.5035C74.1244 18.5035 72.1809 18.52 70.2541 18.5035C70.3521 19.2875 70.6951 20.088 71.3969 20.4966C72.3769 21.0515 73.6019 20.725 74.4839 20.1205C74.7945 20.48 75.1044 20.8555 75.4149 21.215C74.2224 22.2765 72.3935 22.6519 70.9235 21.9825C69.7799 21.4925 68.9959 20.3655 68.7509 19.1736C68.4245 17.8016 68.5881 16.2826 69.3389 15.09ZM70.9069 15.6132C70.5315 16.0045 70.4169 16.5435 70.2375 17.0335C70.7109 17.197 71.2009 17.148 71.6909 17.148C72.6054 17.1315 73.5205 17.1646 74.4349 17.1315C74.3535 16.6912 74.2879 16.2336 74.0105 15.8582C73.3404 14.8292 71.6909 14.698 70.9069 15.6132ZM8.35447 13.7022C8.92592 13.6366 9.48147 13.6366 10.0529 13.6532C10.1185 14.11 10.1344 14.5842 10.1185 15.041C10.0205 16.8706 10.1834 18.6995 10.0854 20.5125C10.0529 21.0515 10.0854 21.5739 10.1185 22.1129H8.35447V13.7022ZM18.2518 13.6532C18.8233 13.6532 19.3954 13.6532 19.9827 13.669C19.9668 16.4945 19.9993 19.304 19.9668 22.1295C19.3954 22.1129 18.8233 22.1129 18.2518 22.1129V13.6532ZM78.6483 17.7685C77.9139 16.3806 76.9664 15.09 76.3294 13.6532C76.9498 13.7022 77.5868 13.718 78.2079 13.718C78.6814 14.649 79.2038 15.531 79.6448 16.462C80.3308 15.629 80.5924 14.5186 81.2784 13.718C81.8657 13.669 82.4378 13.7346 83.0258 13.669C82.4213 15.1066 81.4578 16.3806 80.7228 17.7526C81.5889 19.2026 82.449 20.656 83.3033 22.1129C82.6392 22.1293 81.9749 22.1293 81.3108 22.1129C80.7718 21.068 80.2004 20.0225 79.6448 18.9942C79.1224 20.0715 78.5344 21.1005 77.9298 22.1295C77.3094 22.1129 76.6889 22.1295 76.0844 22.1129C76.9339 20.6595 77.7669 19.206 78.6483 17.7692V17.7685Z" fill="#104B84"/>
</svg>
