<svg width="68" height="68" viewBox="0 0 68 68" fill="none" xmlns="http://www.w3.org/2000/svg">
<rect x="2" y="2" width="64" height="64" rx="14.4444" fill="#007AFF" stroke="white" stroke-width="4"/>
<path d="M34 16.5C38.6413 16.5 43.0925 18.3437 46.3744 21.6256C49.6563 24.9075 51.5 29.3587 51.5 34C51.5 38.6413 49.6563 43.0925 46.3744 46.3744C43.0925 49.6563 38.6413 51.5 34 51.5C29.3587 51.5 24.9075 49.6563 21.6256 46.3744C18.3437 43.0925 16.5 38.6413 16.5 34C16.5 29.3587 18.3437 24.9075 21.6256 21.6256C24.9075 18.3437 29.3587 16.5 34 16.5V16.5ZM31.82 37.4525L27.9325 33.5625C27.7931 33.4231 27.6277 33.3126 27.4456 33.2372C27.2635 33.1617 27.0683 33.1229 26.8712 33.1229C26.6742 33.1229 26.479 33.1617 26.2969 33.2372C26.1148 33.3126 25.9494 33.4231 25.81 33.5625C25.5285 33.844 25.3704 34.2257 25.3704 34.6238C25.3704 35.0218 25.5285 35.4035 25.81 35.685L30.76 40.635C30.899 40.7751 31.0643 40.8862 31.2464 40.9621C31.4286 41.038 31.6239 41.077 31.8212 41.077C32.0186 41.077 32.2139 41.038 32.3961 40.9621C32.5782 40.8862 32.7435 40.7751 32.8825 40.635L43.1325 30.3825C43.2737 30.2437 43.3861 30.0783 43.4631 29.8959C43.5401 29.7135 43.5802 29.5176 43.5811 29.3196C43.582 29.1216 43.5437 28.9254 43.4684 28.7422C43.3931 28.5591 43.2823 28.3927 43.1424 28.2526C43.0025 28.1125 42.8362 28.0015 42.6531 27.926C42.4701 27.8505 42.2739 27.812 42.0759 27.8126C41.8779 27.8133 41.682 27.8532 41.4995 27.93C41.317 28.0068 41.1515 28.1189 41.0125 28.26L31.82 37.4525Z" fill="white"/>
</svg>
