<svg width="34" height="34" viewBox="0 0 34 34" fill="none" xmlns="http://www.w3.org/2000/svg">
<path d="M27.6246 12.7504C28.9191 12.7504 30.1829 12.3564 31.248 11.6207C32.3131 10.885 33.129 9.84249 33.5872 8.63181C34.0455 7.42113 34.1243 6.09964 33.8132 4.84309C33.5021 3.58654 32.8158 2.45447 31.8457 1.59741C30.8756 0.740358 29.6675 0.198939 28.3822 0.0451535C27.0969 -0.108632 25.7952 0.132504 24.6502 0.736494C23.5053 1.34048 22.5713 2.27871 21.9726 3.4264C21.3738 4.57409 21.1386 5.87686 21.2983 7.16146L10.8005 12.4104C9.89997 11.542 8.76383 10.9577 7.53363 10.7304C6.30342 10.5031 5.03352 10.6427 3.88212 11.1319C2.73071 11.6212 1.74869 12.4383 1.05838 13.4817C0.368078 14.525 0 15.7484 0 16.9994C0 18.2505 0.368078 19.4739 1.05838 20.5172C1.74869 21.5605 2.73071 22.3777 3.88212 22.8669C5.03352 23.3562 6.30342 23.4958 7.53363 23.2685C8.76383 23.0412 9.89997 22.4569 10.8005 21.5885L21.2983 26.8374C21.1124 28.3297 21.4599 29.8397 22.2796 31.1005C23.0993 32.3613 24.3383 33.2918 25.7776 33.7275C27.217 34.1632 28.764 34.076 30.1453 33.4814C31.5266 32.8867 32.6532 31.823 33.3261 30.478C33.9989 29.1331 34.1746 27.5936 33.8222 26.1317C33.4698 24.6697 32.6119 23.3794 31.4001 22.4888C30.1884 21.5981 28.7008 21.1646 27.2003 21.2646C25.6998 21.3647 24.283 21.992 23.2002 23.0357L12.7024 17.7868C12.7667 17.2646 12.7667 16.7364 12.7024 16.2142L23.2002 10.9653C24.3435 12.0704 25.9033 12.7504 27.6246 12.7504Z" fill="#DDDDDD"/>
</svg>
