<svg width="29" height="29" viewBox="0 0 29 29" fill="none" xmlns="http://www.w3.org/2000/svg">
<path d="M22.835 11.254C23.901 11.2541 24.9417 10.9296 25.8189 10.3237C26.696 9.71788 27.3679 8.85937 27.7452 7.86237C28.1226 6.86537 28.1875 5.77712 27.9313 4.74234C27.6751 3.70757 27.11 2.7753 26.311 2.06951C25.5121 1.36372 24.5173 0.917856 23.4588 0.791212C22.4004 0.664569 21.3284 0.863146 20.3855 1.36054C19.4427 1.85792 18.6736 2.63056 18.1805 3.57569C17.6874 4.52082 17.4937 5.59365 17.6252 6.65153L8.98021 10.974C8.23861 10.2589 7.303 9.77776 6.28992 9.59056C5.27684 9.40335 4.23107 9.51836 3.28288 9.92124C2.33469 10.3241 1.52599 10.9971 0.957522 11.8563C0.389052 12.7155 0.0859375 13.7229 0.0859375 14.7532C0.0859375 15.7834 0.389052 16.7909 0.957522 17.65C1.52599 18.5092 2.33469 19.1822 3.28288 19.5851C4.23107 19.988 5.27684 20.103 6.28992 19.9158C7.303 19.7285 8.23861 19.2474 8.98021 18.5323L17.6252 22.8548C17.4721 24.0837 17.7583 25.3272 18.4333 26.3655C19.1083 27.4038 20.1287 28.17 21.314 28.5288C22.4993 28.8876 23.7733 28.8158 24.9108 28.3261C26.0483 27.8364 26.9761 26.9604 27.5301 25.8529C28.0842 24.7453 28.2289 23.4775 27.9387 22.2736C27.6485 21.0697 26.942 20.0071 25.9441 19.2737C24.9462 18.5402 23.7212 18.1832 22.4855 18.2656C21.2499 18.348 20.0831 18.8646 19.1915 19.724L10.5465 15.4015C10.5994 14.9715 10.5994 14.5366 10.5465 14.1065L19.1915 9.78403C20.133 10.694 21.4175 11.254 22.835 11.254Z" fill="#DDDDDD"/>
</svg>
