<svg width="25" height="25" viewBox="0 0 25 25" fill="none" xmlns="http://www.w3.org/2000/svg">
<path d="M14.0236 12.6715L17.3578 9.33846C17.579 9.11731 17.7032 8.81737 17.7032 8.50462C17.7032 8.19187 17.579 7.89193 17.3578 7.67078C17.1367 7.44963 16.8367 7.32539 16.524 7.32539C16.2112 7.32539 15.9113 7.44963 15.6901 7.67078L12.3571 11.005L9.02413 7.67078C8.80298 7.44963 8.50304 7.32539 8.19029 7.32539C7.87754 7.32539 7.57759 7.44963 7.35645 7.67078C7.1353 7.89193 7.01106 8.19187 7.01106 8.50462C7.01106 8.81737 7.1353 9.11731 7.35645 9.33846L10.6906 12.6715L7.35645 16.0045C7.1353 16.2256 7.01106 16.5255 7.01106 16.8383C7.01106 17.151 7.1353 17.451 7.35645 17.6721C7.57759 17.8933 7.87754 18.0175 8.19029 18.0175C8.50304 18.0175 8.80298 17.8933 9.02413 17.6721L12.3571 14.338L15.6901 17.6721C15.9113 17.8933 16.2112 18.0175 16.524 18.0175C16.8367 18.0175 17.1367 17.8933 17.3578 17.6721C17.579 17.451 17.7032 17.151 17.7032 16.8383C17.7032 16.5255 17.579 16.2256 17.3578 16.0045L14.0236 12.6715ZM12.3571 24.4572C5.84788 24.4572 0.571411 19.1807 0.571411 12.6715C0.571411 6.16221 5.84788 0.885742 12.3571 0.885742C18.8664 0.885742 24.1428 6.16221 24.1428 12.6715C24.1428 19.1807 18.8664 24.4572 12.3571 24.4572Z" fill="white"/>
</svg>
