<svg width="18" height="18" viewBox="0 0 18 18" fill="none" xmlns="http://www.w3.org/2000/svg">
<path d="M9 2.5C4.8525 2.5 1.5 5.8525 1.5 10C1.5 14.1475 4.8525 17.5 9 17.5C13.1475 17.5 16.5 14.1475 16.5 10C16.5 5.8525 13.1475 2.5 9 2.5ZM11.325 6.3025C11.43 6.3025 11.535 6.34 11.625 6.4225L12.5775 7.375C12.75 7.54 12.75 7.8025 12.5775 7.96L11.8275 8.71L10.29 7.1725L11.04 6.4225C11.115 6.34 11.22 6.3025 11.325 6.3025ZM9.8475 7.6075L11.3925 9.1525L6.8475 13.6975H5.3025V12.1525L9.8475 7.6075Z" fill="#494949"/>
</svg>
