<svg width="42" height="42" viewBox="0 0 42 42" fill="none" xmlns="http://www.w3.org/2000/svg">
<path d="M10.5837 31.4166L17.2503 17.25L31.417 10.5833L24.7503 24.75L10.5837 31.4166ZM21.0003 19.125C20.503 19.125 20.0261 19.3225 19.6745 19.6741C19.3229 20.0258 19.1253 20.5027 19.1253 21C19.1253 21.4972 19.3229 21.9742 19.6745 22.3258C20.0261 22.6774 20.503 22.875 21.0003 22.875C21.4976 22.875 21.9745 22.6774 22.3262 22.3258C22.6778 21.9742 22.8753 21.4972 22.8753 21C22.8753 20.5027 22.6778 20.0258 22.3262 19.6741C21.9745 19.3225 21.4976 19.125 21.0003 19.125ZM21.0003 0.166626C23.7362 0.166626 26.4453 0.705496 28.9729 1.75247C31.5005 2.79944 33.7972 4.33401 35.7317 6.26857C37.6663 8.20312 39.2008 10.4998 40.2478 13.0274C41.2948 15.555 41.8337 18.2641 41.8337 21C41.8337 26.5253 39.6387 31.8243 35.7317 35.7313C31.8247 39.6384 26.5257 41.8333 21.0003 41.8333C18.2645 41.8333 15.5554 41.2944 13.0278 40.2475C10.5001 39.2005 8.20349 37.6659 6.26893 35.7313C2.36193 31.8243 0.166992 26.5253 0.166992 21C0.166992 15.4746 2.36193 10.1756 6.26893 6.26857C10.1759 2.36156 15.475 0.166626 21.0003 0.166626ZM21.0003 4.33329C16.58 4.33329 12.3408 6.08924 9.21521 9.21485C6.08961 12.3405 4.33366 16.5797 4.33366 21C4.33366 25.4202 6.08961 29.6595 9.21521 32.7851C12.3408 35.9107 16.58 37.6666 21.0003 37.6666C25.4206 37.6666 29.6598 35.9107 32.7854 32.7851C35.911 29.6595 37.667 25.4202 37.667 21C37.667 16.5797 35.911 12.3405 32.7854 9.21485C29.6598 6.08924 25.4206 4.33329 21.0003 4.33329Z" fill="#494949"/>
</svg>
