<svg width="42" height="42" viewBox="0 0 42 42" fill="none" xmlns="http://www.w3.org/2000/svg">
<path d="M20.8333 18.5417C19.5625 18.5417 18.5417 19.5625 18.5417 20.8333C18.5417 22.1042 19.5625 23.125 20.8333 23.125C22.1042 23.125 23.125 22.1042 23.125 20.8333C23.125 19.5625 22.1042 18.5417 20.8333 18.5417ZM20.8333 0C9.33333 0 0 9.33333 0 20.8333C0 32.3333 9.33333 41.6667 20.8333 41.6667C32.3333 41.6667 41.6667 32.3333 41.6667 20.8333C41.6667 9.33333 32.3333 0 20.8333 0ZM25.3958 25.3958L8.33333 33.3333L16.2708 16.2708L33.3333 8.33333L25.3958 25.3958Z" fill="#494949"/>
</svg>
