<svg width="19" height="19" viewBox="0 0 19 19" fill="none" xmlns="http://www.w3.org/2000/svg">
<path d="M0 18C0 18.4148 0.335156 18.75 0.75 18.75H18C18.4148 18.75 18.75 18.4148 18.75 18V8.15625H0V18ZM18 1.6875H14.0625V0.1875C14.0625 0.084375 13.9781 0 13.875 0H12.5625C12.4594 0 12.375 0.084375 12.375 0.1875V1.6875H6.375V0.1875C6.375 0.084375 6.29063 0 6.1875 0H4.875C4.77187 0 4.6875 0.084375 4.6875 0.1875V1.6875H0.75C0.335156 1.6875 0 2.02266 0 2.4375V6.5625H18.75V2.4375C18.75 2.02266 18.4148 1.6875 18 1.6875Z" fill="#494949"/>
</svg>
