<svg width="19" height="19" viewBox="0 0 19 19" fill="none" xmlns="http://www.w3.org/2000/svg">
<path d="M0.209839 18.1473C0.209839 18.5622 0.544995 18.8973 0.959839 18.8973H18.2098C18.6247 18.8973 18.9598 18.5622 18.9598 18.1473V8.30359H0.209839V18.1473ZM18.2098 1.83484H14.2723V0.334839C14.2723 0.231714 14.188 0.147339 14.0848 0.147339H12.7723C12.6692 0.147339 12.5848 0.231714 12.5848 0.334839V1.83484H6.58484V0.334839C6.58484 0.231714 6.50046 0.147339 6.39734 0.147339H5.08484C4.98171 0.147339 4.89734 0.231714 4.89734 0.334839V1.83484H0.959839C0.544995 1.83484 0.209839 2.17 0.209839 2.58484V6.70984H18.9598V2.58484C18.9598 2.17 18.6247 1.83484 18.2098 1.83484Z" fill="#F6F6F6"/>
</svg>
