<svg width="15" height="8" viewBox="0 0 15 8" fill="none" xmlns="http://www.w3.org/2000/svg">
<path d="M14.9998 1.17002C15.0003 1.31941 14.9673 1.46702 14.9033 1.602C14.8393 1.73698 14.7458 1.8559 14.6298 1.95002L8.62979 6.78002C8.45085 6.9271 8.22641 7.00751 7.99479 7.00751C7.76316 7.00751 7.53872 6.9271 7.35979 6.78002L1.35979 1.78002C1.15557 1.61028 1.02715 1.36637 1.00277 1.10194C0.978387 0.837517 1.06005 0.574236 1.22979 0.370019C1.39953 0.165803 1.64344 0.0373788 1.90786 0.0129991C2.17229 -0.0113807 2.43557 0.0702806 2.63979 0.240019L7.99979 4.71002L13.3598 0.39002C13.5066 0.267737 13.6853 0.19006 13.8749 0.16618C14.0644 0.142301 14.2568 0.173217 14.4294 0.255273C14.6019 0.337329 14.7473 0.467089 14.8484 0.6292C14.9495 0.79131 15.002 0.978986 14.9998 1.17002Z" fill="#FE8C4A"/>
</svg>
