<svg width="18" height="18" viewBox="0 0 18 18" fill="none" xmlns="http://www.w3.org/2000/svg">
<path d="M9.00008 0.666748C4.40508 0.666748 0.666748 4.40508 0.666748 9.00008C0.666748 13.5951 4.40508 17.3334 9.00008 17.3334C13.5951 17.3334 17.3334 13.5951 17.3334 9.00008C17.3334 4.40508 13.5951 0.666748 9.00008 0.666748ZM2.33341 9.00008C2.33341 8.25091 2.46341 7.53175 2.69258 6.85925L4.00008 8.16675L5.66675 9.83341V11.5001L7.33341 13.1667L8.16675 14.0001V15.6092C4.88425 15.1967 2.33341 12.3934 2.33341 9.00008ZM14.2751 13.0609C13.7309 12.6226 12.9059 12.3334 12.3334 12.3334V11.5001C12.3334 11.0581 12.1578 10.6341 11.8453 10.3216C11.5327 10.009 11.1088 9.83341 10.6667 9.83341H7.33341V7.33341C7.77544 7.33341 8.19936 7.15782 8.51193 6.84526C8.82449 6.5327 9.00008 6.10878 9.00008 5.66675V4.83341H9.83341C10.2754 4.83341 10.6994 4.65782 11.0119 4.34526C11.3245 4.0327 11.5001 3.60878 11.5001 3.16675V2.82425C13.9401 3.81508 15.6667 6.20841 15.6667 9.00008C15.6666 10.4707 15.177 11.8994 14.2751 13.0609Z" fill="#494949"/>
</svg>
