<svg width="16" height="16" viewBox="0 0 16 16" fill="none" xmlns="http://www.w3.org/2000/svg">
<path d="M8 14C7.88782 13.9997 7.77576 13.9924 7.6645 13.978C6.63693 12.3314 6.06797 10.4402 6.0165 8.5H14.975C14.987 8.334 15 8.1685 15 8C15 6.61553 14.5895 5.26216 13.8203 4.11101C13.0511 2.95987 11.9579 2.06266 10.6788 1.53285C9.3997 1.00303 7.99224 0.86441 6.63437 1.13451C5.2765 1.4046 4.02922 2.07129 3.05026 3.05026C2.07129 4.02922 1.4046 5.2765 1.13451 6.63437C0.86441 7.99224 1.00303 9.3997 1.53285 10.6788C2.06266 11.9579 2.95987 13.0511 4.11101 13.8203C5.26216 14.5895 6.61553 15 8 15V14ZM13.975 7.5H10.9815C10.9277 5.66016 10.4571 3.85653 9.605 2.225C10.7842 2.55407 11.8347 3.23564 12.6158 4.17842C13.3968 5.1212 13.871 6.28015 13.975 7.5ZM8.335 2.022C9.36275 3.66852 9.93188 5.55974 9.9835 7.5H6.0165C6.06812 5.55974 6.63725 3.66852 7.665 2.022C7.88772 1.99279 8.11329 1.99279 8.336 2.022H8.335ZM6.3945 2.2245C5.54258 3.85624 5.0721 5.66004 5.0185 7.5H2.025C2.12903 6.28017 2.60332 5.12126 3.38434 4.17849C4.16536 3.23573 5.21582 2.55413 6.395 2.225L6.3945 2.2245ZM2.025 8.5H5.0185C5.07233 10.3398 5.54298 12.1435 6.395 13.775C5.21582 13.4459 4.16536 12.7643 3.38434 11.8215C2.60332 10.8787 2.12903 9.71983 2.025 8.5Z" fill="#494949"/>
<path fill-rule="evenodd" clip-rule="evenodd" d="M12.5 12.5L15 13.5V12.5L12.5 11.25V10C12.5 9.86739 12.4473 9.74021 12.3536 9.64645C12.2598 9.55268 12.1326 9.5 12 9.5C11.8674 9.5 11.7402 9.55268 11.6464 9.64645C11.5527 9.74021 11.5 9.86739 11.5 10V11.25L9 12.5V13.5L11.5 12.5V14.25L10.5 15V15.5L12 15L13.5 15.5V15L12.5 14.25V12.5Z" fill="#494949"/>
</svg>
