<svg width="50" height="50" viewBox="0 0 50 50" fill="none" xmlns="http://www.w3.org/2000/svg">
<g clip-path="url(#clip0_1128_1351)">
<path d="M8.94342 19.3063L23.5268 4.72292C23.9174 4.33235 24.4472 4.11295 24.9997 4.11295C25.5521 4.11295 26.0819 4.33235 26.4726 4.72292L41.0559 19.3063C41.4467 19.6969 41.6662 20.2267 41.6663 20.7792V40.75C41.6663 41.3025 41.4468 41.8324 41.0561 42.2231C40.6654 42.6138 40.1355 42.8333 39.583 42.8333H29.1663V28.25H20.833V42.8333H10.4163C9.86381 42.8333 9.3339 42.6138 8.9432 42.2231C8.5525 41.8324 8.33301 41.3025 8.33301 40.75V20.7792C8.33313 20.2267 8.5527 19.6969 8.94342 19.3063Z" fill="#494949"/>
</g>
<defs>
<clipPath id="clip0_1128_1351">
<rect width="50" height="50" fill="white" transform="translate(0 50) rotate(-90)"/>
</clipPath>
</defs>
</svg>
