<svg width="30" height="25" viewBox="0 0 30 25" fill="none" xmlns="http://www.w3.org/2000/svg">
<path d="M21.6395 0C18.7814 0 16.3391 1.91512 14.9973 3.23546C13.6555 1.91512 11.2186 0 8.36182 0C3.43773 0 0 3.22648 0 7.84508C0 12.9341 4.26955 16.2234 8.4 19.405C10.35 20.9087 12.3682 22.4623 13.9159 24.1852C14.1764 24.4736 14.5582 24.6402 14.9591 24.6402H15.0382C15.4405 24.6402 15.8209 24.4723 16.08 24.1852C17.6305 22.4623 19.6473 20.9074 21.5986 19.405C25.7277 16.2247 30 12.9354 30 7.84508C30 3.22648 26.5623 0 21.6395 0Z" fill="#FE8C4A"/>
</svg>
