<svg width="27" height="22" viewBox="0 0 27 22" fill="none" xmlns="http://www.w3.org/2000/svg">
<path d="M19.4756 0C16.9032 0 14.7052 1.70992 13.4975 2.88877C12.2899 1.70992 10.0968 0 7.52564 0C3.09395 0 0 2.88076 0 7.00447C0 11.5482 3.84259 14.4851 7.56 17.3258C9.315 18.6683 11.1314 20.0555 12.5243 21.5937C12.7587 21.8512 13.1024 22 13.4632 22H13.5344C13.8964 22 14.2388 21.8501 14.472 21.5937C15.8674 20.0555 17.6825 18.6672 19.4388 17.3258C23.155 14.4862 27 11.5494 27 7.00447C27 2.88076 23.906 0 19.4756 0Z" fill="white"/>
</svg>
