<svg width="111" height="132" viewBox="0 0 111 132" fill="none" xmlns="http://www.w3.org/2000/svg">
<path d="M62.5845 2.05859C61.1086 1.90267 59.6244 1.83608 58.1402 1.85921C57.397 1.85921 56.6571 1.89909 55.9206 1.97884C55.5507 1.97884 55.1909 2.07853 54.7956 2.07853C54.4003 2.07853 54.0557 1.99379 53.6807 1.99379C52.2077 1.92266 50.7343 2.1256 49.3378 2.59194C48.641 2.81859 47.9632 3.09858 47.3108 3.42934C46.9814 3.59383 46.6571 3.76828 46.3429 3.9577L45.8818 4.25178L45.6639 4.41129L45.5473 4.48605L45.5017 4.52593C45.5017 4.52593 45.5017 4.52593 45.5017 4.48605C45.5056 4.46632 45.5044 4.44592 45.4982 4.42675C45.492 4.40759 45.481 4.39027 45.4662 4.37639V4.56581C44.842 5.25827 44.4246 6.107 44.2601 7.01819C44.2108 7.46823 44.26 7.92343 44.4042 8.35327C44.5484 8.78311 44.7844 9.17766 45.0963 9.51045C45.73 10.2019 46.4875 10.773 47.3311 11.1952C48.1687 11.6363 49.05 11.9921 49.9611 12.2569C52.5513 13.3072 55.0032 14.6612 57.2635 16.2894C59.5348 17.9226 61.5217 19.9073 63.147 22.1661C64.7681 24.4333 65.969 26.9645 66.6943 29.6429C67.0648 30.9798 67.3174 32.3457 67.4493 33.7252C67.5152 34.4131 67.5456 35.106 67.5507 35.8038C67.5507 36.1477 67.5507 36.4966 67.5507 36.8456C67.5507 37.02 67.5507 37.1945 67.5152 37.344L67.4899 37.6032V37.7378V37.8076C67.4811 37.8737 67.4605 37.9378 67.4291 37.997L67.4747 37.8873C67.0693 39.8064 66.6892 41.7304 66.3649 43.6594C66.2078 44.6214 66.0608 45.5884 65.9544 46.5554C65.8246 47.5018 65.7873 48.4582 65.8429 49.4115C65.8526 49.6044 65.8991 49.7937 65.9797 49.9698C65.9797 49.9947 66.0051 49.9997 65.9797 49.9698C65.9601 49.9629 65.9386 49.9629 65.9189 49.9698C65.9189 49.9698 65.9645 49.9698 66.0304 49.895C66.1042 49.8295 66.172 49.7578 66.2331 49.6807L66.4916 49.3866L66.9983 48.8433C67.6824 48.1255 68.3868 47.4177 69.1064 46.7299C69.826 46.042 70.576 45.3741 71.3716 44.736C71.7729 44.4161 72.1943 44.1214 72.6334 43.8538C72.8648 43.7137 73.1071 43.592 73.3581 43.4899C73.4987 43.4328 73.6447 43.3894 73.7939 43.3603C73.8849 43.3517 73.9766 43.3517 74.0676 43.3603C74.1247 43.352 74.1827 43.352 74.2399 43.3603C74.2783 43.3651 74.3158 43.3752 74.3513 43.3902C74.4116 43.417 74.4665 43.4542 74.5135 43.4999L74.3564 43.4002C75.4129 43.7499 76.5031 43.9921 77.6098 44.1229C78.6862 44.2661 79.7814 44.1742 80.8176 43.8538C81.3105 43.6897 81.7677 43.4361 82.1655 43.1061C82.3549 42.9446 82.5249 42.7623 82.6723 42.5628C82.8508 42.3238 83.0419 42.0942 83.2449 41.8749C83.6399 41.4967 83.9978 41.0828 84.3142 40.6388C84.6122 40.1938 84.8619 39.7194 85.0591 39.2232C85.8131 37.1431 86.2005 34.9516 86.2044 32.7433C86.2643 30.5144 86.1644 28.2841 85.9054 26.069C85.7787 24.9575 85.6267 23.8509 85.4392 22.7543L85.1453 21.0995C85.0236 20.5611 84.9172 20.0128 84.7703 19.4795C84.4969 18.4071 84.1585 17.3518 83.7568 16.3193C83.3489 15.2938 82.8749 14.2948 82.3378 13.3286C81.2541 11.408 79.8533 9.67805 78.1926 8.20949C77.3652 7.48113 76.4693 6.83188 75.5169 6.27051C74.5875 5.70977 73.592 5.26284 72.5524 4.93965H72.4966H72.4662C69.4536 3.71178 66.2867 2.88858 63.0507 2.49225C61.4291 2.26794 59.7922 2.11841 58.1453 1.99379C57.3193 1.91903 56.4932 1.85423 55.6571 1.75952C54.8209 1.66482 54.0456 1.59503 53.2399 1.5751C52.8345 1.5751 52.4392 1.5751 52.0389 1.5751C51.6385 1.5751 51.2483 1.61497 50.8632 1.67479C50.103 1.75454 49.3597 1.94784 48.6588 2.24801C47.9826 2.53836 47.379 2.97044 46.8902 3.51407C46.3798 4.1022 45.922 4.73259 45.522 5.39822C45.1075 6.06224 44.7466 6.75722 44.4426 7.47677C44.3746 7.63823 44.3204 7.80495 44.2804 7.97522C44.2399 8.1098 44.2804 8.26432 44.2449 8.18955C44.2141 8.11526 44.1563 8.05486 44.0828 8.02008C44.022 8.02008 44.027 8.02008 44.0828 8.02008C44.22 8.00651 44.3546 7.97465 44.4831 7.92537C45.1943 7.6292 45.8733 7.26349 46.5101 6.83376C47.1791 6.40011 47.848 5.93156 48.4764 5.44807L48.4105 5.50788C49.2922 4.63559 50.174 3.78324 51 2.90098C51.4019 2.48319 51.776 2.04031 52.1199 1.5751C52.172 1.5035 52.2162 1.42663 52.2517 1.34581C52.2433 1.37684 52.2433 1.40948 52.2517 1.44051C52.2584 1.50642 52.2848 1.56888 52.3277 1.61996C52.3936 1.68475 52.3277 1.61996 52.2669 1.61996C52.159 1.58971 52.0489 1.56804 51.9375 1.55516C50.7675 1.49383 49.5941 1.56575 48.4409 1.76949C47.2424 1.95421 46.0575 2.21562 44.8936 2.55206C44.3108 2.7016 43.7483 2.9259 43.1757 3.11531C42.603 3.30472 42.0608 3.48915 41.5084 3.77327C40.4139 4.26947 39.3615 4.8512 38.3615 5.51287C36.3541 6.84145 34.5416 8.43475 32.9747 10.2482C31.4007 12.0726 30.0407 14.0657 28.9206 16.1897C28.3577 17.2535 27.8503 18.3449 27.4003 19.4595C27.1723 20.0128 26.9595 20.5761 26.7568 21.1443L26.4679 21.9967L26.3514 22.4303C26.3216 22.535 26.2996 22.6416 26.2855 22.7493C26.2388 23.1827 26.3468 23.6185 26.5908 23.9822C26.8349 24.346 27.1999 24.6149 27.6233 24.7431C28.9128 25.0698 30.1259 25.6385 31.196 26.4179C32.2797 27.2252 33.1619 28.2651 33.7753 29.4585L33.8311 29.5681C33.8311 29.5681 33.8311 29.5681 33.8311 29.603C33.8535 29.6399 33.8789 29.6749 33.9071 29.7077C33.9449 29.7554 33.9913 29.796 34.0439 29.8273C34.0743 29.8273 34.0439 29.8273 34.0794 29.8273C34.1254 29.8163 34.1686 29.7959 34.2061 29.7675C34.5835 29.4353 34.8841 29.0274 35.0878 28.5712L35.0524 28.651C35.0655 28.6185 35.0807 28.5869 35.098 28.5563L35.1284 28.5015V28.4616L35.1791 28.3918L35.2804 28.2572C35.3463 28.1675 35.4172 28.0828 35.4932 27.998C35.6456 27.8164 35.8153 27.6495 36 27.4996C36.2648 27.2733 36.5976 27.1385 36.9476 27.1158C37.2037 27.1116 37.4531 27.1963 37.652 27.355C37.8037 27.473 37.9266 27.6229 38.0118 27.7937C38.2112 28.2322 38.323 28.7043 38.3412 29.1843C38.3412 29.608 38.3412 30.0168 38.3412 30.4205V30.4753V30.5351C38.306 30.709 38.2907 30.8863 38.2956 31.0635C38.2982 31.1223 38.3066 31.1808 38.321 31.238C38.321 31.2729 38.3209 31.238 38.2703 31.1981C38.239 31.1758 38.2023 31.162 38.1639 31.1582C38.2149 31.1507 38.2644 31.1356 38.3108 31.1133C38.4903 31.0361 38.6603 30.9392 38.8176 30.8242C39.1746 30.5612 39.5132 30.2748 39.8311 29.9669C39.9983 29.8074 40.1554 29.6479 40.3378 29.4685C40.5216 29.2715 40.7216 29.0898 40.9358 28.9251C41.3908 28.5984 41.9077 28.3645 42.4561 28.2373C42.953 28.0991 43.462 28.0073 43.9764 27.9631C44.9831 27.8805 45.9966 27.9392 46.9865 28.1376C47.958 28.3315 48.9084 28.6169 49.8243 28.9899C50.2753 29.1893 50.7264 29.3787 51.1571 29.603L51.4865 29.7675C51.603 29.8273 51.6639 29.8473 51.7551 29.8921L52.4139 30.1513C53.3108 30.5052 54.1926 30.889 55.0591 31.3227C55.982 31.7402 56.8361 32.2913 57.5929 32.9576C57.8268 33.1777 58.001 33.4519 58.0997 33.7551C58.1313 33.8552 58.1467 33.9595 58.1453 34.0642C58.1475 34.2332 58.0922 34.3982 57.9882 34.5327C57.8742 34.6727 57.7119 34.7667 57.5321 34.7969C57.4498 34.8095 57.3661 34.8095 57.2838 34.7969H57.1723H57.1267L55.7432 34.3932C54.8361 34.134 53.9189 33.8947 53.0068 33.6505C51.1723 33.1869 49.3277 32.7533 47.473 32.4542C47.0118 32.3794 46.5456 32.3196 46.0845 32.2797C45.6497 32.2121 45.2068 32.2121 44.772 32.2797C44.3504 32.3726 43.9501 32.5416 43.5912 32.7782C43.2268 33.0231 42.8843 33.2983 42.5676 33.6006C41.9392 34.2038 41.473 35.0162 41.7264 35.7888C41.9797 36.5614 42.7399 37.1745 43.4949 37.6481L43.1605 37.7029C43.9324 36.8901 44.82 36.1916 45.7956 35.6293C46.7717 35.0525 47.8726 34.7109 49.0084 34.6324C49.5771 34.6021 50.147 34.6627 50.6959 34.8119C51.2342 34.9691 51.7463 35.2024 52.2162 35.5047C53.1363 36.1319 53.9286 36.9232 54.5524 37.8375L54.4307 37.9272C53.7972 37.0494 53.0013 36.2969 52.0845 35.7091C51.6241 35.4327 51.1258 35.2229 50.6047 35.086C50.0841 34.9637 49.547 34.9233 49.0135 34.9664C47.94 35.0724 46.9079 35.4296 46.0034 36.0081C45.0879 36.5689 44.2601 37.2572 43.5456 38.0518L43.3987 38.2163L43.2061 38.1066C42.7753 37.8646 42.3726 37.5771 42.0051 37.2493C41.6129 36.9033 41.3121 36.4688 41.1284 35.9832C40.9564 35.4629 40.9779 34.8993 41.1892 34.3932C41.3948 33.9202 41.6906 33.4904 42.0608 33.1271C42.4077 32.7698 42.7916 32.4491 43.2061 32.1701C43.6388 31.8787 44.1237 31.6707 44.6351 31.557C45.1358 31.4605 45.6489 31.442 46.1554 31.5021C46.6622 31.537 47.1233 31.5919 47.5997 31.6567C49.5101 31.9258 51.3801 32.3296 53.2399 32.7682C54.1672 32.9875 55.0895 33.2168 56.0169 33.4611L57.3953 33.8349H57.4409H57.4105C57.3871 33.8299 57.3629 33.8299 57.3395 33.8349C57.2812 33.8465 57.229 33.8784 57.1926 33.9246C57.1419 33.9745 57.1216 34.114 57.1267 34.0692C57.1286 34.056 57.1286 34.0425 57.1267 34.0293C57.0639 33.8909 56.9724 33.767 56.8581 33.6654C56.1729 33.0999 55.4104 32.6318 54.5929 32.2747C53.7568 31.876 52.8902 31.5221 52.0135 31.1931L51.3446 30.9439C51.0507 30.8242 50.8378 30.7246 50.6503 30.6249C50.2399 30.4205 49.8142 30.246 49.3936 30.0666C48.5476 29.7303 47.6701 29.4766 46.7737 29.309C45.889 29.142 44.9846 29.1 44.0878 29.1843C43.6538 29.2272 43.2247 29.309 42.8057 29.4286C42.4172 29.522 42.0518 29.6915 41.7314 29.927C41.5732 30.0528 41.4257 30.1912 41.2905 30.3407L40.7838 30.8641C40.4263 31.2206 40.0454 31.5536 39.6436 31.861C39.419 32.0339 39.1739 32.1795 38.9139 32.2947C38.7529 32.3687 38.5824 32.4207 38.4071 32.4492C38.1296 32.4839 37.8487 32.4184 37.6166 32.2648C37.4075 32.1124 37.2517 31.8999 37.1706 31.6567C37.1188 31.4948 37.0865 31.3275 37.0743 31.1582C37.0605 30.8659 37.0827 30.573 37.1402 30.2859V30.4006C37.1402 30.0317 37.1402 29.6629 37.1402 29.309C37.1101 28.9975 37.0243 28.6938 36.8868 28.4117C36.8868 28.3818 36.8514 28.3669 36.8868 28.4117C36.9354 28.4422 36.9914 28.4594 37.049 28.4616C37.1453 28.4616 37.049 28.4616 36.9375 28.5563C36.8207 28.6555 36.7122 28.7639 36.6132 28.8803L36.4612 29.0747L36.3851 29.1794L36.3547 29.2242V29.1843L36.3851 29.1046L36.3497 29.1843C36.203 29.4887 36.0336 29.7819 35.8429 30.0616C35.6289 30.3899 35.3558 30.677 35.0372 30.909C34.8223 31.0614 34.5741 31.1622 34.3125 31.2031C34.0185 31.2529 33.7161 31.2129 33.446 31.0884C33.0399 30.8693 32.7151 30.529 32.5186 30.1164C31.9951 29.1204 31.2461 28.2558 30.3294 27.5893C29.8697 27.2563 29.3754 26.9723 28.8547 26.7419C28.3197 26.508 27.7653 26.3196 27.1976 26.1787C26.42 25.9614 25.7474 25.4768 25.3024 24.8129C24.8559 24.1488 24.6638 23.3504 24.7601 22.5599C24.7855 22.366 24.8262 22.1744 24.8818 21.9867L25.0237 21.5381L25.3378 20.6459C25.5507 20.0577 25.7635 19.4745 26.0017 18.8963C26.4747 17.7366 27.0017 16.6001 27.5828 15.4869C28.7466 13.2555 30.1627 11.1604 31.8041 9.24129C33.4514 7.31405 35.3693 5.62731 37.5 4.23184C38.5675 3.53321 39.6892 2.91822 40.8547 2.39256C41.4324 2.11342 42.0355 1.8941 42.6284 1.65983C43.2213 1.42556 43.8345 1.22618 44.4527 1.07166C45.6813 0.719534 46.9324 0.448111 48.1976 0.259182C49.4949 0.0323192 50.8159 -0.034657 52.1301 0.0598015C52.3248 0.084715 52.5165 0.128117 52.7027 0.189399C52.9858 0.270252 53.2404 0.427363 53.4375 0.64299C53.5857 0.810701 53.6824 1.01643 53.7162 1.23615C53.7339 1.42144 53.7115 1.60832 53.6503 1.78444C53.5714 1.98562 53.4676 2.17647 53.3412 2.35268C52.9509 2.87935 52.5242 3.37898 52.0642 3.84804C51.1824 4.75522 50.2956 5.61256 49.4139 6.47986L49.3784 6.51475H49.348C48.6639 7.0132 47.9848 7.51166 47.2703 7.95029C46.538 8.43801 45.7548 8.8474 44.9341 9.1715C44.6749 9.26486 44.4037 9.32191 44.1284 9.34097C43.9147 9.35362 43.701 9.31603 43.5051 9.23132C43.3746 9.1723 43.2575 9.08804 43.1609 8.98356C43.0643 8.87908 42.99 8.75653 42.9426 8.6232C42.841 8.29842 42.841 7.95109 42.9426 7.6263C43.0005 7.40519 43.0751 7.1886 43.1655 6.97831C43.5146 6.19797 43.9264 5.44624 44.397 4.7303C44.8418 3.99717 45.3505 3.30339 45.9172 2.65674C46.5382 1.98645 47.2964 1.45304 48.1419 1.0916C48.9664 0.74514 49.8395 0.523313 50.7314 0.43364C51.1672 0.368842 51.598 0.363857 52.0287 0.33395C52.4595 0.304043 52.8851 0.33395 53.3108 0.33395C54.1622 0.363857 55.0135 0.453578 55.8446 0.5433C56.6757 0.633021 57.4764 0.712773 58.2973 0.792526C59.9493 0.947046 61.6064 1.11652 63.2635 1.35079C66.6041 1.78785 69.8699 2.66467 72.973 3.9577L72.8818 3.92779C74.0288 4.29016 75.1252 4.79252 76.1453 5.42314C77.1481 6.01887 78.0915 6.70646 78.9628 7.47677C80.7042 9.03753 82.1701 10.8719 83.3007 12.9049C83.8581 13.9164 84.3489 14.9619 84.7703 16.0352C85.1706 17.1105 85.509 18.2072 85.7838 19.32C85.9257 19.8733 86.0321 20.4365 86.1537 20.9948L86.4426 22.6696C86.6301 23.7961 86.777 24.9226 86.8986 26.0491C87.1462 28.3117 87.2343 30.5884 87.1622 32.8629C87.1364 35.1714 86.7114 37.4587 85.9054 39.6269C85.6839 40.1788 85.4018 40.7053 85.0642 41.197C84.7243 41.6768 84.3373 42.1225 83.9088 42.5279C83.7288 42.7249 83.5596 42.9312 83.402 43.146C83.2081 43.3947 82.989 43.6235 82.7483 43.8289C82.2647 44.2235 81.7116 44.5276 81.1166 44.7261C79.9603 45.081 78.7385 45.1798 77.5388 45.0152C76.373 44.8713 75.2252 44.6108 74.1132 44.2376L73.951 44.1379C74.027 44.2027 74.0169 44.1927 74.0372 44.2027C74.0574 44.2127 74.0372 44.2027 74.0372 44.2027C74.0054 44.1964 73.9727 44.1964 73.9409 44.2027C73.8457 44.221 73.7525 44.2477 73.6622 44.2824C73.4547 44.3709 73.2532 44.4725 73.0591 44.5865C72.6475 44.8328 72.253 45.1059 71.8784 45.404C71.1132 46.0021 70.3581 46.6451 69.6639 47.323C68.9696 48.0009 68.25 48.6888 67.5659 49.3966L67.0591 49.9249L66.826 50.1891C66.7332 50.3047 66.6278 50.41 66.5118 50.5031C66.3597 50.6378 66.1681 50.7216 65.9645 50.7424C65.8167 50.7524 65.67 50.7119 65.549 50.6277C65.4544 50.5617 65.3749 50.4768 65.3159 50.3785C65.1805 50.111 65.1012 49.8194 65.0828 49.5212C65.0323 48.5223 65.0781 47.5209 65.2196 46.5305C65.3412 45.5336 65.4932 44.5716 65.6605 43.5996C66 41.6606 66.4003 39.7316 66.8209 37.8125L66.8666 37.7079C66.8412 37.7079 66.826 37.7926 66.8311 37.7677V37.7079V37.5882L66.8615 37.339C66.8615 37.1745 66.8868 37.0051 66.897 36.8406C66.897 36.5066 66.9274 36.1677 66.9324 35.8437C66.9324 35.1708 66.9324 34.4978 66.8463 33.8249C66.7302 32.4784 66.4962 31.1443 66.147 29.8373C65.4536 27.213 64.2957 24.7293 62.7264 22.5001C61.1507 20.2701 59.2166 18.3072 57 16.6882C54.7786 15.0616 52.3659 13.7043 49.8142 12.6457C48.8775 12.365 47.9725 11.9909 47.1132 11.5292C46.2357 11.0802 45.4491 10.4771 44.7922 9.74971C44.4812 9.36954 44.2426 8.93726 44.0878 8.47367C43.9238 7.99268 43.8752 7.48085 43.9459 6.97831C44.1269 6.01211 44.5779 5.11459 45.2483 4.38636V4.57079C45.2223 4.53636 45.2098 4.49393 45.2128 4.45116C45.2128 4.40132 45.2128 4.41627 45.2128 4.4063V4.37639L45.2483 4.3415L45.3041 4.29166L45.4206 4.20692L45.6537 4.04243C45.8108 3.93776 45.9679 3.83807 46.1301 3.74336C46.4544 3.54896 46.7838 3.37451 47.1436 3.21002C47.8254 2.87171 48.5317 2.58348 49.2568 2.3477C50.6924 1.87712 52.2051 1.67592 53.7162 1.75454C54.0861 1.75454 54.4814 1.84426 54.8209 1.8642C55.1888 1.8533 55.5559 1.82335 55.9206 1.77448C56.6655 1.71466 57.4105 1.67977 58.1554 1.67479C59.6471 1.66304 61.138 1.74127 62.6199 1.90906L62.5845 2.05859Z" fill="#494949"/>
<path d="M43.4037 37.8425C43.7392 38.2898 44.1548 38.6732 44.63 38.974C44.861 39.1294 45.1013 39.2708 45.3496 39.3976C45.6131 39.5023 45.8564 39.6369 46.1199 39.7216C47.1696 40.1004 48.2717 40.3206 49.3885 40.3746C49.947 40.4095 50.5073 40.4095 51.0658 40.3746C51.625 40.323 52.1869 40.3063 52.7483 40.3248C53.3108 40.3248 53.8834 40.3248 54.4611 40.3796C55.058 40.3875 55.6531 40.4459 56.2398 40.554L56.2702 40.7036C55.7376 40.9918 55.1796 41.232 54.603 41.4213C54.0262 41.5902 53.4388 41.7217 52.8445 41.8151C52.2444 41.8882 51.6383 41.9016 51.0354 41.855L50.1283 41.7254L49.6621 41.6556L49.2111 41.5609C48.0115 41.3625 46.8559 40.9611 45.7956 40.3746C45.527 40.24 45.2888 40.0506 45.0304 39.8762C44.786 39.697 44.5525 39.504 44.331 39.2979C43.8819 38.8985 43.5199 38.4135 43.2668 37.8724L43.4037 37.8425Z" fill="#494949"/>
<path d="M24.8311 35.2056C24.3495 35.0891 23.8571 35.0207 23.3615 35.0012C23.2808 34.9979 23.2005 35.0151 23.1284 35.0511C23.1284 35.081 23.2196 35.2006 23.3058 35.2654C23.4956 35.4185 23.6972 35.5568 23.9088 35.6791C24.7582 36.1803 25.6626 36.585 26.6048 36.8854C27.5846 37.0431 28.5764 37.1182 29.5693 37.1097C30.0586 37.1091 30.5475 37.0825 31.0338 37.0299C31.2467 36.9799 31.4419 36.8744 31.5989 36.7244C31.7559 36.5743 31.8688 36.3855 31.9257 36.1776C31.9746 35.9533 31.9967 35.7241 31.9916 35.4947C31.9934 35.2565 31.9798 35.0184 31.951 34.7819C31.8978 34.3052 31.7749 33.8385 31.5862 33.3962C31.1944 32.5266 30.5668 31.7798 29.772 31.2379C28.9738 30.6979 28.0926 30.2873 27.1622 30.0217C26.9427 29.9746 26.7173 29.9594 26.4933 29.9768C26.3838 29.9837 26.2753 30.0004 26.1689 30.0267C26.054 30.0559 25.9407 30.0908 25.8294 30.1314C25.5998 30.1887 25.3745 30.262 25.1554 30.3507C25.1016 30.3721 25.0519 30.4024 25.0085 30.4404V30.3656C25.0226 30.3832 25.0378 30.3998 25.0541 30.4155L25.1149 30.4753V30.5551C25.5219 32.1504 25.6724 33.7987 25.5608 35.4399C25.5244 35.8622 25.4515 36.2808 25.3429 36.691C25.2772 36.9158 25.18 37.1305 25.0541 37.329C24.9311 37.5057 24.7938 37.6724 24.6436 37.8275C24.1233 38.4173 23.6522 39.0474 23.2348 39.7116C22.8207 40.3681 22.505 41.0799 22.2973 41.825C22.2054 42.2 22.1327 42.5793 22.0794 42.9615L21.9021 44.1379C21.6892 45.718 21.5321 47.303 21.4561 48.8881C21.3664 50.4664 21.3935 52.049 21.5372 53.6234C21.6095 54.3971 21.7365 55.1649 21.9173 55.9213C21.9679 56.1057 22.0135 56.2951 22.0744 56.4745L22.1605 56.7487C22.1739 56.7963 22.1944 56.8416 22.2213 56.8833C22.2544 56.9331 22.3009 56.9731 22.3556 56.9986C22.4102 57.0242 22.471 57.0345 22.5313 57.0283C22.5915 57.0221 22.6488 56.9997 22.6969 56.9636C22.7451 56.9275 22.7821 56.879 22.8041 56.8235C22.8267 56.7898 22.8438 56.7527 22.8548 56.7138L22.9206 56.5643C22.9612 56.4646 23.0119 56.3649 23.0575 56.2652C23.2529 55.8488 23.509 55.4626 23.8176 55.1188C24.1489 54.7584 24.5622 54.4802 25.0237 54.3069C25.4852 54.1337 25.9818 54.0703 26.473 54.1218C26.7087 54.1402 26.9425 54.1768 27.1723 54.2315L27.7602 54.401C27.899 54.4362 28.0427 54.4497 28.1858 54.4409H28.3277H28.5051H28.8852C29.3764 54.4592 29.859 54.5745 30.3041 54.7798C30.768 55.0077 31.163 55.3514 31.4494 55.7767L31.3733 55.682C32.4983 56.7736 33.5929 57.8802 34.6622 59.0266C35.1689 59.6048 35.7213 60.183 36.2281 60.8011C36.4814 61.1101 36.7348 61.4291 36.9679 61.798C37.1006 61.9939 37.2159 62.2007 37.3125 62.4161C37.4003 62.61 37.4369 62.8226 37.4189 63.0342C37.4045 63.1586 37.3626 63.2784 37.2961 63.3852C37.2295 63.492 37.14 63.5831 37.0338 63.6522C36.8814 63.7449 36.7062 63.7949 36.5271 63.7968H36.375L36.1875 63.7021C34.1764 62.6516 32.0996 61.7276 29.9696 60.9357C28.9283 60.5487 27.8574 60.2436 26.7669 60.0235C26.4983 59.9787 26.2602 59.9537 25.9764 59.9139C25.7649 59.8938 25.5515 59.9039 25.3429 59.9438C24.9324 60.0216 24.5518 60.2096 24.2433 60.4871C24.148 60.5725 24.0839 60.6863 24.0608 60.8111C24.0466 60.9581 24.0728 61.1062 24.1369 61.2397C24.3386 61.6397 24.6115 62.001 24.9426 62.3064C25.6747 63.0374 26.5675 63.5933 27.5524 63.9314C28.5539 64.2878 29.6144 64.4568 30.6791 64.4298C31.7102 64.3919 32.7096 64.0689 33.5625 63.4977L33.4916 63.5575C33.898 63.226 34.3301 62.926 34.7838 62.6603C34.8638 62.6092 34.94 62.5525 35.0119 62.4908C35.0676 62.451 35.0727 62.3961 35.0119 62.5208C34.9914 62.5908 34.9914 62.6651 35.0119 62.7351C35.0119 62.7849 35.0524 62.7949 35.0473 62.7899C35.0004 62.7464 34.9475 62.7095 34.8902 62.6803C34.4883 62.4753 34.0675 62.3085 33.6335 62.1818C33.1774 62.0472 32.701 61.9226 32.2298 61.808C31.2771 61.5737 30.3142 61.3594 29.3463 61.155L28.9814 61.0802L28.8041 61.0404L28.6622 61.0055L28.571 60.9756C28.3277 60.9008 28.0642 60.8161 27.8514 60.7313C27.3633 60.5622 26.8861 60.3641 26.4223 60.1382C26.1588 60.015 25.9133 59.8574 25.6926 59.6696C25.6151 59.5943 25.5485 59.5087 25.495 59.4154C25.4477 59.3343 25.4199 59.2436 25.4138 59.1503C25.4076 59.057 25.4233 58.9635 25.4595 58.8771C25.5214 58.7435 25.6218 58.6309 25.7483 58.5531C25.8274 58.5076 25.9105 58.4692 25.9967 58.4384C26.5143 58.2931 27.0496 58.2176 27.5879 58.2141C28.6564 58.1463 29.7198 58.4095 30.6284 58.9668C32.2652 60.1332 33.8412 61.2846 35.4325 62.456L35.3463 62.5806L30.3244 59.4653C29.4996 59.0395 28.5643 58.8659 27.6385 58.9668C27.1841 58.9902 26.7345 59.0706 26.3007 59.2061C26.2196 59.2061 26.1689 59.3157 26.2551 59.2061C26.2799 59.1453 26.2799 59.0774 26.2551 59.0166C26.2551 59.0166 26.2551 59.0166 26.2906 59.0465C26.4474 59.1648 26.6174 59.2652 26.7973 59.3456C27.2354 59.5358 27.6837 59.7022 28.1402 59.8441C28.3683 59.9139 28.6014 59.9836 28.8345 60.0435H28.9257H28.9662L29.1487 60.0734L29.5186 60.1332C30.5017 60.2927 31.4848 60.4572 32.4679 60.6665C32.9747 60.7712 33.451 60.8809 33.9477 61.0105C34.4716 61.1389 34.981 61.3192 35.4679 61.5488C35.6326 61.632 35.7844 61.7378 35.9189 61.8628C36.0257 61.9587 36.1104 62.076 36.1673 62.2067C36.2463 62.3891 36.2658 62.5912 36.223 62.7849C36.1559 63.0261 36.0185 63.2427 35.8277 63.408C35.7159 63.5123 35.5956 63.6073 35.4679 63.6921C35.0765 63.9375 34.7039 64.2107 34.3531 64.5096L34.3227 64.5345L34.2821 64.5644C33.2278 65.3059 31.9828 65.7412 30.6892 65.8205C29.4352 65.8846 28.1802 65.7155 26.9899 65.3221C25.7803 64.9179 24.6811 64.246 23.7771 63.3582C23.2731 62.9035 22.8665 62.3544 22.5811 61.7432C22.4087 61.3547 22.3456 60.9277 22.3987 60.507C22.4667 60.0666 22.6742 59.6584 22.9916 59.3406C23.2575 59.0756 23.5656 58.855 23.9037 58.6877C24.2216 58.5214 24.5634 58.4038 24.9173 58.3387C25.3076 58.2737 25.7056 58.267 26.098 58.3188C26.4071 58.3687 26.7213 58.4035 27.0203 58.4634C28.1942 58.7045 29.3465 59.0379 30.4662 59.4603C32.6557 60.3012 34.784 61.2888 36.8362 62.4161L36.4916 62.3264C36.4063 62.3312 36.324 62.3588 36.2534 62.4061C36.1883 62.4497 36.1328 62.5057 36.0902 62.5707C36.0475 62.6358 36.0186 62.7087 36.0051 62.7849C36.0051 62.9494 36.0051 62.8747 36.0051 62.8398C35.9467 62.7023 35.8755 62.5705 35.7923 62.446C35.6048 62.1569 35.3818 61.8578 35.1487 61.5637C34.6825 60.9756 34.1808 60.3974 33.669 59.8241C32.6554 58.6827 31.576 57.5612 30.4916 56.4696L30.4409 56.4197V56.3798C30.263 56.1241 30.0239 55.9153 29.7447 55.7719C29.4654 55.6284 29.1546 55.5548 28.8396 55.5574H28.5862H28.2923C28.0278 55.5713 27.7628 55.5444 27.5068 55.4776L26.8885 55.3281C26.7219 55.2878 26.5526 55.2595 26.3818 55.2434C26.0614 55.2039 25.736 55.2403 25.4328 55.3495C25.1295 55.4588 24.8572 55.6377 24.6385 55.8714C24.3945 56.1255 24.1912 56.4146 24.0355 56.7287L23.9139 56.973L23.8632 57.0976L23.7872 57.2621C23.6446 57.5571 23.403 57.7947 23.1031 57.935C22.8018 58.0733 22.4607 58.1032 22.1393 58.0194C21.8179 57.9356 21.5367 57.7434 21.3446 57.4764C21.2591 57.3503 21.1925 57.2126 21.147 57.0677L21.0558 56.7636C20.9899 56.5643 20.9494 56.3599 20.8987 56.1555C20.714 55.3497 20.5887 54.5317 20.5237 53.7081C20.4071 52.0852 20.4071 50.4562 20.5237 48.8333C20.625 47.2183 20.8125 45.6133 21.0304 44.0132L21.2281 42.817C21.2916 42.406 21.3762 41.9984 21.4814 41.5958C21.7355 40.792 22.1022 40.027 22.571 39.3228C23.0234 38.6292 23.5318 37.9724 24.0912 37.3589C24.2208 37.229 24.3394 37.089 24.446 36.9402C24.5372 36.8008 24.6087 36.6499 24.6588 36.4916C24.7607 36.1306 24.8336 35.7623 24.8767 35.39C25.0089 33.8286 24.8944 32.2564 24.5372 30.7295L24.6183 30.8741C24.5431 30.8013 24.4829 30.715 24.4409 30.6199C24.4097 30.5517 24.3936 30.4778 24.3936 30.403C24.3936 30.3283 24.4097 30.2544 24.4409 30.1862C24.5446 30.024 24.6995 29.8997 24.8818 29.8323C25.1292 29.7365 25.3832 29.6582 25.6419 29.598C25.765 29.5553 25.8901 29.5187 26.0169 29.4884C26.1552 29.4579 26.296 29.4395 26.4375 29.4335C26.7168 29.4181 26.9968 29.4433 27.2686 29.5083C28.266 29.8053 29.2062 30.2635 30.0507 30.8641C30.9048 31.4707 31.5727 32.2967 31.9814 33.2517C32.2701 33.9695 32.4047 34.7382 32.3767 35.5097C32.3775 35.7748 32.3469 36.0391 32.2855 36.2972C32.2044 36.5642 32.0529 36.8054 31.8464 36.9962C31.6399 37.1871 31.3858 37.3208 31.1098 37.3838C30.6047 37.4329 30.097 37.4512 29.5896 37.4387C28.5696 37.4309 27.5522 37.3358 26.549 37.1546C25.5864 36.8308 24.6648 36.3993 23.8024 35.8685C23.5762 35.7271 23.3626 35.567 23.1639 35.39C23.1128 35.3456 23.0654 35.2972 23.022 35.2455C22.9613 35.1823 22.9285 35.0981 22.9308 35.0112C22.9422 34.9624 22.9689 34.9184 23.007 34.8853C23.0452 34.8522 23.093 34.8318 23.1436 34.8268C23.211 34.8197 23.2789 34.8197 23.3463 34.8268C23.86 34.8523 24.3696 34.9308 24.8666 35.0611L24.8311 35.2056Z" fill="#494949"/>
<path d="M66.527 40.4294C66.527 40.4294 66.4256 40.3796 66.3749 40.3596L66.1874 40.2799C66.0562 40.2374 65.9225 40.2025 65.7871 40.1752L65.3716 40.1403C65.2331 40.1329 65.0944 40.1329 64.956 40.1403C64.6754 40.16 64.3972 40.2051 64.1249 40.2749C63.8513 40.3397 63.5878 40.4444 63.3192 40.5241C63.0506 40.6039 62.8124 40.7534 62.5438 40.8631C62.2867 40.9775 62.0378 41.1091 61.7989 41.2569L61.0641 41.6805L60.3699 42.179C58.5417 43.5151 56.8451 45.017 55.3023 46.6651C54.527 47.4925 53.782 48.3249 53.0118 49.1573C52.2415 49.9897 51.5371 50.8869 50.8428 51.7493C49.4882 53.4761 48.6149 55.5206 48.3091 57.6808C48.2379 58.1605 48.2585 58.6491 48.3699 59.1214C48.3966 59.2842 48.4819 59.4322 48.6103 59.5383C48.7387 59.6444 48.9015 59.7017 49.0692 59.6996C49.546 59.6962 50.017 59.5961 50.4526 59.4055C50.9499 59.2128 51.4282 58.9759 51.8817 58.6977C52.3417 58.4165 52.7819 58.1051 53.1993 57.7656L54.5067 56.6889C55.3682 55.9712 56.2043 55.1936 57.0405 54.4608C60.3496 51.4253 63.4966 48.1654 65.7415 44.2974L65.706 44.4071C65.8276 43.7641 65.9695 43.1111 66.1013 42.4432L66.527 40.4294ZM66.6688 40.3746C66.6435 41.0375 66.6131 41.7204 66.5726 42.4133C66.532 43.1061 66.5016 43.8089 66.4509 44.5217V44.5616L66.4205 44.6364C64.5557 48.8832 61.4847 52.482 58.1199 55.6023C57.2787 56.3898 56.3817 57.0976 55.4847 57.8503C55.0337 58.2142 54.5776 58.5631 54.1114 58.907C53.6285 59.2733 53.1206 59.6063 52.5912 59.9039C52.0559 60.2 51.4965 60.4517 50.9189 60.6566C50.2895 60.8951 49.6161 61.0004 48.9425 60.9656C48.5227 60.9176 48.1281 60.7436 47.8124 60.4672C47.5228 60.1968 47.3172 59.8511 47.2195 59.4703C47.0737 58.8401 47.0582 58.1875 47.1739 57.5512C47.5676 55.2195 48.5758 53.03 50.0979 51.201C50.8581 50.3187 51.6182 49.4913 52.3885 48.6339C53.1587 47.7766 53.9695 46.9741 54.7905 46.1766C56.4263 44.5645 58.2129 43.1075 60.1266 41.8251L60.8614 41.3615L61.6266 40.9578C61.8799 40.8133 62.1442 40.6883 62.4172 40.5839C62.6857 40.4793 62.9239 40.3497 63.228 40.2699C63.532 40.1902 63.7854 40.0955 64.0743 40.0406C64.3612 39.981 64.6528 39.946 64.9459 39.936C65.0927 39.9285 65.2399 39.9285 65.3868 39.936L65.8276 39.9958C65.9718 40.0314 66.1139 40.0747 66.2533 40.1254L66.4611 40.2201C66.5383 40.2603 66.6084 40.3125 66.6688 40.3746Z" fill="#494949"/>
<path d="M0 112.316C1.06032 112.262 2.09683 111.987 3.04054 111.509C4.01257 111.06 4.95984 110.56 5.87838 110.013C7.72804 108.927 9.50169 107.725 11.2601 106.499C14.7618 104.037 18.1672 101.43 21.5574 98.818L26.6605 94.9002C28.36 93.5765 30.133 92.3468 31.9713 91.2166C32.0828 91.1469 32.2145 91.092 32.3412 91.0272C32.465 90.9578 32.598 90.9057 32.7365 90.8727C32.8739 90.8259 33.0171 90.7974 33.1622 90.788C33.3055 90.7754 33.4496 90.7754 33.5929 90.788C33.7526 90.7861 33.9107 90.8197 34.0555 90.8861C34.2002 90.9525 34.3279 91.0502 34.4291 91.1718C34.5871 91.4418 34.6342 91.761 34.5608 92.064C34.4446 92.5984 34.2554 93.1148 33.9983 93.5992C33.7601 94.0977 33.4916 94.5513 33.228 95.0099C32.1588 96.8541 30.9172 98.6137 30.0861 100.538C29.4656 101.739 29.1988 103.088 29.3159 104.431C29.3792 105.097 29.5325 105.753 29.772 106.38C29.8918 106.693 30.0305 106.999 30.1875 107.297C30.3345 107.596 30.5372 107.875 30.6943 108.229C30.9815 108.918 31.0103 109.684 30.7753 110.392C30.6546 110.746 30.4634 111.073 30.2128 111.354C30.0887 111.495 29.9512 111.623 29.8024 111.738L29.5693 111.897C29.5012 111.935 29.4368 111.978 29.3767 112.027C29.1434 112.222 28.9682 112.475 28.8699 112.76C28.7772 113.077 28.7045 113.4 28.652 113.727C28.5415 114.385 28.5008 115.054 28.5304 115.721C28.5977 117.073 28.8325 118.412 29.2297 119.708C29.6162 121.017 30.0954 122.298 30.6639 123.541C31.7928 126.036 33.1497 128.425 34.7179 130.679L34.6622 130.624C35.1872 130.989 35.7848 131.24 36.4155 131.362C37.0659 131.466 37.728 131.478 38.3818 131.397C39.7164 131.22 41.0194 130.861 42.2534 130.33C44.7524 129.265 47.1389 127.962 49.3784 126.437C51.6487 124.942 53.8328 123.327 55.9662 121.632C57.0304 120.785 58.0743 119.917 59.098 119.03C59.6047 118.597 60.0608 118.113 60.5473 117.655C61.0338 117.196 61.4189 116.658 61.8294 116.109C63.4489 113.957 64.8894 111.68 66.1368 109.3C67.4088 106.923 68.549 104.48 69.598 101.998C70.1216 100.755 70.6199 99.5059 71.0929 98.2498C71.3311 97.6217 71.5642 96.9887 71.7872 96.3557C71.8987 96.0466 72 95.7127 72.152 95.3588C72.3041 95.0049 72.4865 94.7108 72.6588 94.4267L73.1351 93.5494L73.5405 92.6522C73.6774 92.3481 73.7635 92.0391 73.8801 91.735C73.9966 91.431 74.0372 91.1169 74.1081 90.8079C74.2267 90.2346 74.1556 89.639 73.9054 89.1082C73.758 88.8824 73.5568 88.6953 73.3192 88.5633C73.0817 88.4313 72.815 88.3583 72.5422 88.3505H72.5068C71.907 88.3149 71.3287 88.1184 70.8345 87.7823C70.3741 87.4257 70.0002 86.9728 69.7399 86.4564C69.6263 86.2397 69.4994 86.0299 69.3598 85.8284C69.2275 85.6367 69.0746 85.4595 68.9037 85.3C68.5614 84.9761 68.1633 84.7145 67.728 84.5274C67.51 84.4332 67.2846 84.3565 67.0541 84.2981C66.826 84.2383 66.5929 84.2084 66.3142 84.1586C65.7788 84.0689 65.2505 83.9423 64.7331 83.7797C63.6829 83.4542 62.6997 82.9479 61.8294 82.2844C60.9644 81.5979 60.2448 80.7511 59.7112 79.7921C59.1854 78.8479 58.8127 77.8288 58.6064 76.7715C58.3972 75.7247 58.3139 74.6573 58.3581 73.5914C58.3648 73.3152 58.3953 73.0401 58.4493 72.7689L58.6267 72.0013C58.7534 71.5029 58.8547 70.9795 59.0017 70.4761C59.4826 68.4431 60.2628 66.4902 61.3176 64.6791C61.9112 63.7565 62.6701 62.9475 63.5574 62.2915C64.4895 61.6606 65.5685 61.2714 66.6943 61.16C67.7766 61.0701 68.8661 61.1136 69.9375 61.2896C71.0237 61.4089 72.0869 61.6808 73.0946 62.0971C75.1354 62.9453 76.8446 64.4167 77.9696 66.2941C78.1115 66.5283 78.2382 66.7925 78.3598 67.0118L78.6892 67.7346C78.9223 68.233 79.0794 68.7315 79.272 69.2299C79.6155 70.2434 79.8416 71.2918 79.9459 72.3552C80.044 73.4285 79.9945 74.5099 79.799 75.5702C79.5863 76.6302 79.2229 77.6555 78.7196 78.6158C78.216 79.5667 77.5966 80.4539 76.875 81.2576C76.6824 81.4719 76.576 81.6314 76.424 81.8158C76.272 82.0003 76.1909 82.2146 76.0693 82.409C75.8781 82.8237 75.7583 83.2667 75.7145 83.7199C75.6169 84.6276 75.8508 85.5397 76.3745 86.2932C76.8982 87.0466 77.6774 87.5922 78.5726 87.8322L78.9071 87.9169L79.2568 87.9418C79.3682 87.9418 79.4848 87.9717 79.6014 87.9418H79.9966C80.2927 87.9539 80.5867 87.9973 80.8733 88.0714L81.6638 88.2359L83.2095 88.6396L84.7297 89.1132C86.7568 89.7711 88.6976 90.5188 90.6436 91.3014C94.5304 92.8815 98.3412 94.6011 102.122 96.4205H102.147H102.177C103.373 97.1831 104.559 97.9557 105.725 98.7582C106.89 99.5607 108.051 100.393 109.155 101.33C109.759 101.809 110.288 102.371 110.726 103C110.885 103.234 110.974 103.507 110.985 103.788C110.987 104.009 110.914 104.225 110.777 104.401C110.657 104.543 110.504 104.656 110.331 104.73C110.1 104.82 109.855 104.871 109.606 104.879C109.404 104.892 109.201 104.892 108.998 104.879C107.537 104.721 106.097 104.413 104.701 103.962H104.666L104.605 103.937L102.644 102.98C101.99 102.661 101.321 102.377 100.657 102.078C99.9932 101.779 99.3142 101.53 98.6301 101.25C97.946 100.971 97.272 100.752 96.6031 100.518C95.242 100.064 93.8478 99.7119 92.4324 99.466C91.7395 99.3458 91.038 99.2791 90.3345 99.2666C90.1657 99.257 89.9965 99.257 89.8277 99.2666C89.6554 99.2666 89.4882 99.2666 89.3209 99.3015C89.1508 99.3173 88.9816 99.3422 88.8142 99.3763C88.6889 99.4018 88.5653 99.4351 88.4443 99.476L88.2922 99.5308H88.201L86.7922 99.7202L85.3632 100.004C84.4105 100.214 83.4578 100.448 82.5051 100.692C80.6064 101.197 78.7128 101.734 76.8243 102.302C73.0439 103.439 69.2889 104.66 65.5439 105.911C61.799 107.162 58.0591 108.433 54.3598 109.804C52.4949 110.477 50.6149 111.13 48.6892 111.688C47.7331 111.977 46.7534 112.226 45.75 112.436L44.9797 112.565C44.7213 112.61 44.4375 112.62 44.1689 112.65C43.8461 112.664 43.5227 112.639 43.2061 112.575C43.0897 112.548 42.9773 112.506 42.8716 112.451C42.8111 112.425 42.7534 112.393 42.6993 112.356C42.6234 112.291 42.5523 112.221 42.4865 112.147C42.345 111.979 42.2632 111.771 42.2534 111.553C42.2521 111.453 42.264 111.352 42.2889 111.254C42.313 111.154 42.3523 111.059 42.4054 110.97V111.713C40.9494 109.14 39.6662 106.476 38.5642 103.738C37.4898 100.988 36.5977 98.1723 35.8936 95.3089C34.515 89.5647 33.9623 83.6587 34.2517 77.7634C34.2821 77.0457 34.3733 76.2681 34.3784 75.6251C34.384 74.9619 34.297 74.3011 34.1199 73.6612C33.7768 72.377 33.0746 71.2131 32.0929 70.3016C31.1607 69.3901 29.9392 68.8201 28.6318 68.6866H28.4088H28.1453C27.9166 68.6952 27.6877 68.6835 27.4611 68.6517L26.9139 68.567C26.7466 68.5371 26.5946 68.5371 26.4071 68.5221C25.8423 68.4643 25.2753 68.6095 24.8108 68.9309C24.6029 69.1008 24.4307 69.309 24.3041 69.544C24.2284 69.6728 24.1608 69.8059 24.1014 69.9427C24.0435 70.0791 23.9944 70.219 23.9544 70.3614C23.8333 70.9072 23.9123 71.4774 24.1774 71.9714C24.3161 72.25 24.4861 72.5125 24.6841 72.754C24.8927 72.9845 25.1216 73.1963 25.3682 73.387C25.6166 73.6063 25.9206 73.7708 26.1892 73.9652C26.4578 74.1596 26.7872 74.2892 27.0912 74.4637C29.625 75.5702 32.5946 75.8942 35.397 75.7597H35.5237C38.0868 75.9603 40.6661 75.794 43.1807 75.2662C45.7145 74.7326 48.1942 73.9752 50.5895 73.0032C52.9998 72.0392 55.3384 70.9099 57.5878 69.6237L58.424 69.1253C58.6523 69.0128 58.8569 68.8589 59.027 68.6717C59.1717 68.4942 59.2723 68.286 59.3209 68.0636C59.4001 67.7267 59.4965 67.394 59.6098 67.0667C59.836 66.4065 60.1422 65.7756 60.522 65.1875C60.7101 64.8872 60.9201 64.6007 61.1503 64.3302C61.3899 64.0421 61.6581 63.7783 61.951 63.5426L61.8243 63.6722C62.3784 62.9717 63.0826 62.3999 63.8868 61.9974C64.6569 61.6067 65.4792 61.3248 66.3294 61.16C67.1635 60.9974 68.013 60.9239 68.8632 60.9407C69.2923 60.9468 69.7205 60.9801 70.1453 61.0404C70.6017 61.0976 71.0483 61.215 71.473 61.3893L71.701 61.484C71.7685 61.5082 71.838 61.5265 71.9088 61.5388C72.0862 61.5388 72.2635 61.5986 72.446 61.6136C72.7995 61.6535 73.1566 61.6535 73.5101 61.6136C74.2313 61.507 74.916 61.2318 75.5068 60.8111C75.8091 60.6111 76.0893 60.3805 76.3429 60.1232C76.6054 59.8511 76.8524 59.5649 77.0828 59.2659L77.848 58.3338C78.0862 58.0297 78.3547 57.7356 78.5524 57.4216C79.4642 56.2062 80.1048 54.8151 80.4324 53.3393C80.7296 51.8693 80.5889 50.3461 80.027 48.9529C79.7641 48.254 79.4243 47.5854 79.0135 46.9591C78.6286 46.3591 78.095 45.8651 77.4628 45.5236C76.8332 45.222 76.1162 45.1462 75.4358 45.3092C74.7265 45.4481 74.0724 45.7836 73.5507 46.2762C73.2825 46.5438 73.0288 46.825 72.7905 47.1186C72.5422 47.4227 72.2838 47.7218 72.0659 48.0358C71.5984 48.6275 71.2164 49.28 70.9307 49.9748C70.8059 50.2586 70.7655 50.5714 70.8142 50.877C70.8142 50.9766 70.9459 51.0963 70.9054 51.0564C70.9054 51.0564 70.9054 51.0564 70.9966 50.9816C71.6143 50.4474 72.2623 49.9482 72.9375 49.4863C73.6207 49.0045 74.361 48.6061 75.1419 48.3C75.565 48.1373 76.0154 48.0544 76.4696 48.0557C76.7288 48.0557 76.9847 48.1125 77.2188 48.222C77.4529 48.3315 77.6591 48.4909 77.8226 48.6888C78.1004 49.0641 78.275 49.5036 78.3294 49.9648C78.3645 50.1758 78.3848 50.389 78.3902 50.6028C78.3902 50.8122 78.3902 51.0165 78.3902 51.2259C78.341 52.0356 78.2291 52.8404 78.0557 53.6334C77.7255 55.2968 76.74 56.7642 75.3142 57.7157C74.6162 58.1544 73.8783 58.5282 73.1098 58.8322C72.3268 59.1567 71.4865 59.3261 70.6368 59.3307C70.1939 59.3209 69.7577 59.2225 69.3547 59.0416C69.1524 58.9474 68.9619 58.8303 68.7872 58.6927C68.5997 58.5494 68.4444 58.3695 68.3311 58.1643C68.1037 57.755 68.037 57.2779 68.1436 56.8235C68.1946 56.5976 68.2911 56.3841 68.4274 56.1954C68.5743 55.996 68.6959 55.8764 68.8226 55.697C69.3261 55.0929 69.7786 54.4494 70.1757 53.773C70.3912 53.4656 70.5618 53.13 70.6824 52.7761C70.6874 52.7497 70.6874 52.7227 70.6824 52.6963C70.6387 52.674 70.5897 52.6636 70.5405 52.6664C70.3694 52.665 70.1989 52.6868 70.0338 52.7312C69.7554 52.8162 69.4896 52.9368 69.2432 53.0901C69.1634 53.134 69.0982 53.1998 69.0557 53.2795C69.0557 53.2795 69.1267 53.3792 69.2483 53.429C69.5167 53.5495 69.7993 53.6366 70.0895 53.6882C70.3936 53.753 70.6976 53.7979 71.0068 53.8427L70.9814 54.2066H70.8953V53.8427H70.946C70.946 53.763 70.946 54.5256 70.946 54.2016H70.4392C70.4392 54.2016 70.4392 54.2016 70.4899 54.2016C70.5406 54.2016 70.4899 54.2016 70.4899 54.2016L70.4088 54.2515C70.4234 54.2399 70.434 54.2243 70.4392 54.2066C70.4392 54.2315 70.5 54.1468 70.4392 54.0222C70.3784 53.8976 70.353 53.9773 70.3429 53.9624C70.3247 53.9572 70.3054 53.9572 70.2872 53.9624L70.3834 53.9325L70.5862 53.8726C70.7247 53.8294 70.8615 53.7896 70.9966 53.753C71.5586 53.6001 72.1445 53.5511 72.7247 53.6085C73.0293 53.6333 73.3243 53.7255 73.5876 53.8783C73.8508 54.0311 74.0756 54.2404 74.2449 54.4907C74.55 54.9883 74.6932 55.5657 74.6554 56.1456C74.6573 57.265 74.437 58.3741 74.0068 59.4104C73.5681 60.4453 72.8834 61.3615 72.0101 62.0821L71.9139 61.9675C72.7519 61.2521 73.4035 60.3496 73.8142 59.3357C74.2149 58.3209 74.4111 57.2391 74.3919 56.1506C74.4005 55.8843 74.375 55.618 74.3159 55.358C74.254 55.1067 74.1495 54.8674 74.0068 54.6502C73.8594 54.4399 73.6658 54.2649 73.4404 54.1381C73.2149 54.0112 72.9634 53.9359 72.7044 53.9175C72.1665 53.873 71.6249 53.9288 71.1081 54.082L70.7128 54.1966L70.5152 54.2614L70.4139 54.2963C70.3871 54.3017 70.3595 54.3017 70.3328 54.2963C70.3111 54.3014 70.2886 54.3014 70.2669 54.2963C70.2669 54.2963 70.2669 54.2963 70.1605 54.2315C70.1425 54.2031 70.133 54.1703 70.133 54.1368C70.133 54.1034 70.1425 54.0705 70.1605 54.0421C70.1711 54.0234 70.1848 54.0066 70.201 53.9923H70.2365L70.3328 53.9275H70.3784C70.4645 53.9275 70.4544 53.9275 70.4595 53.9275H70.9662C70.9662 53.6035 70.9662 54.3661 70.9662 54.2864H70.8649V53.9225H70.946V54.2814C70.6318 54.2465 70.3125 54.2066 69.9983 54.1418C69.6714 54.0897 69.3529 53.9958 69.0507 53.8627C68.9619 53.8219 68.8798 53.7681 68.8074 53.7032C68.7551 53.6627 68.7124 53.6113 68.6826 53.5527C68.6528 53.4941 68.6366 53.4297 68.6351 53.3642C68.6468 53.2552 68.6845 53.1505 68.7453 53.0587C68.8061 52.9668 68.8882 52.8905 68.9848 52.8359C69.2643 52.6534 69.5678 52.5091 69.8868 52.4072C70.1015 52.3495 70.3231 52.321 70.5456 52.3225C70.6127 52.3111 70.6812 52.3111 70.7483 52.3225C70.8306 52.3435 70.9068 52.3827 70.9713 52.4371C71.0304 52.4999 71.0736 52.5755 71.0974 52.6578C71.1211 52.74 71.1248 52.8267 71.1081 52.9106C71.0595 53.1292 70.9739 53.3381 70.8547 53.5287L70.5507 54.0272C70.1505 54.7261 69.6946 55.3928 69.1875 56.021C69.0659 56.1805 68.9139 56.345 68.8277 56.4696C68.7331 56.607 68.666 56.761 68.6301 56.9232C68.5597 57.2497 68.6138 57.5903 68.7821 57.8802C68.9644 58.1698 69.2387 58.3923 69.5625 58.5132C69.8959 58.6588 70.2568 58.7335 70.6216 58.7325C71.3879 58.7137 72.1426 58.5442 72.8412 58.2341C73.5633 57.9339 74.2554 57.5685 74.9088 57.1425C76.1671 56.2749 77.028 54.9554 77.3057 53.4689C77.4606 52.711 77.5589 51.943 77.5997 51.171C77.6124 50.9835 77.6124 50.7953 77.5997 50.6078C77.5958 50.4257 77.5789 50.2442 77.549 50.0645C77.5092 49.7347 77.3874 49.4197 77.1943 49.1473C76.8446 48.6937 76.0997 48.7585 75.4105 49.0277C74.6914 49.3158 74.0107 49.6891 73.3834 50.1392C72.7425 50.5894 72.1283 51.0754 71.5439 51.5947C71.4286 51.7091 71.2882 51.7961 71.1334 51.8489C70.9447 51.9135 70.7394 51.9135 70.5507 51.8489C70.453 51.8134 70.3635 51.7591 70.2872 51.6894C70.1189 51.5311 69.9964 51.3315 69.9324 51.1112C69.8249 50.6349 69.8673 50.1377 70.0541 49.6857C70.3591 48.905 70.7736 48.1702 71.2855 47.5024C71.5237 47.1685 71.7922 46.8544 72.0355 46.5354C72.2948 46.2083 72.5723 45.8955 72.8666 45.5984C73.5109 44.9775 74.3209 44.5489 75.2027 44.3622C75.6445 44.2631 76.0991 44.2312 76.5507 44.2675C77.0117 44.3103 77.4613 44.4335 77.8784 44.6314C78.6736 45.0398 79.3489 45.6422 79.8395 46.3809C80.3036 47.0789 80.6893 47.8242 80.9899 48.604L81.2128 49.2022C81.2686 49.3866 81.3243 49.586 81.375 49.7903C81.4817 50.198 81.5579 50.6128 81.603 51.0315C81.6812 51.8635 81.642 52.7022 81.4865 53.5237C81.1415 55.1587 80.4509 56.7041 79.4595 58.0596C79.2264 58.3986 78.9527 58.7176 78.7145 59.0565L77.9696 59.9787C77.7264 60.2678 77.4628 60.6267 77.1487 60.9357C76.8407 61.2481 76.5011 61.5286 76.1351 61.7731C75.3987 62.284 74.5494 62.6155 73.6571 62.7401C73.2122 62.8015 72.7617 62.8132 72.3142 62.775C72.0912 62.775 71.8733 62.7202 71.6554 62.6853C71.5258 62.6637 71.3986 62.6304 71.2753 62.5856C71.1588 62.5507 70.9966 62.466 70.951 62.456C70.2661 62.2268 69.546 62.1155 68.8226 62.127C68.0619 62.1183 67.3025 62.1901 66.5574 62.3413C65.1055 62.5713 63.7838 63.3009 62.8277 64.3999L62.7821 64.4598L62.701 64.5246C62.4882 64.7038 62.2931 64.9024 62.1182 65.1177C61.9308 65.3438 61.7614 65.5838 61.6115 65.8355C61.289 66.3428 61.0303 66.8868 60.8412 67.4555C60.7449 67.7396 60.6639 68.0337 60.5929 68.3277C60.4564 68.9561 60.0972 69.5162 59.5794 69.9078C59.3868 70.0474 59.25 70.1222 59.1132 70.2069C58.8294 70.3814 58.5405 70.5508 58.2517 70.7054C55.9553 72.0304 53.5677 73.1963 51.1064 74.1945C48.6383 75.2117 46.0825 76.009 43.4696 76.5771C40.8276 77.1604 38.1133 77.3619 35.4122 77.1753H35.5389C34.7698 77.2299 33.9982 77.2398 33.228 77.2052C32.4628 77.1802 31.7078 77.1154 30.9426 77.0158C29.3967 76.823 27.8877 76.41 26.4628 75.7896C26.125 75.6134 25.7753 75.429 25.4139 75.2363C25.0845 75.002 24.7348 74.8076 24.4257 74.5434C24.0928 74.2834 23.7857 73.993 23.5084 73.6761C23.2427 73.3438 23.0166 72.9825 22.8345 72.5995C22.4196 71.7871 22.3101 70.8567 22.5253 69.9726C22.5801 69.7632 22.6513 69.5582 22.7382 69.3595C22.8232 69.1632 22.9196 68.9718 23.027 68.7863C23.266 68.4016 23.5753 68.0636 23.9392 67.7894C24.3184 67.5034 24.7529 67.2964 25.2162 67.1813C25.6464 67.0848 26.088 67.0462 26.5287 67.0667C26.7365 67.0667 26.9544 67.0667 27.1571 67.1215L27.6993 67.2062C27.8402 67.2266 27.9826 67.235 28.125 67.2311H28.4189C28.5304 67.2311 28.6368 67.2311 28.7483 67.2311C29.5904 67.2836 30.4128 67.504 31.1655 67.8791C31.9071 68.2337 32.5904 68.6958 33.1926 69.2499C34.3742 70.354 35.2185 71.7611 35.6301 73.3123C35.8389 74.0795 35.9429 74.8707 35.9392 75.6649C35.9392 76.4924 35.8378 77.1603 35.8074 77.8781C35.5259 83.6325 36.0649 89.3974 37.4088 95.0049C38.7593 100.61 40.8981 106.002 43.7635 111.025V111.773C43.7861 111.737 43.8032 111.699 43.8142 111.658C43.8221 111.619 43.8221 111.578 43.8142 111.539C43.8231 111.489 43.8231 111.438 43.8142 111.389L43.7483 111.269C43.7265 111.239 43.6989 111.214 43.6672 111.195C43.6672 111.195 43.6267 111.195 43.6672 111.195C43.8346 111.222 44.0045 111.232 44.174 111.224C44.397 111.2 44.6098 111.195 44.8378 111.155L45.5321 111.045C46.4645 110.851 47.4071 110.616 48.3446 110.342C50.2196 109.804 52.0794 109.166 53.9189 108.508C57.6334 107.147 61.3936 105.901 65.1487 104.65C68.9037 103.399 72.6841 102.207 76.4848 101.081C78.3868 100.513 80.3007 99.9794 82.2264 99.481C83.1892 99.2367 84.1571 98.9825 85.1402 98.7931L86.625 98.499L88.1453 98.3046L87.9071 98.3694C88.1253 98.2762 88.3529 98.206 88.5862 98.1601C88.7869 98.1187 88.99 98.0888 89.1943 98.0703C89.3925 98.0448 89.5923 98.0315 89.7922 98.0305C89.9881 98.0205 90.1843 98.0205 90.3801 98.0305C91.1483 98.0469 91.9141 98.1219 92.6706 98.2548C94.1532 98.5203 95.6134 98.8952 97.0389 99.3763C97.7432 99.6205 98.4476 99.8747 99.1368 100.139C99.826 100.403 100.52 100.687 101.194 100.996C101.868 101.305 102.552 101.594 103.221 101.918L105.208 102.915L105.111 102.88C106.41 103.306 107.75 103.6 109.11 103.758C109.368 103.786 109.628 103.77 109.88 103.708C109.905 103.708 109.88 103.708 109.88 103.708C109.847 103.743 109.828 103.789 109.829 103.837C109.809 103.77 109.778 103.706 109.738 103.648C109.364 103.13 108.921 102.664 108.421 102.262C107.407 101.375 106.242 100.558 105.096 99.7701C103.951 98.9825 102.765 98.2049 101.584 97.4473L101.64 97.4772C97.9003 95.6628 94.0997 93.9332 90.2534 92.3531C88.3277 91.5705 86.3868 90.8229 84.4206 90.1699L82.9459 89.7063L81.4561 89.3076L80.7112 89.153C80.4923 89.0956 80.2683 89.0588 80.0422 89.0434H79.652C79.5063 89.0409 79.3609 89.0309 79.2162 89.0135L78.7804 88.9786L78.3497 88.8739C77.7784 88.73 77.2378 88.4869 76.7534 88.1561C76.0478 87.6374 75.4903 86.9481 75.1352 86.1552C74.7801 85.3622 74.6392 84.4925 74.7264 83.6302C74.7836 83.0574 74.9377 82.4981 75.1824 81.9753C75.3152 81.7189 75.4642 81.4709 75.6284 81.2327C75.7956 81.0183 75.9932 80.7591 76.1351 80.5847C76.8045 79.8453 77.3797 79.0285 77.848 78.1522C78.316 77.2831 78.6572 76.3535 78.8615 75.3908C79.0429 74.4229 79.0907 73.4354 79.0034 72.4549C78.9083 71.4666 78.7009 70.4918 78.3851 69.5489C78.2027 69.0804 78.0608 68.6019 77.8378 68.1483L77.5287 67.4604C77.4172 67.2411 77.3057 67.0268 77.1791 66.8124C76.1659 65.1108 74.624 63.7742 72.7804 62.9993C71.8538 62.6149 70.8759 62.3631 69.8767 62.2516C68.8827 62.0859 67.8718 62.0407 66.8666 62.117C65.8995 62.2078 64.9719 62.5388 64.1706 63.079C63.3795 63.6617 62.7029 64.3813 62.174 65.2024C61.1106 66.9276 60.3098 68.7967 59.7973 70.7502C59.6503 71.2487 59.5541 71.7471 59.4324 72.2456L59.2551 72.9833C59.2079 73.2164 59.1824 73.4534 59.1791 73.6911C59.1306 74.693 59.2038 75.6969 59.397 76.6818C59.6009 78.1499 60.2295 79.5295 61.2079 80.6562C62.1863 81.7829 63.4732 82.6093 64.9156 83.037C65.3936 83.1925 65.8832 83.3108 66.3801 83.3909C66.6182 83.4408 66.8868 83.4757 67.1858 83.5504C67.4608 83.6224 67.7301 83.714 67.9916 83.8246C68.5203 84.0436 69.0057 84.3523 69.4257 84.7368C69.633 84.9321 69.8197 85.1476 69.9831 85.3798C70.1381 85.6062 70.2802 85.8408 70.4088 86.0826C70.6109 86.4945 70.9013 86.8584 71.2601 87.1493C71.6353 87.397 72.0709 87.5416 72.522 87.568H72.4662C72.8773 87.5836 73.2793 87.6909 73.6419 87.882C74.014 88.0745 74.3232 88.3665 74.5338 88.7244C74.8817 89.4158 74.9868 90.201 74.8328 90.9574C74.7517 91.3064 74.6858 91.6603 74.5743 91.9942C74.4628 92.3282 74.3514 92.6621 74.2095 92.9911L73.7737 93.9382L73.2669 94.8454C73.0997 95.1594 72.9324 95.4186 72.8108 95.7077C72.6892 95.9968 72.5828 96.3058 72.4662 96.6298C72.2382 97.2678 72 97.9059 71.7618 98.5389C71.2753 99.805 70.7686 101.063 70.2416 102.312C69.1824 104.804 68.0169 107.262 66.7247 109.654C65.4478 112.055 63.9787 114.352 62.3311 116.523C61.9054 117.061 61.4595 117.585 61.0084 118.103C60.5574 118.622 59.9949 119.1 59.4882 119.529C58.4747 120.421 57.3953 121.283 56.326 122.131C54.1824 123.825 51.978 125.45 49.6824 126.946C47.4017 128.479 44.9747 129.792 42.4358 130.863C41.1417 131.406 39.7774 131.77 38.3818 131.945C37.6735 132.028 36.9568 132.011 36.2534 131.895C35.5387 131.756 34.8628 131.467 34.272 131.048L34.2365 131.023L34.2112 130.988C32.6303 128.698 31.2632 126.273 30.1267 123.741C29.5533 122.475 29.0724 121.171 28.6875 119.838C28.2872 118.5 28.0524 117.119 27.9882 115.726C27.9628 115.023 28.0087 114.32 28.125 113.627C28.1487 113.459 28.1843 113.292 28.2314 113.129C28.277 112.954 28.3024 112.795 28.3682 112.63C28.5032 112.244 28.7497 111.904 29.0777 111.653C29.1538 111.594 29.2333 111.539 29.3159 111.489L29.5135 111.354C29.6372 111.256 29.754 111.149 29.8632 111.035C30.0719 110.794 30.2334 110.517 30.3395 110.218C30.5453 109.607 30.5237 108.945 30.2787 108.348C30.1672 108.064 29.9645 107.775 29.8074 107.451C29.3101 106.514 28.9971 105.492 28.8851 104.441C28.7714 103.025 29.0591 101.607 29.7162 100.343C30.5878 98.3495 31.8345 96.6149 32.9037 94.7856C33.1723 94.327 33.4105 93.8684 33.6689 93.3999C33.9146 92.9458 34.0969 92.4613 34.2112 91.9593C34.268 91.742 34.2428 91.5118 34.1402 91.3113C34.0678 91.2317 33.9786 91.1685 33.8788 91.1263C33.779 91.0841 33.6711 91.0639 33.5625 91.0671C33.4359 91.0597 33.309 91.0597 33.1824 91.0671C33.0579 91.072 32.9349 91.0955 32.8176 91.1369C32.6953 91.1682 32.5778 91.2151 32.4679 91.2764C32.3514 91.3363 32.2348 91.3811 32.1182 91.4509C30.297 92.5823 28.541 93.812 26.8581 95.1345L21.7399 99.0274C18.3345 101.624 14.9189 104.216 11.397 106.669C9.63345 107.89 7.84966 109.086 5.98986 110.158C5.06049 110.704 4.10314 111.203 3.12162 111.653C2.15196 112.14 1.08757 112.417 0 112.466L0 112.316Z" fill="#494949"/>
<path d="M38.0372 31.6617C37.5762 33.338 36.9779 34.975 36.2484 36.5564C35.8869 37.3506 35.4984 38.1316 35.0828 38.8992C34.7078 39.6718 34.3227 40.4294 33.973 41.2369C33.6108 42.0357 33.2013 42.813 32.7467 43.5647C32.3038 44.3495 31.73 45.0556 31.049 45.6532C30.6738 45.9922 30.1938 46.1976 29.6859 46.2364C29.407 46.2469 29.1303 46.1832 28.8852 46.052C28.7677 45.9888 28.6573 45.9136 28.5558 45.8276C28.4978 45.7801 28.4329 45.7415 28.3632 45.713C28.2243 45.6584 28.0718 45.6468 27.926 45.6798C27.7802 45.7127 27.6481 45.7887 27.5474 45.8974C27.5368 45.9177 27.5231 45.9362 27.5068 45.9523L27.5474 46.0171C27.6636 46.1402 27.803 46.2401 27.9578 46.3111C28.1352 46.4065 28.3199 46.4882 28.5102 46.5554L28.8041 46.6551C28.8599 46.6551 28.8446 46.6551 28.87 46.6551L29.4426 46.3809L30.0558 46.1068C30.8867 45.7437 31.7548 45.4696 32.6453 45.2893C33.1151 45.1938 33.5952 45.1569 34.0744 45.1797C34.5942 45.2265 35.0915 45.4108 35.5136 45.713C35.9352 46.0206 36.2701 46.4289 36.4865 46.8993C36.5925 47.1228 36.674 47.3567 36.7298 47.5971C36.7805 47.8115 36.8362 48.0258 36.8818 48.2451C37.1083 49.1358 37.1955 50.0552 37.1403 50.9717C37.1183 51.2313 37.0586 51.4864 36.9629 51.7293C36.8534 52.0285 36.6558 52.2888 36.3953 52.477C36.251 52.5762 36.0896 52.6488 35.919 52.6913C35.7357 52.7338 35.5448 52.7338 35.3615 52.6913C35.0264 52.6266 34.7241 52.4507 34.5051 52.1929C34.4475 52.1257 34.3982 52.0521 34.3582 51.9736C34.3176 51.8988 34.2771 51.7841 34.2619 51.7542L34.1504 51.4651C34.0744 51.2707 33.9933 51.0813 33.9021 50.9019C33.7421 50.5472 33.5396 50.2125 33.299 49.905C33.1199 49.6604 32.8603 49.4843 32.5642 49.4065C32.4358 49.383 32.3033 49.3916 32.1791 49.4315C32.0999 49.4555 32.0221 49.4838 31.946 49.5162L31.799 49.581L31.7078 49.6209L31.5609 49.6757H31.6166C31.2523 49.8065 30.9105 49.9914 30.6031 50.224C30.5676 50.224 30.5727 50.2639 30.5626 50.2738C30.5626 50.2738 30.5626 50.2389 30.5626 50.209C30.5626 50.1791 30.5626 50.1692 30.5626 50.1542C30.6471 50.2285 30.7407 50.2921 30.8413 50.3436C31.0191 50.4376 31.2058 50.5144 31.3987 50.5729C31.5469 50.6312 31.7017 50.6714 31.8599 50.6925C31.8599 50.6925 31.9055 50.6925 31.9561 50.6178C31.9974 50.5577 32.0171 50.4857 32.0119 50.4134C32.0119 50.4134 32.0626 50.4533 32.0119 50.4134L31.8345 50.3287L31.7484 50.2838H31.6926C31.6233 50.2586 31.5522 50.2386 31.4798 50.224C31.1766 50.1733 30.8652 50.2374 30.6082 50.4034C30.4768 50.4832 30.3617 50.5863 30.2686 50.7075C30.1927 50.8448 30.1332 50.9903 30.0913 51.1411C30.0558 51.2508 30.0203 51.3754 29.9646 51.515C29.8905 51.7171 29.7749 51.902 29.6251 52.0583C29.486 52.1962 29.3105 52.2929 29.1183 52.3374C29.0207 52.3495 28.922 52.3495 28.8244 52.3374H28.6369C28.4381 52.2908 28.2494 52.2098 28.0794 52.0982C27.8152 51.9291 27.5792 51.7205 27.3801 51.4801C27.1788 51.2518 27.0084 50.9988 26.8734 50.7274C26.8284 50.633 26.7928 50.5345 26.7669 50.4333L26.7264 50.2639L26.6403 49.9498C26.5869 49.7655 26.5192 49.5855 26.4376 49.4115C26.3793 49.2813 26.2968 49.163 26.1943 49.0626C26.0755 48.9598 25.9424 48.8742 25.799 48.8084C25.6694 48.7478 25.5309 48.7074 25.3886 48.6888C25.3379 48.6888 25.3227 48.6888 25.348 48.6888C25.4215 48.6629 25.4828 48.6115 25.5203 48.5442C25.5434 48.5105 25.5541 48.4701 25.5507 48.4296C25.5486 48.4428 25.5486 48.4562 25.5507 48.4694C25.6307 48.5993 25.7298 48.7169 25.8446 48.8184C26.1558 49.0949 26.4955 49.3388 26.8582 49.5461L27.1369 49.7056L27.1977 49.7355C27.149 49.7147 27.098 49.6996 27.0457 49.6906C26.9393 49.6763 26.8311 49.6955 26.7365 49.7455C26.646 49.7959 26.5735 49.8724 26.5288 49.9648C26.4852 50.0565 26.4711 50.1591 26.4882 50.2589C26.4882 50.1193 26.4477 49.9897 26.4325 49.8601C26.4168 49.6759 26.3897 49.4928 26.3514 49.3118C26.3007 49.1922 26.3514 49.242 26.1082 48.9629C25.7332 48.5364 25.4479 48.0411 25.2687 47.5055C25.0895 46.97 25.02 46.4048 25.0642 45.8426C25.1229 45.2829 25.2952 44.7405 25.571 44.2476C25.8355 43.7734 26.178 43.3456 26.5845 42.9815L27.6588 42.0594C28.0186 41.7603 28.3379 41.4313 28.6724 41.1173C29.0068 40.8033 29.3159 40.4593 29.6403 40.1204C29.9646 39.7814 30.2737 39.3777 30.5676 39.0288C31.1391 38.322 31.6477 37.5682 32.0879 36.7758C32.52 35.9811 32.8357 35.1303 33.0254 34.2486C33.2194 33.3644 33.2572 32.4538 33.1369 31.557C33.0421 31.1223 32.8706 30.7072 32.6301 30.3308C32.3918 29.9328 32.1189 29.5558 31.8142 29.2043L31.9257 29.0996C32.6742 29.735 33.2447 30.5484 33.5828 31.4623C33.8029 32.4134 33.8543 33.3949 33.7349 34.3633C33.6051 35.3276 33.3372 36.269 32.9392 37.1596C32.5244 38.032 32.0308 38.8661 31.4646 39.6518C30.316 41.1897 29.0064 42.6047 27.5575 43.8737C27.2637 44.1434 27.0187 44.4603 26.8328 44.8108C26.653 45.1425 26.546 45.5076 26.5186 45.8825C26.4981 46.6392 26.778 47.374 27.299 47.9311L27.3953 48.0458L27.4663 48.1355C27.4991 48.1718 27.5296 48.2101 27.5575 48.2501C27.6682 48.4028 27.7553 48.5708 27.8159 48.7486C27.8918 49.021 27.9427 49.2996 27.968 49.581C27.9771 49.6798 27.9923 49.778 28.0136 49.8751C28.054 50.0914 28.0239 50.3147 27.9274 50.5131C27.8335 50.7121 27.6772 50.8763 27.4815 50.9816C27.2801 51.0886 27.0496 51.1304 26.8227 51.1013C26.7129 51.0863 26.6065 51.0525 26.5085 51.0016L26.4071 50.9517L26.0626 50.7623C25.5981 50.501 25.1632 50.1919 24.7653 49.8402C24.5269 49.6281 24.3235 49.3809 24.1622 49.1075C24.112 49.0188 24.0712 48.9253 24.0406 48.8283C23.9977 48.7179 23.9704 48.6021 23.9595 48.4844C23.9336 48.2119 23.99 47.9379 24.1217 47.6968C24.2834 47.4371 24.5355 47.244 24.8311 47.1535C25.0462 47.0906 25.2715 47.0686 25.495 47.0887C25.8268 47.1229 26.1495 47.2158 26.4477 47.3629C26.7344 47.5023 26.999 47.682 27.2332 47.8962C27.4678 48.1267 27.6584 48.3968 27.7957 48.6937C27.9132 48.9472 28.0065 49.2108 28.0744 49.4813L28.1707 49.8452L28.2112 50.0196C28.2112 50.0196 28.2112 50.0196 28.2112 50.0545C28.3542 50.3512 28.5659 50.6107 28.8294 50.8122C28.8565 50.8314 28.8854 50.8481 28.9156 50.862C28.877 50.8553 28.8376 50.8553 28.799 50.862C28.7181 50.8756 28.6437 50.914 28.5862 50.9717C28.5305 51.0365 28.5862 50.9717 28.5862 50.9168L28.6926 50.6228C28.7874 50.3237 28.9293 50.0411 29.1132 49.7854C29.3137 49.5355 29.5594 49.3243 29.8379 49.1623C30.3982 48.8283 31.0666 48.716 31.7078 48.8483C31.8681 48.8797 32.0244 48.9282 32.174 48.9928L32.2855 49.0377L32.3565 49.0776L32.4984 49.1523L32.62 49.2121L32.772 49.3019C32.8736 49.3752 32.9641 49.4625 33.0406 49.5611C33.1871 49.7474 33.2783 49.9699 33.3041 50.2041C33.3538 50.6087 33.2411 51.0164 32.9899 51.3405C32.864 51.515 32.6988 51.6585 32.5071 51.7597C32.3155 51.8608 32.1026 51.917 31.8852 51.9237C31.699 51.9287 31.5135 51.9 31.3379 51.839C31.2112 51.8041 31.0896 51.7592 30.9629 51.7193C30.7053 51.6273 30.4561 51.5139 30.218 51.3804C29.8924 51.2199 29.6239 50.9662 29.4477 50.6527C29.3857 50.5315 29.3495 50.3992 29.3413 50.2639C29.3245 50.1223 29.3419 49.9789 29.3919 49.8452C29.412 49.7849 29.4375 49.7266 29.468 49.6707L29.5541 49.5411C29.6092 49.4623 29.6739 49.3903 29.7467 49.3268C30.1821 48.9828 30.6763 48.7178 31.2061 48.5442H31.2669H31.3227L31.4798 48.4794C31.6062 48.4248 31.7366 48.3799 31.87 48.3448C32.1688 48.2623 32.4835 48.252 32.7872 48.3149C33.3489 48.4544 33.8425 48.7845 34.1808 49.247C34.4692 49.6299 34.7107 50.0448 34.9004 50.4832C34.9983 50.6894 35.0845 50.9007 35.1588 51.1162L35.2805 51.4352C35.2885 51.4625 35.2986 51.4892 35.3109 51.515C35.3172 51.5336 35.3276 51.5506 35.3413 51.5648C35.4026 51.6425 35.488 51.6985 35.5845 51.7243C35.6162 51.7314 35.6491 51.7314 35.6808 51.7243C35.7234 51.713 35.7643 51.6962 35.8024 51.6745C36.0094 51.4664 36.1273 51.188 36.1318 50.8969C36.2062 50.0733 36.155 49.2433 35.9798 48.4345C35.9443 48.2252 35.8886 48.0208 35.848 47.8165C35.8128 47.6331 35.7567 47.4542 35.6808 47.2831C35.5188 46.9516 35.2727 46.6666 34.9663 46.4557C34.6713 46.2359 34.3208 46.0997 33.9528 46.0619C33.5542 46.0411 33.1545 46.0662 32.7619 46.1367C31.94 46.2945 31.1368 46.535 30.3649 46.8545L29.772 47.1087L29.1487 47.3878C28.9618 47.4528 28.7579 47.4528 28.571 47.3878L28.2416 47.2682C28.023 47.179 27.8098 47.0775 27.6031 46.9641C27.3642 46.8396 27.1524 46.6703 26.9798 46.4657C26.8597 46.3154 26.7969 46.1284 26.8024 45.9373C26.8108 45.8352 26.8383 45.7355 26.8835 45.6432C26.9291 45.5685 26.9798 45.5037 27.0305 45.4339C27.2314 45.2248 27.4931 45.082 27.7798 45.0249C28.0664 44.9678 28.364 44.9992 28.6318 45.1149C28.7663 45.1716 28.8898 45.2508 28.9967 45.3491C29.0604 45.4061 29.13 45.4562 29.2044 45.4987C29.3464 45.5828 29.5101 45.6244 29.6757 45.6183C30.0518 45.5947 30.4088 45.4472 30.6892 45.1996C31.3347 44.6576 31.8843 44.0142 32.3159 43.2955C32.7791 42.57 33.2003 41.8195 33.5778 41.0475C33.9376 40.2749 34.3582 39.4973 34.7636 38.7197C35.169 37.9421 35.6048 37.2244 35.9798 36.4318C36.7487 34.8817 37.3893 33.2732 37.8953 31.6218L38.0372 31.6617Z" fill="#494949"/>
<path d="M25.201 32.3993C24.9958 31.7256 24.8267 31.0418 24.6942 30.3507C24.5478 29.651 24.458 28.941 24.4256 28.2273C24.4069 27.8509 24.4255 27.4736 24.4814 27.1008C24.5352 26.6417 24.7377 26.2118 25.0591 25.8746C25.2816 25.6693 25.5664 25.5414 25.8699 25.5107C26.1247 25.4937 26.3806 25.5225 26.625 25.5955C26.9797 25.6902 27.3344 25.7998 27.6841 25.9244C28.3929 26.1558 29.0729 26.4651 29.7111 26.8466C30.9859 27.6438 32.0394 28.74 32.777 30.0367C32.957 30.3566 33.1112 30.6899 33.2382 31.0336C33.3028 31.2063 33.357 31.3828 33.4003 31.5619C33.4254 31.6505 33.4457 31.7404 33.4611 31.8311V31.9707V32.1202C33.4636 32.1317 33.4636 32.1436 33.4611 32.1551C33.4639 32.1649 33.4639 32.1752 33.4611 32.185C33.4493 32.1907 33.4363 32.1937 33.4231 32.1937C33.4099 32.1937 33.3969 32.1907 33.3851 32.185L33.4206 32.0404C33.411 32.0335 33.3995 32.0298 33.3876 32.0298C33.3758 32.0298 33.3643 32.0335 33.3547 32.0404L33.3192 31.9856L33.2432 31.8859L33.0811 31.6815L32.7466 31.2878C32.5135 31.0336 32.2804 30.7893 32.0371 30.5501C31.5576 30.0804 31.0499 29.6393 30.5169 29.2292C30.0101 28.8254 29.4527 28.4516 28.9003 28.0977C28.3491 27.7308 27.7754 27.3979 27.1824 27.1008C26.8784 26.9562 26.5743 26.8216 26.255 26.702C25.9358 26.5824 25.9206 26.5924 25.8192 26.6422C25.6423 26.8083 25.5219 27.0242 25.4746 27.2603C25.3832 27.5678 25.3221 27.8833 25.2922 28.2024C25.1628 29.5993 25.1781 31.0055 25.3378 32.3993H25.201Z" fill="#494949"/>
</svg>
