<svg width="23" height="18" viewBox="0 0 23 18" fill="none" xmlns="http://www.w3.org/2000/svg">
<path d="M8.96795 7.48416C8.96795 5.36603 9.96233 3.48635 11.4915 2.27139C10.3268 1.3503 8.8849 0.850254 7.40006 0.852547C6.52902 0.851841 5.66638 1.0229 4.86151 1.35592C4.05664 1.68895 3.32534 2.17741 2.70944 2.79336C2.09355 3.40931 1.60515 4.14066 1.27219 4.94556C0.939238 5.75046 0.768262 6.61312 0.769046 7.48416C0.768262 8.35527 0.93923 9.21797 1.27217 10.0229C1.60511 10.8279 2.09349 11.5593 2.70937 12.1754C3.32525 12.7914 4.05654 13.28 4.86142 13.6132C5.6663 13.9463 6.52896 14.1175 7.40006 14.117C8.94887 14.117 10.3689 13.5828 11.4915 12.6969C10.7032 12.0762 10.0663 11.2844 9.62916 10.3813C9.19197 9.47819 8.96587 8.48751 8.96795 7.48416Z" fill="#E31021"/>
<path d="M22.2308 7.48416C22.2315 8.35534 22.0605 9.21811 21.7274 10.0231C21.3944 10.8281 20.9059 11.5596 20.2899 12.1756C19.6739 12.7917 18.9425 13.2802 18.1375 13.6133C17.3326 13.9465 16.4698 14.1176 15.5986 14.117C14.0516 14.117 12.6298 13.5828 11.5078 12.6969C12.2979 12.0778 12.936 11.2863 13.3735 10.3828C13.8109 9.47939 14.0362 8.48793 14.0319 7.48416C14.0319 5.36603 13.0364 3.48635 11.5078 2.27139C12.6724 1.3506 14.114 0.850574 15.5986 0.852545C19.265 0.852545 22.2308 3.83749 22.2308 7.48416Z" fill="#F49D1E"/>
<path d="M11.5079 2.27148H11.4918C9.96206 3.48704 8.96828 5.36612 8.96828 7.48425C8.96619 8.4876 9.19229 9.47828 9.62948 10.3814C10.0667 11.2845 10.7035 12.0763 11.4918 12.697H11.5079C12.298 12.0779 12.9361 11.2864 13.3736 10.3829C13.811 9.47948 14.0362 8.48802 14.032 7.48425C14.032 5.36612 13.0364 3.48645 11.5079 2.27148Z" fill="#EA611C"/>
<path fill-rule="evenodd" clip-rule="evenodd" d="M21.1995 16.5838V15.001H20.8102V15.9232C20.682 15.7563 20.5014 15.6651 20.2581 15.6651C19.7615 15.6651 19.3758 16.0526 19.3758 16.5844C19.3758 17.1209 19.761 17.506 20.2581 17.506C20.5175 17.506 20.7011 17.4142 20.8102 17.2509V17.4702H21.2001V16.5838H21.1995ZM9.77716 15.7009H10.4019V16.0526H9.77776V16.8455C9.77776 17.0279 9.8493 17.1376 10.0347 17.1376C10.1259 17.1376 10.2553 17.1209 10.3691 17.0476L10.4776 17.3784C10.3303 17.4595 10.1653 17.5033 9.99714 17.506C9.55599 17.506 9.39264 17.2676 9.39264 16.8622V16.0526H9.04032V15.7009H9.39264V15.1691H9.77776V15.7009H9.77716ZM4.67587 16.365V17.4702H4.2526V16.4937C4.2526 16.1986 4.12264 16.0311 3.86331 16.0311C3.62306 16.0311 3.44005 16.179 3.44005 16.4937V17.4696H3.05135V16.4937C3.05135 16.1986 2.92318 16.0311 2.66624 16.0311C2.40751 16.0311 2.24118 16.179 2.24118 16.4937V17.4696H1.85547V15.7003H2.24178V15.9226C2.39082 15.7199 2.57562 15.6645 2.75745 15.6645C3.03407 15.6645 3.21947 15.7748 3.34764 15.9775C3.51337 15.7384 3.75124 15.6645 3.97599 15.6645C4.41714 15.6645 4.67587 15.9411 4.67587 16.3644V16.365ZM13.6838 15.6651C13.5906 15.6624 13.4985 15.6849 13.4171 15.7304C13.3358 15.7758 13.2682 15.8425 13.2217 15.9232V15.7009H12.836V17.4702H13.2217V16.4759C13.2217 16.1796 13.3505 16.015 13.589 16.015C13.6647 16.015 13.7553 16.0311 13.8316 16.0514L13.9407 15.6806C13.8656 15.6645 13.7559 15.6645 13.6838 15.6645V15.6651ZM8.01016 15.6651C8.28678 15.6651 8.54372 15.7211 8.72614 15.8487L8.56458 16.1611C8.45132 16.1062 8.23074 16.015 8.01135 16.015C7.80687 16.015 7.67751 16.0878 7.67751 16.2177C7.67751 16.3274 7.80687 16.3644 7.97201 16.3817L8.15741 16.4007C8.52464 16.4556 8.7631 16.6225 8.7631 16.9343C8.7631 17.2664 8.46801 17.5066 7.95353 17.5066C7.67632 17.5066 7.40089 17.4327 7.1988 17.2848L7.3836 16.9909C7.51118 17.0827 7.71566 17.1769 7.97201 17.1769C8.23014 17.1769 8.37739 17.0827 8.37739 16.954C8.37739 16.861 8.2683 16.8049 8.06382 16.771L7.8808 16.7525C7.49151 16.6964 7.27272 16.5295 7.27272 16.2338C7.27272 15.8845 7.56722 15.6645 8.01016 15.6645V15.6651ZM19.005 15.6651C18.9126 15.6627 18.8212 15.6855 18.7407 15.7309C18.6602 15.7764 18.5935 15.8428 18.5478 15.9232V15.7009H18.1591V17.4702H18.5478V16.4759C18.5478 16.1796 18.676 16.015 18.9144 16.015C18.9883 16.015 19.0813 16.0311 19.1517 16.0514L19.265 15.6806C19.1916 15.6645 19.0813 15.6645 19.005 15.6645V15.6651ZM15.0078 17.506C14.4379 17.506 14.0689 17.1209 14.0689 16.5844C14.0689 16.052 14.4379 15.6651 15.0078 15.6639C15.2665 15.6639 15.4514 15.7205 15.638 15.8678L15.4514 16.1796C15.3203 16.0742 15.1575 16.0162 14.9893 16.015C14.6793 16.0299 14.4558 16.2535 14.4558 16.5844C14.4558 16.9343 14.6787 17.1567 14.9893 17.1567C15.1575 17.1567 15.3047 17.1024 15.4514 16.9909L15.638 17.3039C15.4514 17.4518 15.2665 17.5066 15.0078 17.5066V17.506ZM17.6422 16.5844V15.7009H17.2565V15.9232C17.1283 15.7563 16.9423 15.6651 16.7033 15.6651C16.2085 15.6651 15.818 16.0526 15.818 16.5844C15.818 17.1209 16.2079 17.506 16.7033 17.506C16.9614 17.506 17.148 17.4142 17.2565 17.2509V17.4702H17.6422V16.5838V16.5844ZM16.7599 16.0156C16.4279 16.0156 16.2234 16.2738 16.2234 16.5844C16.2234 16.9003 16.4267 17.137 16.7599 17.1567C17.0705 17.1567 17.2947 16.9003 17.2947 16.5844C17.2947 16.2535 17.0711 16.0156 16.7605 16.0156H16.7599ZM11.602 15.6651C11.0851 15.6651 10.7167 16.0317 10.7167 16.5844C10.7167 17.1376 11.0851 17.506 11.6211 17.506C11.8774 17.506 12.135 17.4333 12.3365 17.2676L12.154 16.9915C12.0061 17.1067 11.8252 17.1717 11.6378 17.1769C11.3963 17.1769 11.1585 17.0637 11.1024 16.7525H12.411V16.6046C12.4312 16.0317 12.0986 15.6651 11.602 15.6651ZM12.0443 16.4216C12.0068 16.145 11.8399 15.9971 11.602 15.9971C11.3266 15.9971 11.1584 16.1796 11.1221 16.4216H12.0443ZM20.3136 16.0156C19.9815 16.0156 19.7812 16.2738 19.7812 16.5844C19.7812 16.9003 19.9809 17.137 20.3136 17.1567C20.6295 17.1567 20.8489 16.9003 20.8489 16.5844C20.8489 16.2535 20.6295 16.0156 20.3136 16.0156ZM6.84706 16.5844V15.7009H6.46314V15.9232C6.33437 15.7563 6.14837 15.6651 5.90991 15.6651C5.40914 15.6651 5.02462 16.0526 5.02462 16.5844C5.02462 17.1209 5.40974 17.506 5.90991 17.506C6.16626 17.506 6.35226 17.4142 6.46314 17.2509V17.4702H6.84706V16.5838V16.5844ZM5.94568 16.0156C5.61422 16.0156 5.40914 16.2738 5.40914 16.5844C5.40914 16.9003 5.61422 17.137 5.94568 17.1567C6.25687 17.1567 6.48162 16.9003 6.48162 16.5844C6.48162 16.2535 6.25747 16.0156 5.94508 16.0156H5.94568Z" fill="black"/>
</svg>
