<svg width="16" height="16" viewBox="0 0 16 16" fill="none" xmlns="http://www.w3.org/2000/svg">
<path d="M7.7 1.5C4.35 1.5 1.5 4.5 1.5 8C1.5 11.5 4.35 14.5 7.65 14.5H8.55C11.1 14.5 13.45 12.8 14.45 10.5H13.4C12.514 12.1325 10.844 13.329 9 13.4825V12.5995C9 11.9455 9.279 11.3605 9.784 11.0105L9.799 11.001L9.9385 10.8895C10.19 10.9595 10.461 11 10.75 11C11.625 11 12.345 10.654 12.8115 10.129C13.278 9.604 13.5 8.924 13.5 8.25C13.5 7.5765 13.278 6.896 12.8115 6.371C12.4185 5.929 11.8445 5.617 11.1515 5.5285C11.047 5.1085 10.86 4.7065 10.5615 4.371C10.095 3.846 9.375 3.5 8.5 3.5C7.625 3.5 6.905 3.846 6.4385 4.371C6.14 4.7065 5.953 5.108 5.8485 5.5285C5.1555 5.617 4.5815 5.929 4.1885 6.371C3.722 6.896 3.5 7.576 3.5 8.25C3.5 8.9235 3.722 9.604 4.1885 10.129C4.655 10.654 5.375 11 6.25 11C6.539 11 6.81 10.959 7.0615 10.89L7.2015 11.001L7.216 11.011C7.721 11.361 8 11.9455 8 12.5995V13.5H7.7C4.85 13.5 2.5 11 2.5 8C2.5 5 4.85 2.5 7.65 2.5H8.55C10.55 2.5 12.45 3.75 13.35 5.5H14.5C13.5 3.2 11.15 1.5 8.6 1.5H7.7ZM8.5 4.5C9.125 4.5 9.53 4.7165 9.8135 5.035C9.948 5.1865 10.0505 5.367 10.124 5.5625C9.5305 5.6845 9.0385 5.9775 8.6885 6.371C8.62089 6.44836 8.55795 6.52967 8.5 6.6145C8.44205 6.52967 8.37911 6.44836 8.3115 6.371C7.9615 5.9775 7.4695 5.6845 6.876 5.5625C6.9495 5.3675 7.052 5.1865 7.1865 5.035C7.47 4.7165 7.875 4.5 8.5 4.5ZM5.775 6.5525C5.8325 7.124 6.042 7.6825 6.4385 8.129C6.7885 8.5225 7.2805 8.8155 7.874 8.9375C7.8005 9.1325 7.698 9.3135 7.5635 9.465C7.28 9.7835 6.875 10 6.25 10C5.625 10 5.22 9.7835 4.9365 9.465C4.653 9.146 4.5 8.7015 4.5 8.25C4.5 7.7985 4.653 7.354 4.9365 7.035C5.14 6.8065 5.41 6.634 5.7755 6.5525H5.775ZM11.225 6.5525C11.59 6.634 11.86 6.8065 12.0635 7.035C12.347 7.354 12.5 7.7985 12.5 8.25C12.5 8.7015 12.347 9.146 12.0635 9.465C11.78 9.7835 11.375 10 10.75 10C10.125 10 9.72 9.7835 9.4365 9.465C9.30155 9.30968 9.1963 9.13087 9.126 8.9375C9.7195 8.8155 10.2115 8.5225 10.5615 8.129C10.958 7.683 11.1675 7.124 11.2245 6.5525H11.225ZM6.7775 6.5695C7.114 6.6555 7.3705 6.818 7.5635 7.035C7.7795 7.278 7.9185 7.5945 7.9725 7.9305C7.636 7.8445 7.3795 7.682 7.1865 7.465C6.9705 7.222 6.8315 6.9055 6.7775 6.5695ZM10.2225 6.5695C10.168 6.9055 10.0295 7.222 9.8135 7.4645C9.6205 7.682 9.364 7.8445 9.0275 7.9305C9.082 7.5945 9.2205 7.278 9.4365 7.0355C9.6295 6.818 9.886 6.6555 10.2225 6.5695ZM8.5 9.885C8.5585 9.969 8.62 10.051 8.6885 10.1285C8.774 10.2245 8.8705 10.3125 8.9725 10.396C8.7865 10.583 8.639 10.801 8.5 11.023C8.361 10.801 8.2135 10.583 8.0275 10.396C8.1295 10.3125 8.226 10.2245 8.3115 10.1285C8.37911 10.0511 8.44205 9.96983 8.5 9.885Z" fill="#494949"/>
</svg>
