<svg width="30" height="27" viewBox="0 0 30 27" fill="none" xmlns="http://www.w3.org/2000/svg">
<path d="M21.6395 0C18.7814 0 16.3391 2.03727 14.9973 3.44182C13.6555 2.03727 11.2186 0 8.36182 0C3.43773 0 0 3.43227 0 8.34545C0 13.7591 4.26955 17.2582 8.4 20.6427C10.35 22.2423 12.3682 23.895 13.9159 25.7277C14.1764 26.0345 14.5582 26.2118 14.9591 26.2118H15.0382C15.4405 26.2118 15.8209 26.0332 16.08 25.7277C17.6305 23.895 19.6473 22.2409 21.5986 20.6427C25.7277 17.2595 30 13.7605 30 8.34545C30 3.43227 26.5623 0 21.6395 0Z" fill="#FE8C4A"/>
</svg>
