<svg width="28" height="25" viewBox="0 0 28 25" fill="none" xmlns="http://www.w3.org/2000/svg">
<path d="M20.1969 0C17.5293 0 15.2498 1.9102 13.9975 3.22714C12.7451 1.9102 10.4707 0 7.80436 0C3.20855 0 0 3.21819 0 7.82493C0 12.9009 3.98491 16.1818 7.84 19.3552C9.66 20.855 11.5436 22.4046 12.9882 24.123C13.2313 24.4107 13.5876 24.5769 13.9618 24.5769H14.0356C14.4111 24.5769 14.7662 24.4094 15.008 24.123C16.4551 22.4046 18.3375 20.8537 20.1587 19.3552C24.0125 16.183 28 12.9022 28 7.82493C28 3.21819 24.7915 0 20.1969 0Z" fill="#494949"/>
</svg>
