<svg width="35" height="31" viewBox="0 0 35 31" fill="none" xmlns="http://www.w3.org/2000/svg">
<path d="M25.1098 0.900757C21.8705 0.900757 19.1026 3.20967 17.5819 4.80148C16.0611 3.20967 13.2994 0.900757 10.0617 0.900757C4.48105 0.900757 0.584961 4.79067 0.584961 10.3589C0.584961 16.4944 5.42378 20.46 10.105 24.2958C12.315 26.1087 14.6022 27.9818 16.3563 30.0588C16.6515 30.4066 17.0842 30.6075 17.5386 30.6075H17.6282C18.0841 30.6075 18.5153 30.405 18.809 30.0588C20.5661 27.9818 22.8519 26.1071 25.0634 24.2958C29.7431 20.4616 34.585 16.4959 34.585 10.3589C34.585 4.79067 30.6889 0.900757 25.1098 0.900757Z" fill="#C4C4C4"/>
</svg>
