<svg width="35" height="31" viewBox="0 0 35 31" fill="none" xmlns="http://www.w3.org/2000/svg">
<path d="M25.1305 0C21.8112 0 18.975 2.37682 17.4167 4.01545C15.8584 2.37682 13.0285 0 9.71077 0C3.99231 0 0 4.00432 0 9.73636C0 16.0523 4.95832 20.1345 9.75511 24.0832C12.0197 25.9493 14.3635 27.8775 16.1609 30.0157C16.4633 30.3736 16.9068 30.5805 17.3723 30.5805H17.4642C17.9314 30.5805 18.3732 30.372 18.6741 30.0157C20.4747 27.8775 22.8168 25.9477 25.083 24.0832C29.8782 20.1361 34.8397 16.0539 34.8397 9.73636C34.8397 4.00432 30.8474 0 25.1305 0Z" fill="#FE8C4A"/>
</svg>
