<svg width="40" height="40" viewBox="0 0 40 40" fill="none" xmlns="http://www.w3.org/2000/svg">
<path d="M26.4663 15.4833L19.9997 21.95L13.533 15.4833C13.3787 15.329 13.1955 15.2066 12.9939 15.1231C12.7923 15.0396 12.5762 14.9966 12.358 14.9966C12.1398 14.9966 11.9237 15.0396 11.7221 15.1231C11.5205 15.2066 11.3373 15.329 11.183 15.4833C11.0287 15.6376 10.9063 15.8208 10.8228 16.0224C10.7393 16.224 10.6963 16.4401 10.6963 16.6583C10.6963 16.8766 10.7393 17.0926 10.8228 17.2942C10.9063 17.4959 11.0287 17.679 11.183 17.8333L18.833 25.4833C19.483 26.1333 20.533 26.1333 21.183 25.4833L28.833 17.8333C28.9875 17.6792 29.1101 17.496 29.1937 17.2944C29.2773 17.0928 29.3204 16.8766 29.3204 16.6583C29.3204 16.4401 29.2773 16.2239 29.1937 16.0223C29.1101 15.8207 28.9875 15.6375 28.833 15.4833C28.183 14.85 27.1163 14.8333 26.4663 15.4833V15.4833Z" fill="white"/>
</svg>
