<svg width="32" height="32" viewBox="0 0 32 32" fill="none" xmlns="http://www.w3.org/2000/svg">
<path fill-rule="evenodd" clip-rule="evenodd" d="M0 0H32V32H0V0Z" fill="#016FD0"/>
<path fill-rule="evenodd" clip-rule="evenodd" d="M6.204 22.2923V17.2619H11.52L12.0896 18.0095L12.6758 17.2619H32V21.9379C32 21.9379 31.502 22.2757 30.9158 22.2757H20.2304L19.5904 21.4757V22.2757H17.4758V20.9241C17.4758 20.9241 17.1904 21.1199 16.5696 21.1199H15.858V22.2757H12.658L12.0896 21.5103L11.502 22.2757L6.204 22.2923V22.2923ZM0 13.4923L1.1916 10.7019H3.2704L3.9476 12.2675V10.7007H6.524L6.9336 11.8387L7.324 10.7007H18.898V11.2691C18.898 11.2691 19.502 10.7007 20.498 10.7007L24.2484 10.7187L24.9242 12.2661V10.7007H27.0758L27.6608 11.5891V10.7019H29.8676V15.7339H27.68L27.1104 14.8443V15.7325H23.9488L23.6288 14.9325H22.7738L22.4538 15.7325H20.3034C19.4508 15.7325 18.8992 15.1821 18.8992 15.1821V15.7325H15.6632L15.0232 14.9325V15.7325H2.9698L2.6498 14.9325H1.7958L1.4758 15.7325H0V13.4925V13.4923Z" fill="white"/>
<path fill-rule="evenodd" clip-rule="evenodd" d="M1.618 11.3078L0 15.076H1.0484L1.3504 14.3298H3.0938L3.3958 15.076H4.48L2.862 11.3078H1.618V11.3078ZM2.222 12.1782L2.756 13.4926H1.6894L2.2218 12.1782H2.222ZM4.5876 15.0762V11.3076L6.08 11.3242L6.9516 13.7408L7.8042 11.3076H9.28V15.0758H8.338V12.3036L7.342 15.076H6.524L5.5104 12.3036V15.076H4.5876V15.0762ZM9.92 15.0762V11.3076H12.996V12.1602H10.88V12.8002H12.942V13.5822H10.88V14.2582H12.996V15.0762H9.92V15.0762ZM13.5284 11.3078V15.076H14.4704V13.7422H14.862L15.982 15.0762H17.138L15.8924 13.6898C16.179 13.6637 16.4451 13.5296 16.6366 13.3148C16.8282 13.1 16.931 12.8204 16.9242 12.5326C16.9242 11.7326 16.3022 11.3078 15.6096 11.3078H13.5284V11.3078ZM14.4704 12.1602H15.538C15.804 12.1602 15.982 12.3562 15.982 12.5506C15.982 12.8002 15.7324 12.9422 15.556 12.9422H14.4704V12.1602ZM18.2924 15.0762H17.3324V11.3076H18.2924V15.0758V15.0762ZM20.5684 15.0762H20.3558C19.36 15.0762 18.7378 14.2926 18.7378 13.2098C18.7378 12.1064 19.342 11.3078 20.6042 11.3078H21.6358V12.196H20.5504C20.0358 12.196 19.68 12.6044 19.68 13.2098C19.68 13.9382 20.0884 14.2402 20.6924 14.2402H20.942L20.5696 15.0762H20.5684ZM22.6124 11.3078L20.9958 15.076H22.0442L22.3476 14.3298H24.0884L24.3904 15.076H25.4758L23.858 11.3078H22.6124V11.3078ZM23.218 12.1782L23.7504 13.4926H22.6842L23.218 12.1782ZM25.5642 15.0762V11.3076H26.7558L28.2842 13.6704V11.3078H29.2276V15.076H28.0704L26.5076 12.6402V15.0762H25.5642V15.0762ZM6.8634 21.6526V17.8844H9.92V18.7382H7.804V19.3782H9.8688V20.1782H7.8042V20.836H9.92V21.6526H6.8634V21.6526ZM21.8842 21.6526V17.8844H24.96V18.7382H22.8442V19.3782H24.9076V20.1782H22.8442V20.836H24.96V21.6526H21.8842V21.6526ZM10.0442 21.6526L11.538 19.8044L10.0096 17.8844H11.2L12.1076 19.076L13.0124 17.8856H14.1516L12.64 19.7698L14.1516 21.6526H12.96L12.0704 20.4982L11.218 21.6526H10.044H10.0442ZM14.258 17.9022V21.6706H15.218V20.4802H16.2124C17.0496 20.4802 17.6896 20.036 17.6896 19.1642C17.6896 18.4526 17.1904 17.9022 16.338 17.9022H14.258V17.9022ZM15.218 18.7382H16.2662C16.5324 18.7382 16.7296 18.8982 16.7296 19.1642C16.7296 19.4126 16.5324 19.5906 16.2662 19.5906H15.236V18.7382H15.218ZM18.098 17.8842V21.6526H19.04V20.3202H19.4304L20.5504 21.6526H21.7076L20.462 20.2678C20.7484 20.2413 21.0141 20.1072 21.2053 19.8923C21.3966 19.6775 21.4992 19.3982 21.4924 19.1106C21.4924 18.3106 20.8704 17.8844 20.178 17.8844H18.098V17.8842ZM19.04 18.7382H20.1076C20.3724 18.7382 20.5504 18.9326 20.5504 19.1298C20.5504 19.3782 20.302 19.5202 20.1242 19.5202H19.04V18.7382ZM25.4042 21.6526V20.836H27.2896C27.5724 20.836 27.68 20.6926 27.68 20.516C27.68 20.356 27.5558 20.196 27.2896 20.196H26.4358C25.6896 20.196 25.28 19.7506 25.28 19.076C25.28 18.4706 25.6524 17.8844 26.7558 17.8844H28.5862L28.1958 18.7382H26.6112C26.3092 18.7382 26.2208 18.8982 26.2208 19.0402C26.2208 19.2002 26.3284 19.3602 26.5588 19.3602H27.4484C28.265 19.3602 28.6208 19.8222 28.6208 20.4444C28.6208 21.1022 28.2292 21.636 27.3946 21.636L25.4042 21.6526V21.6526ZM28.8524 21.6526V20.836H30.6496C30.9324 20.836 31.04 20.6926 31.04 20.516C31.04 20.356 30.9158 20.196 30.6496 20.196H29.8842C29.138 20.196 28.7296 19.7506 28.7296 19.076C28.7296 18.4706 29.102 17.8844 30.2042 17.8844H32L31.6096 18.7382H30.062C29.76 18.7382 29.6704 18.8982 29.6704 19.0402C29.6704 19.2002 29.778 19.3602 30.0096 19.3602H30.8262C31.6454 19.3602 32 19.8222 32 20.4444C32 21.1022 31.6096 21.636 30.7724 21.636L28.8524 21.6526V21.6526Z" fill="#016FD0"/>
</svg>
