<svg width="45" height="45" viewBox="0 0 45 45" fill="none" xmlns="http://www.w3.org/2000/svg">
<g clip-path="url(#clip0_649_25)">
<path d="M22.5002 7.72876L20.4836 5.65595C15.7502 0.790327 7.07082 2.46939 3.93769 8.58658C2.46676 11.4638 2.13488 15.6178 4.82082 20.9194C7.40832 26.0241 12.7914 32.1385 22.5002 38.7985C32.2089 32.1385 37.5893 26.0241 40.1796 20.9194C42.8655 15.615 42.5364 11.4638 41.0627 8.58658C37.9296 2.46939 29.2502 0.787515 24.5168 5.65314L22.5002 7.72876ZM22.5002 42.1875C-20.6239 13.6913 9.22238 -8.54999 22.0052 3.2147C22.1739 3.36939 22.3399 3.5297 22.5002 3.69564C22.6589 3.52985 22.824 3.37036 22.9952 3.21751C35.7752 -8.55561 65.6243 13.6885 22.5002 42.1875Z" fill="#494949"/>
</g>
<defs>
<clipPath id="clip0_649_25">
<rect width="45" height="45" fill="white"/>
</clipPath>
</defs>
</svg>
