<svg width="21" height="21" viewBox="0 0 21 21" fill="none" xmlns="http://www.w3.org/2000/svg">
<path d="M10.5 1.75C5.66125 1.75 1.75 5.66125 1.75 10.5C1.75 15.3387 5.66125 19.25 10.5 19.25C15.3387 19.25 19.25 15.3387 19.25 10.5C19.25 5.66125 15.3387 1.75 10.5 1.75ZM13.2125 6.18625C13.335 6.18625 13.4575 6.23 13.5625 6.32625L14.6737 7.4375C14.875 7.63 14.875 7.93625 14.6737 8.12L13.7987 8.995L12.005 7.20125L12.88 6.32625C12.9675 6.23 13.09 6.18625 13.2125 6.18625ZM11.4888 7.70875L13.2912 9.51125L7.98875 14.8138H6.18625V13.0112L11.4888 7.70875Z" fill="#1A9FFF"/>
</svg>
