<svg width="20" height="20" viewBox="0 0 20 20" fill="none" xmlns="http://www.w3.org/2000/svg">
<path d="M1.66667 10.8333L10.8333 10.8342C11.2537 10.8342 11.6585 10.9931 11.9666 11.279C12.2747 11.5649 12.4635 11.9567 12.495 12.3758L12.5 12.5008V14.5833C12.4992 18.0833 8.9275 19.1667 6.25 19.1667C3.62583 19.1667 0.1425 18.1267 0.00416676 14.79L0 14.5833V12.5C7.71465e-05 12.0797 0.158976 11.6749 0.444864 11.3667C0.730752 11.0586 1.12251 10.8699 1.54167 10.8383L1.66667 10.8333ZM12.6833 10.8342L18.3333 10.8333C18.7537 10.8334 19.1585 10.9923 19.4666 11.2782C19.7747 11.5641 19.9635 11.9558 19.995 12.375L20 12.5V14.1667C19.9992 17.2992 17.1417 18.3333 15 18.3333C14.1183 18.3333 13.1175 18.1542 12.2425 17.7292C12.8692 16.9842 13.2758 16.0358 13.3275 14.8425L13.3333 14.5833V12.5008C13.3333 11.9158 13.1258 11.3842 12.7883 10.9592L12.6833 10.8333H18.3333L12.6833 10.8342ZM6.25 1.89589e-08C6.85195 5.47274e-05 7.44799 0.118671 8.00409 0.349077C8.5602 0.579482 9.06548 0.917165 9.49108 1.34284C9.91668 1.76852 10.2543 2.27386 10.4846 2.83001C10.7149 3.38616 10.8334 3.98222 10.8333 4.58417C10.8333 5.18611 10.7147 5.78216 10.4843 6.33826C10.2539 6.89437 9.91617 7.39964 9.49049 7.82524C9.06481 8.25085 8.55947 8.58844 8.00332 8.81874C7.44718 9.04905 6.85111 9.16755 6.24917 9.1675C5.03348 9.16739 3.86763 8.68435 3.00809 7.82466C2.14855 6.96496 1.66572 5.79902 1.66583 4.58333C1.66594 3.36765 2.14898 2.2018 3.00868 1.34225C3.86838 0.482713 5.03431 -0.00011047 6.25 1.89589e-08ZM15.4167 1.66667C15.9091 1.66667 16.3968 1.76366 16.8517 1.95212C17.3067 2.14057 17.7201 2.4168 18.0683 2.76502C18.4165 3.11324 18.6928 3.52663 18.8812 3.9816C19.0697 4.43657 19.1667 4.92421 19.1667 5.41667C19.1667 5.90912 19.0697 6.39676 18.8812 6.85173C18.6928 7.3067 18.4165 7.7201 18.0683 8.06832C17.7201 8.41654 17.3067 8.69276 16.8517 8.88122C16.3968 9.06967 15.9091 9.16667 15.4167 9.16667C14.4221 9.16667 13.4683 8.77158 12.765 8.06832C12.0618 7.36506 11.6667 6.41123 11.6667 5.41667C11.6667 4.4221 12.0618 3.46828 12.765 2.76502C13.4683 2.06175 14.4221 1.66667 15.4167 1.66667Z" fill="#494949"/>
</svg>
