<svg width="21" height="21" viewBox="0 0 21 21" fill="none" xmlns="http://www.w3.org/2000/svg">
<circle cx="10.5" cy="10.5" r="10.5" fill="#1A9FFF"/>
<path d="M9.74805 12.9084V12.8409C9.75278 12.4006 9.79658 12.0502 9.87944 11.7898C9.96467 11.5294 10.0854 11.3187 10.2417 11.1577C10.3979 10.9967 10.5861 10.8499 10.8063 10.7173C10.9483 10.6274 11.0762 10.5268 11.1898 10.4155C11.3034 10.3042 11.3934 10.1764 11.4597 10.032C11.526 9.88755 11.5591 9.72775 11.5591 9.55256C11.5591 9.34186 11.5094 9.15956 11.41 9.00568C11.3105 8.8518 11.178 8.73343 11.0123 8.65057C10.8489 8.56534 10.6666 8.52273 10.4654 8.52273C10.2831 8.52273 10.1091 8.56061 9.94336 8.63636C9.77764 8.71212 9.64033 8.83049 9.53143 8.99148C9.42253 9.15009 9.35979 9.35488 9.34322 9.60582H8.26367C8.28024 9.17969 8.38796 8.81984 8.58683 8.52628C8.78569 8.23035 9.04847 8.00663 9.37518 7.85511C9.70425 7.7036 10.0676 7.62784 10.4654 7.62784C10.901 7.62784 11.2821 7.70952 11.6088 7.87287C11.9355 8.03385 12.1889 8.25994 12.3688 8.55114C12.5511 8.83996 12.6422 9.17732 12.6422 9.56321C12.6422 9.82836 12.6008 10.0675 12.5179 10.2805C12.4351 10.4912 12.3167 10.6795 12.1628 10.8452C12.0113 11.0109 11.829 11.1577 11.6159 11.2855C11.4147 11.411 11.2514 11.5412 11.1259 11.6761C11.0028 11.8111 10.9128 11.9709 10.856 12.1555C10.7992 12.3402 10.7684 12.5687 10.7637 12.8409V12.9084H9.74805ZM10.2843 15.0675C10.0901 15.0675 9.92324 14.9988 9.78356 14.8615C9.64388 14.7218 9.57404 14.5537 9.57404 14.3572C9.57404 14.1631 9.64388 13.9974 9.78356 13.8601C9.92324 13.7204 10.0901 13.6506 10.2843 13.6506C10.476 13.6506 10.6417 13.7204 10.7814 13.8601C10.9235 13.9974 10.9945 14.1631 10.9945 14.3572C10.9945 14.4875 10.9614 14.607 10.8951 14.7159C10.8311 14.8224 10.7459 14.9077 10.6394 14.9716C10.5328 15.0355 10.4145 15.0675 10.2843 15.0675Z" fill="white"/>
</svg>
