<svg width="18" height="17" viewBox="0 0 18 17" fill="none" xmlns="http://www.w3.org/2000/svg">
<path d="M3.375 0.5C2.5462 0.5 1.75134 0.82924 1.16529 1.41529C0.57924 2.00134 0.25 2.7962 0.25 3.625V9.875C0.25 10.2854 0.330831 10.6917 0.487876 11.0709C0.644922 11.45 0.875108 11.7945 1.16529 12.0847C1.75134 12.6708 2.5462 13 3.375 13H4V15.4275C3.99996 15.6628 4.06769 15.8932 4.1951 16.091C4.32251 16.2888 4.5042 16.4458 4.71845 16.5431C4.93271 16.6404 5.17045 16.6739 5.40326 16.6397C5.63607 16.6054 5.85409 16.5049 6.03125 16.35L9.86 13H14.625C15.0354 13 15.4417 12.9192 15.8209 12.7621C16.2 12.6051 16.5445 12.3749 16.8347 12.0847C17.1249 11.7945 17.3551 11.45 17.5121 11.0709C17.6692 10.6917 17.75 10.2854 17.75 9.875V3.625C17.75 2.7962 17.4208 2.00134 16.8347 1.41529C16.2487 0.82924 15.4538 0.5 14.625 0.5H3.375Z" fill="#DDDDDD"/>
</svg>
