<svg width="92" height="32" viewBox="0 0 92 32" fill="none" xmlns="http://www.w3.org/2000/svg">
<g clip-path="url(#clip0_109_628)">
<path d="M91.2244 15.2548C91.2244 15.787 91.2244 16.3194 91.0874 16.73C90.6768 16.5932 90.2814 16.5932 89.749 16.5932C89.3384 16.5932 88.943 16.73 88.5324 16.73V23.4372H86.7832V15.6654C87.4524 15.3916 88.806 15.133 89.7338 15.133C90.2814 15.1178 90.8138 15.1178 91.2244 15.2548ZM79.5438 18.6008H83.5742C83.5742 17.3992 82.768 16.5932 81.5666 16.5932C80.3498 16.5932 79.6806 17.2624 79.5438 18.6008ZM85.1864 20.076H79.6806C79.8176 21.5514 80.6236 22.2206 82.2358 22.2206C83.1788 22.2206 84.1216 21.9468 85.0494 21.5514C84.9126 22.0836 84.7756 22.616 84.7756 23.1634C83.9696 23.559 83.0266 23.6958 82.2206 23.6958C79.27 23.6958 77.7946 22.0836 77.7946 19.4068C77.7946 16.9886 79.0114 15.1178 81.6882 15.1178C84.2434 15.1178 85.308 16.73 85.308 18.7378C85.3232 19.2698 85.1864 19.6654 85.1864 20.076ZM74.7072 21.6882V16.7302C74.3118 16.7302 73.7642 16.5932 73.3688 16.5932C71.6198 16.5932 70.8136 17.6578 70.8136 19.5438C70.8136 21.1558 71.483 22.2206 72.9582 22.2206C73.6426 22.2206 74.175 21.9468 74.7072 21.6882ZM76.4562 12.441V23.422H74.8442L74.7072 22.479C74.3118 23.1482 73.6274 23.6806 72.4258 23.6806C70.403 23.6806 69.0646 22.0684 69.0646 19.5286C69.0646 16.7148 70.54 15.1026 73.3536 15.1026C73.886 15.1026 74.2966 15.2396 74.692 15.2396V12.6996C75.2548 12.441 75.924 12.441 76.4562 12.441ZM67.6046 18.1902V23.422H65.8556V18.464C65.8556 17.2624 65.4448 16.5932 63.711 16.5932C63.3004 16.5932 62.905 16.73 62.3726 16.73V23.4372H60.6236V15.6654C61.7034 15.3916 62.905 15.133 63.848 15.133C66.6616 15.1178 67.6046 16.3194 67.6046 18.1902ZM57.0038 21.6882V16.7302C56.5932 16.7302 56.1978 16.5932 55.8022 16.5932C53.9164 16.5932 53.1102 17.7946 53.1102 19.5438C53.1102 21.1558 53.7794 22.2206 55.2548 22.2206C55.924 22.2206 56.5932 22.0836 57.0038 21.6882ZM58.7528 15.6502V23.422H57.1406L57.0038 22.479C56.5932 23.1482 55.924 23.6806 54.8594 23.6806C52.7148 23.6806 51.3764 22.0684 51.3764 19.5286C51.3764 16.7148 52.8518 15.1026 55.8022 15.1026C56.867 15.1178 57.8098 15.2546 58.7528 15.6502ZM49.3536 22.2206C49.886 22.2206 50.4334 22.0836 50.829 21.9468C50.692 22.3422 50.692 22.8898 50.5552 23.422C50.1444 23.559 49.6122 23.6958 49.0798 23.6958C47.4676 23.6958 46.403 22.8898 46.403 21.019V12.715C46.9354 12.578 47.4828 12.441 48.0152 12.441V15.3916H50.829C50.829 15.924 50.692 16.4716 50.692 16.867H48V20.7452C48.0152 21.8098 48.5476 22.2206 49.3536 22.2206ZM44.654 18.1902V23.422H42.905V18.464C42.905 17.2624 42.5096 16.5932 40.7604 16.5932C40.365 16.5932 39.8174 16.73 39.2852 16.73V23.4372H37.5362V15.6654C38.7376 15.3916 39.9544 15.133 40.7604 15.133C43.711 15.1178 44.654 16.3194 44.654 18.1902ZM33.9164 21.6882V16.7302C33.6426 16.7302 33.2472 16.5932 32.7148 16.5932C30.9658 16.5932 30.038 17.7946 30.038 19.5438C30.038 21.1558 30.7072 22.2206 32.3194 22.2206C32.9734 22.2206 33.521 22.0836 33.9164 21.6882ZM35.6654 15.6502V23.422H34.0532V22.479C33.521 23.1482 32.8518 23.6806 31.7718 23.6806C29.7642 23.6806 28.289 22.0684 28.289 19.5286C28.289 16.7148 29.7642 15.1026 32.7148 15.1026C33.9164 15.1178 34.8594 15.2546 35.6654 15.6502ZM19.9694 23.1482C19.9694 22.479 20.1064 22.0836 20.2434 21.5362C21.1864 21.9316 22.251 22.0684 23.194 22.0684C24.6692 22.0684 25.4752 21.673 25.4752 20.73C25.4752 19.787 24.806 19.3916 23.3308 18.7224L22.5248 18.4486C21.0494 17.7794 20.1064 16.9734 20.1064 15.2396C20.1064 13.4906 21.308 12.289 23.8632 12.289C24.943 12.289 25.8708 12.4258 26.6768 12.6844C26.6768 13.3536 26.54 13.886 26.403 14.2964C25.597 14.0228 24.5172 13.9012 23.848 13.9012C22.5096 13.9012 21.8404 14.4334 21.8404 15.2396C21.8404 16.0456 22.3726 16.578 23.5894 16.9886L24.3954 17.384C26.403 18.19 27.2092 19.133 27.2092 20.5932C27.2092 22.4638 25.8708 23.6806 23.1788 23.6806C21.8404 23.6958 20.7756 23.559 19.9696 23.1482H19.9694ZM12.0458 15.3764C11.909 14.7072 11.772 14.1748 11.5134 13.6274L8.8364 9.0646C8.6996 8.7908 8.5628 8.3954 8.441 8V8.2738C7.7718 9.3384 7.7718 10.692 8.441 11.8936L10.4486 15.5134C11.1178 16.578 11.1178 18.0534 10.4486 19.133L10.3118 19.407C10.3118 19.0114 10.175 18.6008 9.9164 18.2054L8.0304 14.8594L6.8288 12.8518C6.5552 12.4562 6.4334 12.0458 6.4334 11.6502L6.2966 11.924C5.6274 12.9886 5.6274 14.3422 6.2966 15.5438L8.441 19.1636C8.9734 20.365 8.9734 21.7034 8.441 22.7832L8.3042 23.057C8.1674 22.6616 8.0304 22.251 7.9088 21.9924L5.232 17.4296C4.8366 16.7604 4.6996 16.0912 4.6996 15.422C1.886 16.0912 0 17.7034 0 19.4372C0 21.9772 3.7566 24 8.4562 24C13.019 24 16.7756 21.9924 16.7756 19.4372C16.7452 17.6578 14.8594 16.0608 12.0456 15.3764H12.0458Z" fill="#E41513"/>
</g>
<defs>
<clipPath id="clip0_109_628">
<rect width="92" height="32" fill="white"/>
</clipPath>
</defs>
</svg>
