<svg width="21" height="21" viewBox="0 0 21 21" fill="none" xmlns="http://www.w3.org/2000/svg">
<g clip-path="url(#clip0_1045_1353)">
<path d="M13.576 15.4113C11.8418 16.6822 9.69166 17.2514 7.55578 17.0051C5.41989 16.7588 3.45578 15.7151 2.05638 14.0828C0.65698 12.4505 -0.0744988 10.35 0.00828473 8.20156C0.0910682 6.05311 0.982009 4.01514 2.50286 2.49537C4.02372 0.975607 6.06232 0.086124 8.21083 0.00487787C10.3593 -0.0763683 12.4593 0.656614 14.0906 2.05718C15.7219 3.45775 16.7642 5.42261 17.009 7.55867C17.2538 9.69473 16.683 11.8445 15.4109 13.5778V13.5765C15.4634 13.6158 15.5133 13.6578 15.5618 13.7051L20.615 18.7582C20.8612 19.0043 20.9997 19.3382 20.9998 19.6863C20.9999 20.0345 20.8617 20.3685 20.6156 20.6147C20.3695 20.861 20.0357 20.9994 19.6875 20.9996C19.3393 20.9997 19.0054 20.8615 18.7591 20.6154L13.706 15.5623C13.6585 15.5153 13.6146 15.4649 13.5747 15.4113H13.576ZM8.53077 15.75C9.47875 15.75 10.4174 15.5632 11.2933 15.2005C12.1691 14.8377 12.9649 14.306 13.6352 13.6356C14.3055 12.9653 14.8372 12.1695 15.2 11.2937C15.5628 10.4179 15.7495 9.47919 15.7495 8.53121C15.7495 7.58323 15.5628 6.64453 15.2 5.76871C14.8372 4.89289 14.3055 4.0971 13.6352 3.42678C12.9649 2.75646 12.1691 2.22473 11.2933 1.86195C10.4174 1.49918 9.47875 1.31246 8.53077 1.31246C6.61624 1.31246 4.78012 2.073 3.42634 3.42678C2.07257 4.78056 1.31202 6.61668 1.31202 8.53121C1.31202 10.4457 2.07257 12.2819 3.42634 13.6356C4.78012 14.9894 6.61624 15.75 8.53077 15.75Z" fill="#494949"/>
</g>
<defs>
<clipPath id="clip0_1045_1353">
<rect width="21" height="21" fill="white" transform="matrix(-1 0 0 1 21 0)"/>
</clipPath>
</defs>
</svg>
