<svg width="19" height="19" viewBox="0 0 19 19" fill="none" xmlns="http://www.w3.org/2000/svg">
<path d="M18.4002 0.601715C18.266 0.467546 18.0958 0.375026 17.9103 0.335294C17.7247 0.295563 17.5316 0.310313 17.3543 0.37777L0.946786 6.58795H0.943505C0.754325 6.66071 0.592218 6.79009 0.479324 6.95843C0.36643 7.12677 0.308254 7.32586 0.312741 7.5285C0.317229 7.73114 0.38416 7.92746 0.504395 8.09063C0.62463 8.25381 0.792305 8.3759 0.984521 8.44021L1.00134 8.44554L6.63278 10.8503C6.74262 10.8836 6.85929 10.8876 6.97113 10.8617C7.08297 10.8359 7.18608 10.7812 7.27016 10.703L16.3084 2.28131C16.3353 2.25437 16.3673 2.23301 16.4025 2.21844C16.4376 2.20386 16.4754 2.19636 16.5134 2.19636C16.5515 2.19636 16.5892 2.20386 16.6244 2.21844C16.6596 2.23301 16.6916 2.25437 16.7185 2.28131C16.7455 2.30824 16.7668 2.34021 16.7814 2.3754C16.796 2.41058 16.8035 2.4483 16.8035 2.48638C16.8035 2.52447 16.796 2.56218 16.7814 2.59737C16.7668 2.63256 16.7455 2.66453 16.7185 2.69146L8.29638 11.7256C8.21823 11.8096 8.16351 11.9128 8.13767 12.0246C8.11183 12.1364 8.11579 12.2531 8.14913 12.3629L10.5547 17.9977C10.5572 18.0059 10.5596 18.0133 10.5625 18.0211C10.6937 18.4013 11.026 18.6695 11.4275 18.6876H11.4685C11.6712 18.6887 11.8696 18.6289 12.0378 18.5158C12.2061 18.4027 12.3364 18.2416 12.4119 18.0535L18.6212 1.65048C18.6897 1.473 18.7052 1.2795 18.666 1.09337C18.6267 0.90725 18.5344 0.736479 18.4002 0.601715Z" fill="#C4C4C4"/>
</svg>
