<svg width="26" height="26" viewBox="0 0 26 26" fill="none" xmlns="http://www.w3.org/2000/svg">
<path d="M21.1247 9.75029C22.1146 9.75032 23.0811 9.449 23.8956 8.88641C24.71 8.32382 25.334 7.52661 25.6844 6.60079C26.0348 5.67498 26.095 4.66443 25.8571 3.70354C25.6192 2.74265 25.0945 1.87695 24.3526 1.22155C23.6107 0.566156 22.6869 0.15213 21.704 0.0345291C20.7211 -0.0830715 19.7257 0.101326 18.8502 0.563202C17.9746 1.02508 17.2604 1.74254 16.8026 2.62019C16.3447 3.49783 16.1648 4.49407 16.2869 5.47641L8.2592 9.49028C7.57056 8.82621 6.70175 8.37943 5.76101 8.20559C4.82026 8.03175 3.84916 8.13854 2.96868 8.51266C2.08819 8.88677 1.33723 9.51167 0.809352 10.3095C0.281472 11.1074 0 12.0429 0 12.9996C0 13.9562 0.281472 14.8918 0.809352 15.6896C1.33723 16.4875 2.08819 17.1124 2.96868 17.4865C3.84916 17.8606 4.82026 17.9674 5.76101 17.7936C6.70175 17.6197 7.57056 17.1729 8.2592 16.5089L16.2869 20.5227C16.1447 21.6639 16.4105 22.8186 17.0373 23.7828C17.6642 24.7469 18.6116 25.4584 19.7123 25.7916C20.813 26.1248 21.996 26.0581 23.0523 25.6034C24.1086 25.1487 24.9701 24.3352 25.4846 23.3067C25.9992 22.2783 26.1335 21.101 25.864 19.983C25.5945 18.8651 24.9385 17.8784 24.0119 17.1973C23.0852 16.5162 21.9477 16.1847 20.8002 16.2612C19.6528 16.3377 18.5693 16.8174 17.7414 17.6155L9.71362 13.6017C9.7628 13.2023 9.7628 12.7985 9.71362 12.3991L17.7414 8.38525C18.6156 9.23027 19.8084 9.75029 21.1247 9.75029Z" fill="#DDDDDD"/>
</svg>
