<svg width="35" height="36" viewBox="0 0 35 36" fill="none" xmlns="http://www.w3.org/2000/svg">
<path d="M33.091 10.5927C32.8178 10.1561 32.4265 9.7923 31.9553 9.53671C31.4841 9.28113 30.9491 9.14252 30.4025 9.1344H10.1598L9.2425 5.83857C9.14983 5.52041 8.94307 5.24057 8.6559 5.04461C8.36873 4.84865 8.01807 4.74812 7.66103 4.7594H4.49809C4.07866 4.7594 3.67641 4.91305 3.37983 5.18654C3.08324 5.46003 2.91663 5.83096 2.91663 6.21773C2.91663 6.60451 3.08324 6.97544 3.37983 7.24893C3.67641 7.52242 4.07866 7.67607 4.49809 7.67607H6.45912L10.824 22.6386C10.9166 22.9567 11.1234 23.2366 11.4106 23.4325C11.6977 23.6285 12.0484 23.729 12.4054 23.7177H26.6387C26.9307 23.7169 27.2168 23.6415 27.4652 23.5C27.7137 23.3584 27.9147 23.1561 28.0462 22.9156L33.2334 13.349C33.4582 12.9144 33.5629 12.4353 33.538 11.9544C33.5132 11.4734 33.3596 11.0056 33.091 10.5927Z" fill="white"/>
<path d="M10.9375 31.0094C12.1456 31.0094 13.125 30.03 13.125 28.8219C13.125 27.6138 12.1456 26.6344 10.9375 26.6344C9.72938 26.6344 8.75 27.6138 8.75 28.8219C8.75 30.03 9.72938 31.0094 10.9375 31.0094Z" fill="white"/>
<path d="M25.5209 31.0094C26.729 31.0094 27.7084 30.03 27.7084 28.8219C27.7084 27.6138 26.729 26.6344 25.5209 26.6344C24.3128 26.6344 23.3334 27.6138 23.3334 28.8219C23.3334 30.03 24.3128 31.0094 25.5209 31.0094Z" fill="white"/>
</svg>
