<svg width="21" height="21" viewBox="0 0 21 21" fill="none" xmlns="http://www.w3.org/2000/svg">
<path d="M19.8547 6.12502C19.6907 5.86307 19.4559 5.64476 19.1732 5.49141C18.8905 5.33806 18.5695 5.25489 18.2416 5.25002H6.09588L5.54552 3.27252C5.48992 3.08163 5.36586 2.91373 5.19356 2.79615C5.02126 2.67857 4.81087 2.61826 4.59664 2.62502H2.69888C2.44722 2.62502 2.20587 2.71721 2.02792 2.88131C1.84997 3.0454 1.75 3.26796 1.75 3.50002C1.75 3.73209 1.84997 3.95465 2.02792 4.11874C2.20587 4.28284 2.44722 4.37502 2.69888 4.37502H3.87549L6.49441 13.3525C6.55001 13.5434 6.67407 13.7113 6.84637 13.8289C7.01867 13.9465 7.22906 14.0068 7.44329 14H15.9832C16.1584 13.9995 16.3301 13.9543 16.4792 13.8694C16.6282 13.7844 16.7489 13.6631 16.8277 13.5188L19.9401 7.77877C20.0749 7.51804 20.1377 7.23056 20.1228 6.942C20.1079 6.65343 20.0158 6.37276 19.8547 6.12502Z" fill="#FE8C4A"/>
<path d="M6.5625 18.375C7.28737 18.375 7.875 17.7874 7.875 17.0625C7.875 16.3376 7.28737 15.75 6.5625 15.75C5.83763 15.75 5.25 16.3376 5.25 17.0625C5.25 17.7874 5.83763 18.375 6.5625 18.375Z" fill="#FE8C4A"/>
<path d="M15.3125 18.375C16.0374 18.375 16.625 17.7874 16.625 17.0625C16.625 16.3376 16.0374 15.75 15.3125 15.75C14.5876 15.75 14 16.3376 14 17.0625C14 17.7874 14.5876 18.375 15.3125 18.375Z" fill="#FE8C4A"/>
</svg>
