<svg width="16" height="16" viewBox="0 0 16 16" fill="none" xmlns="http://www.w3.org/2000/svg">
<path fill-rule="evenodd" clip-rule="evenodd" d="M13.71 4.29L10.71 1.29L10 1H4L3 2V14L4 15H9.354C9.02883 14.713 8.75226 14.3753 8.535 14H4V2H10L13 5V8.126C13.355 8.217 13.69 8.356 14 8.536V5L13.71 4.29ZM8.126 11H6V12H8C8 11.655 8.044 11.32 8.126 11ZM6 6H8V4H9V6H11V7H9V9H8V7H6V6Z" fill="#1A9FFF"/>
<path d="M12 9C11.2044 9 10.4413 9.31607 9.87868 9.87868C9.31607 10.4413 9 11.2044 9 12C9 12.7956 9.31607 13.5587 9.87868 14.1213C10.4413 14.6839 11.2044 15 12 15C12.7956 15 13.5587 14.6839 14.1213 14.1213C14.6839 13.5587 15 12.7956 15 12C15 11.2044 14.6839 10.4413 14.1213 9.87868C13.5587 9.31607 12.7956 9 12 9Z" fill="#1A9FFF"/>
</svg>
