<svg width="15" height="11" viewBox="0 0 15 11" fill="none" xmlns="http://www.w3.org/2000/svg">
<path d="M1 2.27386L6.925 1.01453C7.0107 0.996338 7.09915 0.995217 7.18529 1.01123C7.27143 1.02725 7.35356 1.06008 7.427 1.10786L10.1263 2.86086C10.2746 2.95716 10.4551 2.99061 10.628 2.95386L11.9883 2.66453C12.1613 2.62778 12.3417 2.66121 12.49 2.75747C12.6382 2.85374 12.7422 3.00495 12.779 3.17786L12.987 4.1562C13.0238 4.32912 12.9903 4.50955 12.8941 4.65783C12.7978 4.8061 12.6466 4.91007 12.4737 4.94686L10.1353 5.44386C10.0497 5.4621 9.96121 5.46328 9.87508 5.44732C9.78894 5.43136 9.7068 5.39859 9.63333 5.35086L6.934 3.59786C6.86054 3.55014 6.77839 3.51736 6.69226 3.50141C6.60612 3.48545 6.51768 3.48662 6.432 3.50486L5.398 3.72486M14.0267 9.0472L8.10167 10.3062C8.01598 10.3244 7.92755 10.3256 7.84141 10.3097C7.75528 10.2937 7.67313 10.2609 7.59967 10.2132L4.90033 8.45986C4.82685 8.4122 4.74469 8.37948 4.65855 8.36358C4.57242 8.34768 4.48399 8.34891 4.39833 8.3672L3.03833 8.6562C2.86541 8.69295 2.68498 8.65952 2.5367 8.56325C2.38843 8.46699 2.28446 8.31577 2.24767 8.14286L2.03967 7.16453C2.00291 6.99161 2.03635 6.81117 2.13261 6.6629C2.22888 6.51463 2.38009 6.41066 2.553 6.37386L4.89133 5.8772C4.97699 5.85891 5.06542 5.85768 5.15155 5.87358C5.23769 5.88948 5.31985 5.9222 5.39333 5.96986L8.09267 7.7232C8.16613 7.77092 8.24828 7.8037 8.33441 7.81965C8.42055 7.83561 8.50899 7.83444 8.59467 7.8162L9.62867 7.5962" stroke="#494949" stroke-linecap="round"/>
</svg>
