<svg width="20" height="20" viewBox="0 0 20 20" fill="none" xmlns="http://www.w3.org/2000/svg">
<path d="M12.4702 1.69002C12.1378 1.38527 11.7005 1.22061 11.2497 1.23039C10.7988 1.24017 10.3691 1.42364 10.0502 1.74252L1.7802 10.0138C1.61768 10.1763 1.48876 10.3692 1.40081 10.5815C1.31285 10.7939 1.26758 11.0214 1.26758 11.2513C1.26758 11.4811 1.31285 11.7087 1.40081 11.921C1.48876 12.1333 1.61768 12.3263 1.7802 12.4888L2.9377 13.645C3.37145 14.08 3.9952 13.975 4.3627 13.73C4.62716 13.5543 4.9443 13.4754 5.26027 13.5069C5.57624 13.5384 5.87156 13.6783 6.0961 13.9029C6.32063 14.1274 6.46053 14.4227 6.49204 14.7387C6.52355 15.0547 6.44473 15.3718 6.26895 15.6363C6.0252 16.0038 5.9202 16.6288 6.35395 17.0625L7.4852 18.1925C7.65084 18.3583 7.84809 18.4892 8.06525 18.5773C8.28241 18.6654 8.51506 18.709 8.74939 18.7055C8.98373 18.702 9.21497 18.6515 9.4294 18.5569C9.64384 18.4624 9.83709 18.3257 9.9977 18.155L18.2452 9.39002C18.404 9.22131 18.5277 9.02276 18.6091 8.80587C18.6905 8.58899 18.7281 8.35809 18.7196 8.12658C18.7111 7.89507 18.6568 7.66754 18.5597 7.4572C18.4626 7.24687 18.3247 7.0579 18.154 6.90127L17.0465 5.88502C16.9245 5.77624 16.7789 5.69736 16.6212 5.65462C16.4634 5.61187 16.2979 5.60645 16.1377 5.63877C15.854 5.68877 15.5852 5.83877 15.3902 6.05127C15.2682 6.1844 15.1211 6.29219 14.9574 6.36847C14.7937 6.44476 14.6166 6.48806 14.4361 6.49589C14.2557 6.50373 14.0755 6.47595 13.9058 6.41414C13.7361 6.35233 13.5802 6.25769 13.4471 6.13565C13.1782 5.88916 13.0183 5.54597 13.0025 5.18156C12.9946 5.00112 13.0224 4.82091 13.0842 4.65121C13.146 4.48151 13.2407 4.32565 13.3627 4.19252C13.559 3.98252 13.6852 3.70127 13.7115 3.41377C13.7295 3.25154 13.7096 3.08733 13.6531 2.93415C13.5967 2.78098 13.5054 2.64304 13.3865 2.53127L12.4702 1.69002Z" fill="#494949"/>
</svg>
