<svg width="18" height="18" viewBox="0 0 18 18" fill="none" xmlns="http://www.w3.org/2000/svg">
<path d="M11.4702 0.690022C11.1378 0.385268 10.7005 0.220611 10.2497 0.230393C9.79879 0.240174 9.3691 0.423638 9.0502 0.742522L0.780204 9.01377C0.617683 9.17628 0.488763 9.3692 0.400806 9.58154C0.312849 9.79387 0.267578 10.0214 0.267578 10.2513C0.267578 10.4811 0.312849 10.7087 0.400806 10.921C0.488763 11.1333 0.617683 11.3263 0.780204 11.4888L1.9377 12.645C2.37145 13.08 2.9952 12.975 3.3627 12.73C3.62716 12.5543 3.9443 12.4754 4.26027 12.5069C4.57624 12.5384 4.87156 12.6783 5.0961 12.9029C5.32063 13.1274 5.46053 13.4227 5.49204 13.7387C5.52355 14.0547 5.44473 14.3718 5.26895 14.6363C5.0252 15.0038 4.9202 15.6288 5.35395 16.0625L6.4852 17.1925C6.65084 17.3583 6.84809 17.4892 7.06525 17.5773C7.28241 17.6654 7.51506 17.709 7.74939 17.7055C7.98373 17.702 8.21497 17.6515 8.4294 17.5569C8.64384 17.4624 8.83709 17.3257 8.9977 17.155L17.2452 8.39002C17.404 8.22131 17.5277 8.02276 17.6091 7.80587C17.6905 7.58899 17.7281 7.35809 17.7196 7.12658C17.7111 6.89507 17.6568 6.66754 17.5597 6.4572C17.4626 6.24687 17.3247 6.0579 17.154 5.90127L16.0465 4.88502C15.9245 4.77624 15.7789 4.69736 15.6212 4.65462C15.4634 4.61187 15.2979 4.60645 15.1377 4.63877C14.854 4.68877 14.5852 4.83877 14.3902 5.05127C14.2682 5.1844 14.1211 5.29219 13.9574 5.36847C13.7937 5.44476 13.6166 5.48806 13.4361 5.49589C13.2557 5.50373 13.0755 5.47595 12.9058 5.41414C12.7361 5.35233 12.5802 5.25769 12.4471 5.13565C12.1782 4.88916 12.0183 4.54597 12.0025 4.18156C11.9946 4.00112 12.0224 3.82091 12.0842 3.65121C12.146 3.48151 12.2407 3.32565 12.3627 3.19252C12.559 2.98252 12.6852 2.70127 12.7115 2.41377C12.7295 2.25154 12.7096 2.08733 12.6531 1.93415C12.5967 1.78098 12.5054 1.64304 12.3865 1.53127L11.4702 0.690022Z" fill="#C4C4C4"/>
</svg>
