<svg width="17" height="22" viewBox="0 0 17 22" fill="none" xmlns="http://www.w3.org/2000/svg">
<path d="M8.26869 0.522339C6.08144 0.524919 3.98452 1.39494 2.4379 2.94156C0.891288 4.48817 0.0212659 6.58509 0.0186855 8.77234C0.0160659 10.5598 0.599921 12.2987 1.68069 13.7223C1.68069 13.7223 1.90569 14.0186 1.94244 14.0613L8.26869 21.5223L14.5979 14.0576C14.6309 14.0178 14.8567 13.7223 14.8567 13.7223L14.8574 13.7201C15.9377 12.297 16.5212 10.5589 16.5187 8.77234C16.5161 6.58509 15.6461 4.48817 14.0995 2.94156C12.5528 1.39494 10.4559 0.524919 8.26869 0.522339ZM8.26869 11.7723C7.67534 11.7723 7.09532 11.5964 6.60197 11.2667C6.10863 10.9371 5.72411 10.4686 5.49705 9.92039C5.26998 9.37221 5.21057 8.76901 5.32633 8.18707C5.44209 7.60512 5.72781 7.07058 6.14736 6.65102C6.56692 6.23146 7.10147 5.94574 7.68341 5.82998C8.26536 5.71423 8.86856 5.77364 9.41673 6.0007C9.96491 6.22776 10.4334 6.61228 10.7631 7.10563C11.0927 7.59898 11.2687 8.179 11.2687 8.77234C11.2677 9.56768 10.9513 10.3302 10.3889 10.8926C9.82652 11.455 9.06403 11.7713 8.26869 11.7723Z" fill="white"/>
</svg>
