<svg width="42" height="14" viewBox="0 0 42 14" fill="none" xmlns="http://www.w3.org/2000/svg">
<path d="M15.946 0.24L10.448 13.36H6.86L4.154 2.89C3.99 2.244 3.847 2.008 3.348 1.736C2.532 1.294 1.185 0.88 0 0.621L0.08 0.24H5.855C6.591 0.24 7.253 0.73 7.42 1.577L8.85 9.169L12.381 0.239H15.946V0.24ZM30.003 9.076C30.017 5.613 25.215 5.422 25.248 3.876C25.258 3.405 25.707 2.904 26.688 2.776C27.174 2.713 28.514 2.664 30.034 3.364L30.63 0.581C29.6146 0.200207 28.5394 0.00346258 27.455 0C24.101 0 21.74 1.783 21.72 4.337C21.698 6.225 23.405 7.279 24.69 7.907C26.013 8.55 26.457 8.963 26.452 9.537C26.442 10.417 25.397 10.807 24.42 10.821C22.714 10.848 21.724 10.36 20.935 9.993L20.32 12.867C21.113 13.231 22.577 13.548 24.094 13.564C27.66 13.564 29.992 11.804 30.004 9.076H30.003ZM38.861 13.359H42L39.26 0.24H36.363C35.712 0.24 35.163 0.62 34.919 1.203L29.826 13.36H33.39L34.097 11.4H38.451L38.861 13.36V13.359ZM35.074 8.71L36.861 3.785L37.889 8.71H35.074ZM20.796 0.24L17.989 13.36H14.596L17.403 0.24H20.796Z" fill="#1434CB"/>
</svg>
