<svg width="40" height="25" viewBox="0 0 40 25" fill="none" xmlns="http://www.w3.org/2000/svg">
<g clip-path="url(#clip0_1259_351)">
<rect width="40" height="25" rx="4" fill="#007AFF"/>
<circle cx="26.3621" cy="14.7278" r="13.1238" fill="#2C91FF"/>
<g style="mix-blend-mode:soft-light">
<circle cx="11.6375" cy="1.12381" r="13.1238" fill="#002994"/>
</g>
</g>
<path d="M17.3514 17.8558H14.8555L16.4166 8.17554H18.9123L17.3514 17.8558Z" fill="white"/>
<path d="M26.3991 8.41213C25.9068 8.21626 25.126 8 24.1605 8C21.6957 8 19.96 9.31809 19.9494 11.2026C19.9289 12.5929 21.1921 13.3652 22.1368 13.8288C23.1025 14.3025 23.4307 14.6117 23.4307 15.0339C23.4209 15.6825 22.6504 15.9814 21.9318 15.9814C20.9354 15.9814 20.4014 15.8273 19.59 15.4665L19.2614 15.3118L18.9121 17.4848C19.4975 17.7523 20.576 17.9896 21.6957 18C24.3146 18 26.0195 16.7023 26.0397 14.6941C26.0497 13.5921 25.3827 12.7477 23.9447 12.0578C23.0717 11.6148 22.5371 11.3162 22.5371 10.863C22.5474 10.451 22.9893 10.029 23.9747 10.029C24.7861 10.0083 25.3823 10.2039 25.8339 10.3997L26.0597 10.5025L26.3991 8.41213Z" fill="white"/>
<path d="M29.716 14.4264C29.9216 13.8703 30.7125 11.718 30.7125 11.718C30.7021 11.7386 30.9177 11.1516 31.0409 10.7912L31.2153 11.6253C31.2153 11.6253 31.688 13.9424 31.7906 14.4264C31.4005 14.4264 30.209 14.4264 29.716 14.4264ZM32.7969 8.17554H30.8663C30.271 8.17554 29.8187 8.35046 29.5618 8.97871L25.8545 17.8557H28.4734C28.4734 17.8557 28.9045 16.6609 28.9972 16.4036C29.2845 16.4036 31.8321 16.4036 32.2017 16.4036C32.2733 16.7434 32.4995 17.8557 32.4995 17.8557H34.8105L32.7969 8.17554Z" fill="white"/>
<path d="M12.7705 8.17554L10.3262 14.7765L10.0591 13.4378C9.60723 11.893 8.18998 10.2147 6.6084 9.38016L8.84729 17.8455H11.4866L15.4097 8.17554H12.7705Z" fill="white"/>
<path d="M8.05672 8.17554H4.04108L4 8.37113C7.13245 9.17444 9.20701 11.1108 10.0594 13.4382L9.18641 8.98925C9.04269 8.37099 8.60102 8.19593 8.05672 8.17554Z" fill="white"/>
<defs>
<clipPath id="clip0_1259_351">
<rect width="40" height="25" fill="white"/>
</clipPath>
</defs>
</svg>
