<svg width="29" height="29" viewBox="0 0 29 29" fill="none" xmlns="http://www.w3.org/2000/svg">
<path d="M26.4 6.97503C22.2 0.50003 13.625 -1.42497 6.97498 2.60003C0.49998 6.62503 -1.60002 15.375 2.59998 21.85L2.94998 22.375L1.54998 27.625L6.79998 26.225L7.32498 26.575C9.59998 27.8 12.05 28.5 14.5 28.5C17.125 28.5 19.75 27.8 22.025 26.4C28.5 22.2 30.425 13.625 26.4 6.97503V6.97503ZM22.725 20.45C22.025 21.5 21.15 22.2 19.925 22.375C19.225 22.375 18.35 22.725 14.85 21.325C11.875 19.925 9.42498 17.65 7.67498 15.025C6.62498 13.8 6.09998 12.225 5.92498 10.65C5.92498 9.25003 6.44998 8.02503 7.32498 7.15003C7.67498 6.80003 8.02498 6.62503 8.37498 6.62503H9.24998C9.59998 6.62503 9.94998 6.62503 10.125 7.32503C10.475 8.20003 11.35 10.3 11.35 10.475C11.525 10.65 11.525 11 11.35 11.175C11.525 11.525 11.35 11.875 11.175 12.05C11 12.225 10.825 12.575 10.65 12.75C10.3 12.925 10.125 13.275 10.3 13.625C11 14.675 11.875 15.725 12.75 16.6C13.8 17.475 14.85 18.175 16.075 18.7C16.425 18.875 16.775 18.875 16.95 18.525C17.125 18.175 18 17.3 18.35 16.95C18.7 16.6 18.875 16.6 19.225 16.775L22.025 18.175C22.375 18.35 22.725 18.525 22.9 18.7C23.075 19.225 23.075 19.925 22.725 20.45V20.45Z" fill="#494949"/>
</svg>
