<svg width="36" height="35" viewBox="0 0 36 35" fill="none" xmlns="http://www.w3.org/2000/svg">
<path d="M30.2449 3.82812H5.08862C4.48364 3.82812 3.99487 4.31689 3.99487 4.92188V30.0781C3.99487 30.6831 4.48364 31.1719 5.08862 31.1719H30.2449C30.8499 31.1719 31.3386 30.6831 31.3386 30.0781V4.92188C31.3386 4.31689 30.8499 3.82812 30.2449 3.82812ZM29.1511 28.9844H22.8586V20.583H26.4133L26.9465 16.4575H22.8586V13.8223C22.8586 12.626 23.1902 11.8125 24.9026 11.8125H27.0867V8.12109C26.7073 8.06982 25.4119 7.95703 23.9011 7.95703C20.7498 7.95703 18.593 9.88135 18.593 13.4121V16.4541H15.0315V20.5796H18.5964V28.9844H6.18237V6.01562H29.1511V28.9844Z" fill="white"/>
</svg>
