<svg width="36" height="35" viewBox="0 0 36 35" fill="none" xmlns="http://www.w3.org/2000/svg">
<path d="M32.9792 17.4043C32.9792 17.3291 32.9792 17.2437 32.9758 17.1445C32.9724 16.8677 32.9656 16.5566 32.9587 16.2251C32.9314 15.2715 32.8835 14.3213 32.8083 13.4258C32.7058 12.1919 32.5554 11.1631 32.3503 10.3906C32.1339 9.5845 31.7097 8.84929 31.1201 8.25848C30.5305 7.66768 29.7962 7.24198 28.9905 7.02393C28.0232 6.76416 26.1296 6.60352 23.4636 6.50439C22.1956 6.45654 20.8386 6.42578 19.4817 6.40869C19.0066 6.40186 18.5657 6.39844 18.1692 6.39502H17.1643C16.7678 6.39844 16.3269 6.40186 15.8518 6.40869C14.4949 6.42578 13.1379 6.45654 11.8699 6.50439C9.20386 6.60693 7.30688 6.76758 6.34302 7.02393C5.53706 7.24144 4.80243 7.66697 4.21275 8.25785C3.62306 8.84874 3.19903 9.58423 2.98315 10.3906C2.77466 11.1631 2.62769 12.1919 2.52515 13.4258C2.44995 14.3213 2.4021 15.2715 2.37476 16.2251C2.3645 16.5566 2.36108 16.8677 2.35767 17.1445C2.35767 17.2437 2.35425 17.3291 2.35425 17.4043V17.5957C2.35425 17.6709 2.35425 17.7563 2.35767 17.8555C2.36108 18.1323 2.36792 18.4434 2.37476 18.7749C2.4021 19.7285 2.44995 20.6787 2.52515 21.5742C2.62769 22.8081 2.77808 23.8369 2.98315 24.6094C3.42065 26.2466 4.70581 27.5386 6.34302 27.9761C7.30688 28.2358 9.20386 28.3965 11.8699 28.4956C13.1379 28.5435 14.4949 28.5742 15.8518 28.5913C16.3269 28.5981 16.7678 28.6016 17.1643 28.605H18.1692C18.5657 28.6016 19.0066 28.5981 19.4817 28.5913C20.8386 28.5742 22.1956 28.5435 23.4636 28.4956C26.1296 28.3931 28.0266 28.2324 28.9905 27.9761C30.6277 27.5386 31.9128 26.25 32.3503 24.6094C32.5588 23.8369 32.7058 22.8081 32.8083 21.5742C32.8835 20.6787 32.9314 19.7285 32.9587 18.7749C32.969 18.4434 32.9724 18.1323 32.9758 17.8555C32.9758 17.7563 32.9792 17.6709 32.9792 17.5957V17.4043V17.4043ZM30.5183 17.582C30.5183 17.6538 30.5183 17.7324 30.5149 17.8247C30.5115 18.0913 30.5046 18.3853 30.4978 18.7031C30.4739 19.6123 30.426 20.5215 30.3542 21.3657C30.262 22.4663 30.1321 23.3687 29.9714 23.9736C29.7595 24.7632 29.1375 25.3887 28.3513 25.5972C27.6335 25.7886 25.8254 25.9424 23.3679 26.0347C22.1238 26.0825 20.7839 26.1133 19.4475 26.1304C18.9792 26.1372 18.5452 26.1406 18.1555 26.1406H17.178L15.886 26.1304C14.5496 26.1133 13.2131 26.0825 11.9656 26.0347C9.50806 25.939 7.69653 25.7886 6.98218 25.5972C6.19604 25.3853 5.57397 24.7632 5.36206 23.9736C5.20142 23.3687 5.07153 22.4663 4.97925 21.3657C4.90747 20.5215 4.86304 19.6123 4.83569 18.7031C4.82544 18.3853 4.82202 18.0879 4.8186 17.8247C4.8186 17.7324 4.81519 17.6504 4.81519 17.582V17.418C4.81519 17.3462 4.81519 17.2676 4.8186 17.1753C4.82202 16.9087 4.82886 16.6147 4.83569 16.2969C4.85962 15.3877 4.90747 14.4785 4.97925 13.6343C5.07153 12.5337 5.20142 11.6313 5.36206 11.0264C5.57397 10.2368 6.19604 9.61133 6.98218 9.40283C7.69995 9.21143 9.50806 9.05762 11.9656 8.96533C13.2097 8.91748 14.5496 8.88672 15.886 8.86963C16.3542 8.86279 16.7883 8.85938 17.178 8.85938H18.1555L19.4475 8.86963C20.7839 8.88672 22.1204 8.91748 23.3679 8.96533C25.8254 9.06103 27.637 9.21143 28.3513 9.40283C29.1375 9.61475 29.7595 10.2368 29.9714 11.0264C30.1321 11.6313 30.262 12.5337 30.3542 13.6343C30.426 14.4785 30.4705 15.3877 30.4978 16.2969C30.5081 16.6147 30.5115 16.9121 30.5149 17.1753C30.5149 17.2676 30.5183 17.3496 30.5183 17.418V17.582ZM14.6248 22.0801L22.5544 17.4658L14.6248 12.9199V22.0801Z" fill="white"/>
</svg>
