<svg width="30" height="31" viewBox="0 0 30 31" fill="none" xmlns="http://www.w3.org/2000/svg">
<g clip-path="url(#clip0_1631_384)">
<path d="M14.5833 0.916504C10.6194 0.916504 10.1254 0.935645 8.5741 1.00127C7.01641 1.07783 5.96277 1.31937 5.03308 1.68031C4.06006 2.04764 3.17887 2.62277 2.45092 3.36559C1.70602 4.09184 1.13058 4.97353 0.765633 5.94775C0.404696 6.87744 0.163159 7.93109 0.0865967 9.48877C0.0164144 11.041 0.00183105 11.5341 0.00183105 15.498C0.00183105 19.4619 0.0209717 19.956 0.0865967 21.5073C0.163159 23.0604 0.404696 24.1186 0.765633 25.0483C1.13297 26.0213 1.7081 26.9025 2.45092 27.6304C3.17717 28.3753 4.05885 28.9508 5.03308 29.3157C5.96277 29.6721 7.02097 29.9182 8.5741 29.9948C10.1263 30.0649 10.6194 30.0795 14.5833 30.0795C18.5473 30.0795 19.0413 30.0604 20.5926 29.9948C22.1457 29.9182 23.2039 29.6712 24.1336 29.3157C25.1066 28.9484 25.9878 28.3733 26.7158 27.6304C27.4616 26.905 28.0372 26.0231 28.401 25.0483C28.7574 24.1186 29.0035 23.0604 29.0801 21.5073C29.1503 19.955 29.1648 19.4619 29.1648 15.498C29.1648 11.5341 29.1457 11.0401 29.0801 9.48877C29.0035 7.93564 28.7565 6.87197 28.401 5.94775C28.0337 4.97474 27.4586 4.09354 26.7158 3.36559C25.9903 2.61974 25.1084 2.04414 24.1336 1.68031C23.2039 1.31937 22.1457 1.07783 20.5926 1.00127C19.0404 0.931087 18.5473 0.916504 14.5833 0.916504ZM14.5833 3.5415C18.4762 3.5415 18.941 3.56064 20.4796 3.62627C21.8987 3.69281 22.6716 3.92979 23.1848 4.13031C23.8192 4.36448 24.3934 4.7372 24.8655 5.22132C25.3488 5.69148 25.7201 6.26435 25.952 6.89749C26.1525 7.41064 26.3895 8.18356 26.456 9.6027C26.5216 11.1412 26.5408 11.607 26.5408 15.4989C26.5408 19.3909 26.5216 19.8566 26.4505 21.3952C26.374 22.8143 26.137 23.5872 25.9374 24.1004C25.6612 24.7849 25.3531 25.2634 24.8445 25.7811C24.3708 26.2622 23.797 26.6331 23.1638 26.8675C22.657 27.0681 21.8732 27.305 20.4486 27.3716C18.9018 27.4372 18.4461 27.4563 14.5432 27.4563C10.6404 27.4563 10.1856 27.4372 8.63699 27.3661C7.21785 27.2896 6.4349 27.0526 5.92175 26.853C5.22904 26.5768 4.75417 26.2687 4.24558 25.7601C3.73243 25.247 3.40613 24.7584 3.15457 24.0794C2.9504 23.5726 2.71707 22.7888 2.64141 21.3642C2.58946 19.8356 2.56485 19.3617 2.56485 15.4771C2.56485 11.5942 2.58946 11.1194 2.64141 9.57171C2.71707 8.1471 2.9504 7.36507 3.15457 6.85648C3.40613 6.16286 3.73334 5.6889 4.24558 5.17575C4.75326 4.66807 5.22904 4.33994 5.92175 4.08291C6.4349 3.8833 7.19871 3.64632 8.62332 3.57523C10.1701 3.51963 10.6258 3.49958 14.5232 3.49958L14.5833 3.5415ZM14.5833 8.01403C13.6002 8.01367 12.6266 8.20705 11.7182 8.58312C10.8098 8.95919 9.98447 9.51058 9.28928 10.2058C8.59408 10.901 8.04269 11.7263 7.66663 12.6347C7.29056 13.5431 7.09718 14.5167 7.09753 15.4998C7.09718 16.483 7.29056 17.4566 7.66663 18.365C8.04269 19.2733 8.59408 20.0987 9.28928 20.7939C9.98447 21.4891 10.8098 22.0405 11.7182 22.4166C12.6266 22.7926 13.6002 22.986 14.5833 22.9856C15.5665 22.986 16.5401 22.7926 17.4485 22.4166C18.3568 22.0405 19.1822 21.4891 19.8774 20.7939C20.5726 20.0987 21.124 19.2733 21.5001 18.365C21.8761 17.4566 22.0695 16.483 22.0691 15.4998C22.0695 14.5167 21.8761 13.5431 21.5001 12.6347C21.124 11.7263 20.5726 10.901 19.8774 10.2058C19.1822 9.51058 18.3568 8.95919 17.4485 8.58312C16.5401 8.20705 15.5665 8.01367 14.5833 8.01403V8.01403ZM14.5833 20.3606C11.8964 20.3606 9.72253 18.1868 9.72253 15.4998C9.72253 12.8129 11.8964 10.639 14.5833 10.639C17.2703 10.639 19.4441 12.8129 19.4441 15.4998C19.4441 18.1868 17.2703 20.3606 14.5833 20.3606ZM24.1208 7.71507C24.1204 8.17961 23.9355 8.62496 23.6068 8.95326C23.2782 9.28157 22.8326 9.46598 22.3681 9.46598C22.1384 9.46598 21.911 9.42074 21.6988 9.33284C21.4866 9.24494 21.2937 9.11611 21.1313 8.95369C20.9689 8.79127 20.8401 8.59845 20.7522 8.38624C20.6643 8.17403 20.619 7.94659 20.619 7.71689C20.619 7.4872 20.6643 7.25976 20.7522 7.04755C20.8401 6.83534 20.9689 6.64252 21.1313 6.4801C21.2937 6.31768 21.4866 6.18885 21.6988 6.10095C21.911 6.01305 22.1384 5.96781 22.3681 5.96781C23.3315 5.96781 24.1208 6.75166 24.1208 7.71507V7.71507Z" fill="white"/>
</g>
<defs>
<clipPath id="clip0_1631_384">
<rect width="29.1667" height="29.1667" fill="white" transform="translate(0 0.916504)"/>
</clipPath>
</defs>
</svg>
