<svg width="36" height="35" viewBox="0 0 36 35" fill="none" xmlns="http://www.w3.org/2000/svg">
<path d="M30.7917 11.6667V23.3333C30.7917 25.2672 30.0235 27.1219 28.6561 28.4893C27.2886 29.8568 25.434 30.625 23.5001 30.625H11.8334C9.89954 30.625 8.04488 29.8568 6.67743 28.4893C5.30997 27.1219 4.54175 25.2672 4.54175 23.3333V11.6667C4.54175 9.7328 5.30997 7.87813 6.67743 6.51068C8.04488 5.14323 9.89954 4.375 11.8334 4.375H23.5001C25.434 4.375 27.2886 5.14323 28.6561 6.51068C30.0235 7.87813 30.7917 9.7328 30.7917 11.6667Z" stroke="white" stroke-width="2.5" stroke-linecap="round" stroke-linejoin="round"/>
<path d="M14.7501 17.5C13.8848 17.5 13.0389 17.7566 12.3194 18.2373C11.6 18.7181 11.0392 19.4013 10.7081 20.2008C10.377 21.0002 10.2903 21.8799 10.4591 22.7285C10.6279 23.5772 11.0446 24.3567 11.6565 24.9686C12.2683 25.5804 13.0479 25.9971 13.8965 26.1659C14.7452 26.3347 15.6249 26.2481 16.4243 25.917C17.2237 25.5858 17.907 25.0251 18.3877 24.3056C18.8685 23.5862 19.1251 22.7403 19.1251 21.875V8.75C19.6107 10.2083 21.4584 13.125 24.9584 13.125" stroke="white" stroke-width="2.5" stroke-linecap="round" stroke-linejoin="round"/>
</svg>
